<svg width="26" height="26" viewBox="0 0 26 26" fill="none" xmlns="http://www.w3.org/2000/svg">
<circle cx="12.5022" cy="12.5433" r="11.2669" fill="#31264F"/>
<path d="M13.5342 8.0341C13.1398 7.86969 12.7256 7.79077 12.3114 7.79077C12.1011 7.79077 11.8907 7.8105 11.6869 7.84996C11.0624 7.97491 10.497 8.27743 10.0434 8.72464C9.59634 9.17184 9.28736 9.74399 9.16903 10.3688C9.04412 10.9935 9.10986 11.6315 9.3531 12.2233C9.59634 12.8086 10.0039 13.3085 10.5364 13.6636C11.0624 14.0187 11.6803 14.2029 12.318 14.2029C13.1726 14.2029 13.9747 13.8675 14.5861 13.2624C15.1909 12.6574 15.5262 11.8551 15.5262 10.9935C15.5262 10.3556 15.3421 9.74399 14.9871 9.2113C14.6189 8.68518 14.1193 8.27743 13.5342 8.0341ZM13.9944 12.1247C13.7709 12.4601 13.4553 12.7166 13.0806 12.8744C12.8308 12.9796 12.5678 13.0257 12.3049 13.0257C12.1734 13.0257 12.0419 13.0125 11.9038 12.9862C11.5094 12.9073 11.1478 12.7166 10.8651 12.4338C10.5825 12.151 10.3852 11.7893 10.3129 11.3947C10.234 11.0001 10.2735 10.5924 10.4247 10.2241C10.5824 9.84922 10.8388 9.53355 11.1741 9.30994C11.516 9.07977 11.9038 8.96139 12.3049 8.96139C12.8374 8.96139 13.3633 9.17841 13.738 9.55985C14.1193 9.94129 14.3297 10.4543 14.3363 10.9935C14.3363 11.3947 14.2179 11.7893 13.9944 12.1247Z" fill="white"/>
<path d="M17.0448 5.9495C15.7826 4.60131 14.0996 3.86475 12.3114 3.86475C10.5233 3.86475 8.84032 4.60789 7.57809 5.9495C6.30929 7.29768 5.61243 9.09307 5.61243 10.9937C5.61243 12.5326 6.09234 14.0518 6.9667 15.275C7.03901 15.3736 7.11133 15.4723 7.17707 15.5709L12.1471 21.8055C12.1865 21.8581 12.2457 21.8844 12.3114 21.8844C12.3772 21.8844 12.4364 21.8581 12.4758 21.8055L17.4524 15.5643C17.4787 15.5315 17.6233 15.3276 17.6562 15.2816L17.6628 15.275C18.5371 14.0518 19.017 12.5326 19.0105 10.9937C19.0039 9.08649 18.307 7.29111 17.0448 5.9495ZM16.7884 14.5581L16.7621 14.5976C16.7161 14.6568 16.6372 14.7752 16.6175 14.8015L12.5218 19.9443C12.4692 20.0101 12.3969 20.0429 12.3114 20.0429C12.226 20.0429 12.1537 20.0035 12.1011 19.9443L8.01198 14.8146C7.99226 14.7883 7.91994 14.6897 7.87392 14.6239C7.8542 14.5976 7.83448 14.5713 7.83448 14.5647L7.88707 14.5253L7.8279 14.5647C7.09818 13.5454 6.69716 12.2761 6.69716 10.9937C6.69716 9.40216 7.28225 7.9093 8.33411 6.78471C9.39254 5.66013 10.806 5.03536 12.2983 5.03536C13.7775 5.03536 15.2238 5.67328 16.2625 6.78471C17.3209 7.9093 17.8994 9.40216 17.8994 10.9937C17.9126 12.2761 17.5181 13.5388 16.7884 14.5581Z" fill="white"/>
</svg>
