<svg width="26" height="26" viewBox="0 0 26 26" fill="none" xmlns="http://www.w3.org/2000/svg">
<circle cx="12.5014" cy="13.0433" r="11.2669" fill="#31264F"/>
<path d="M15.0733 14.0018C14.8859 14.0187 14.7016 14.0804 14.5471 14.1891L12.734 15.3953L12.7339 15.3952L12.731 15.3973C12.7299 15.3981 12.729 15.3987 12.7283 15.3991L12.7209 15.3991L12.7181 15.3989L12.7179 15.3988C11.6043 14.8621 10.6923 13.9507 10.1516 12.842L10.1514 12.8399L10.1514 12.8354L10.155 12.8293L11.3601 10.9899C11.3601 10.9898 11.3602 10.9897 11.3602 10.9897C11.4651 10.8314 11.5282 10.6504 11.5439 10.4634C11.5597 10.2769 11.5283 10.0851 11.4548 9.91512C11.4547 9.91506 11.4547 9.915 11.4547 9.91494L10 6.52241C9.99994 6.52225 9.99987 6.5221 9.99981 6.52194C9.9049 6.295 9.73171 6.10291 9.52137 5.98393C9.31137 5.86514 9.06027 5.81446 8.81907 5.8427L8.81907 5.8427L8.81775 5.84287C7.84618 5.96976 6.95287 6.44039 6.30008 7.18078L6.30007 7.18079C5.65207 7.91603 5.2938 8.86793 5.2938 9.84638C5.2938 15.5854 9.96261 20.2514 15.6997 20.2514C16.6815 20.2514 17.6288 19.8917 18.3649 19.2466L18.3652 19.2464C19.1012 18.596 19.5773 17.7024 19.7049 16.7294L19.705 16.7294L19.7054 16.7248C19.726 16.4802 19.6799 16.2325 19.5537 16.0167C19.4324 15.8013 19.2385 15.6323 19.0186 15.5364L19.0179 15.5361L15.6241 14.0868L15.6239 14.0868C15.4503 14.0131 15.2567 13.985 15.0733 14.0018ZM15.0733 14.0018L15.0822 14.1014M15.0733 14.0018C15.0732 14.0019 15.0731 14.0019 15.073 14.0019L15.0822 14.1014M15.0822 14.1014C14.9099 14.1169 14.7424 14.1737 14.6036 14.2716L15.5848 14.1788C15.4269 14.1118 15.2498 14.086 15.0822 14.1014ZM10.4237 10.3551L10.4237 10.3551L10.4249 10.3578L10.4251 10.361L10.4252 10.3646L10.4215 10.3706L9.21681 12.2095C9.2167 12.2097 9.21659 12.2099 9.21647 12.21C9.10622 12.3743 9.04322 12.5664 9.03249 12.7589C9.01683 12.9587 9.05958 13.1508 9.14209 13.3286L9.14207 13.3286L9.14305 13.3306C9.79906 14.6658 10.8923 15.7547 12.2287 16.404L12.2295 16.4044C12.4085 16.4895 12.6026 16.5231 12.7952 16.5119L12.7952 16.512L12.7981 16.5117C12.9894 16.495 13.1834 16.4337 13.3431 16.3248C13.3432 16.3247 13.3434 16.3246 13.3436 16.3245L15.1526 15.121L15.1608 15.1167C15.1628 15.1157 15.1643 15.115 15.1655 15.1144L15.1709 15.1145C15.1714 15.1145 15.172 15.1145 15.1725 15.1145C15.1747 15.1146 15.1764 15.1148 15.1777 15.1149L15.1817 15.1166L18.5753 16.571C18.5813 16.5735 18.5851 16.5764 18.5881 16.5799L18.5875 16.5853C18.4996 17.2881 18.1573 17.9313 17.6249 18.4001C17.0927 18.8688 16.4078 19.1282 15.6949 19.1282C13.2132 19.123 10.8835 18.1587 9.12645 16.4033C7.3739 14.6477 6.40328 12.3211 6.40328 9.84122C6.40328 9.13331 6.66238 8.45007 7.13003 7.91626C7.59598 7.38438 8.24139 7.04077 8.94242 6.94977H8.94243H8.94246H8.94249H8.94252H8.94255H8.94257H8.9426H8.94263H8.94266H8.94269H8.94272H8.94274H8.94277H8.9428H8.94283H8.94286H8.94288H8.94291H8.94294H8.94297H8.943H8.94302H8.94305H8.94308H8.94311H8.94314H8.94316H8.94319H8.94322H8.94325H8.94328H8.9433H8.94333H8.94336H8.94339H8.94342H8.94344H8.94347H8.9435H8.94353H8.94356H8.94358H8.94361H8.94364H8.94367H8.9437H8.94372H8.94375H8.94378H8.94381H8.94384H8.94387H8.94389H8.94392H8.94395H8.94398H8.94401H8.94403H8.94406H8.94409H8.94412H8.94415H8.94417H8.9442H8.94423H8.94426H8.94429H8.94431H8.94434H8.94437H8.9444H8.94443H8.94445H8.94448H8.94451H8.94454H8.94457H8.94459H8.94462H8.94465H8.94468H8.94471H8.94473H8.94476H8.94479H8.94482H8.94485H8.94487H8.9449H8.94493H8.94496H8.94499H8.94502H8.94504H8.94507H8.9451H8.94513H8.94516H8.94518H8.94521H8.94524H8.94527H8.9453H8.94532H8.94535H8.94538H8.94541H8.94544H8.94546H8.94549H8.94552H8.94555H8.94558H8.9456H8.94563H8.94566H8.94569H8.94572H8.94574H8.94577H8.9458H8.94583H8.94586H8.94588H8.94591H8.94594H8.94597H8.946H8.94602H8.94605H8.94608H8.94611H8.94614H8.94617H8.94619H8.94622H8.94625H8.94628H8.94631H8.94633H8.94636H8.94639H8.94642H8.94645H8.94647H8.9465H8.94653H8.94656H8.94659H8.94661H8.94664H8.94667H8.9467H8.94673H8.94675H8.94678H8.94681H8.94684H8.94687H8.94689H8.94692H8.94695H8.94698H8.94701H8.94703H8.94706H8.94709H8.94712H8.94715H8.94717H8.9472H8.94723H8.94726H8.94729H8.94731H8.94734H8.94737H8.9474H8.94743H8.94746H8.94748H8.94751H8.94754H8.94757H8.9476H8.94762H8.94765H8.94768H8.94771H8.94774H8.94776H8.94779H8.94782H8.94785H8.94788H8.9479H8.94793H8.94796H8.94799H8.94802H8.94804H8.94807H8.9481H8.94813H8.94816H8.94818H8.94821H8.94824H8.94827H8.9483H8.94832H8.94835H8.94838H8.94841H8.94844H8.94846H8.94849H8.94852H8.94855H8.94858H8.94861H8.94863H8.94866H8.94869H8.94872H8.94875H8.94877H8.9488H8.94883H8.94886H8.94889H8.94891H8.94894H8.94897H8.949H8.94903H8.94905H8.94908H8.94911H8.94914H8.94917H8.94919H8.94922H8.94925H8.94928H8.94931H8.94933H8.94936H8.94939H8.94942H8.94945H8.94947H8.9495H8.94953H8.94956H8.94959H8.94961H8.94964H8.94967H8.9497H8.94973H8.94975H8.94978H8.94981H8.94984H8.94987H8.9499H8.94992H8.94995H8.94998H8.95001H8.95004H8.95006H8.95009H8.95012H8.95015H8.95018H8.9502H8.95023H8.95026H8.95029H8.95032H8.95034H8.95037C8.9536 6.94977 8.95572 6.94999 8.95697 6.95019C8.96197 6.95438 8.96484 6.95729 8.96658 6.95933C8.96801 6.96099 8.96882 6.96222 8.9694 6.96333L10.4237 10.3551Z" fill="white" stroke="white" stroke-width="0.2"/>
</svg>
