<svg width="30" height="31" viewBox="0 0 30 31" fill="none" xmlns="http://www.w3.org/2000/svg">
<path d="M22.2702 18.4428C16.8508 18.4702 15.9741 21.8416 15.6819 24.6923L15.5492 25.9531H14.4599L14.3271 24.6923C14.0349 21.8416 13.1317 18.4702 7.89816 18.4428C7.02152 16.5788 6.6496 15.0712 6.6496 13.3718C6.6496 9.12333 10.0235 5.14875 15.0177 5.14875C20.0121 5.14875 23.3328 9.09578 23.3328 13.3994C23.3328 15.0712 23.1734 16.5788 22.2702 18.4428ZM14.9647 -0.00437164C6.72935 -0.00437164 -0.0184174 6.95788 -0.0184174 15.4823C-0.0184174 24.0344 6.72935 30.9965 14.9647 30.9965C23.2797 30.9965 30.0008 24.0344 30.0008 15.4823C30.0008 6.95788 23.2797 -0.00437164 14.9647 -0.00437164Z" fill="#29B24A"/>
</svg>
