<svg width="493" height="178" viewBox="0 0 493 178" fill="none" xmlns="http://www.w3.org/2000/svg">
<path d="M0.880001 31L38.08 2.67999H56.32V175H37.6V25.24L0.880001 52.12V31ZM121.677 5.79999C128.877 1.95999 136.877 0.0399923 145.677 0.0399923C154.477 0.0399923 162.397 1.95999 169.437 5.79999C176.637 9.63999 182.717 15.32 187.677 22.84C192.637 30.36 196.477 39.64 199.197 50.68C201.917 61.72 203.277 74.44 203.277 88.84C203.277 103.24 201.917 115.96 199.197 127C196.477 138.04 192.637 147.32 187.677 154.84C182.717 162.36 176.637 168.04 169.437 171.88C162.397 175.72 154.477 177.64 145.677 177.64C136.877 177.64 128.877 175.72 121.677 171.88C114.637 168.04 108.637 162.36 103.677 154.84C98.7169 147.32 94.8769 138.04 92.1569 127C89.4369 115.96 88.0769 103.24 88.0769 88.84C88.0769 74.44 89.4369 61.72 92.1569 50.68C94.8769 39.64 98.7169 30.36 103.677 22.84C108.637 15.32 114.637 9.63999 121.677 5.79999ZM161.277 24.76C156.477 21.72 151.277 20.2 145.677 20.2C140.077 20.2 134.877 21.72 130.077 24.76C125.277 27.8 121.117 32.28 117.597 38.2C114.237 43.96 111.597 51.08 109.677 59.56C107.757 68.04 106.797 77.8 106.797 88.84C106.797 99.88 107.757 109.64 109.677 118.12C111.597 126.6 114.237 133.8 117.597 139.72C121.117 145.48 125.277 149.88 130.077 152.92C134.877 155.96 140.077 157.48 145.677 157.48C151.277 157.48 156.477 155.96 161.277 152.92C166.077 149.88 170.157 145.48 173.517 139.72C177.037 133.8 179.757 126.6 181.677 118.12C183.597 109.64 184.557 99.88 184.557 88.84C184.557 77.8 183.597 68.04 181.677 59.56C179.757 51.08 177.037 43.96 173.517 38.2C170.157 32.28 166.077 27.8 161.277 24.76ZM256.921 5.79999C264.121 1.95999 272.121 0.0399923 280.921 0.0399923C289.721 0.0399923 297.641 1.95999 304.681 5.79999C311.881 9.63999 317.961 15.32 322.921 22.84C327.881 30.36 331.721 39.64 334.441 50.68C337.161 61.72 338.521 74.44 338.521 88.84C338.521 103.24 337.161 115.96 334.441 127C331.721 138.04 327.881 147.32 322.921 154.84C317.961 162.36 311.881 168.04 304.681 171.88C297.641 175.72 289.721 177.64 280.921 177.64C272.121 177.64 264.121 175.72 256.921 171.88C249.881 168.04 243.881 162.36 238.921 154.84C233.961 147.32 230.121 138.04 227.401 127C224.681 115.96 223.321 103.24 223.321 88.84C223.321 74.44 224.681 61.72 227.401 50.68C230.121 39.64 233.961 30.36 238.921 22.84C243.881 15.32 249.881 9.63999 256.921 5.79999ZM296.521 24.76C291.721 21.72 286.521 20.2 280.921 20.2C275.321 20.2 270.121 21.72 265.321 24.76C260.521 27.8 256.361 32.28 252.841 38.2C249.481 43.96 246.841 51.08 244.921 59.56C243.001 68.04 242.041 77.8 242.041 88.84C242.041 99.88 243.001 109.64 244.921 118.12C246.841 126.6 249.481 133.8 252.841 139.72C256.361 145.48 260.521 149.88 265.321 152.92C270.121 155.96 275.321 157.48 280.921 157.48C286.521 157.48 291.721 155.96 296.521 152.92C301.321 149.88 305.401 145.48 308.761 139.72C312.281 133.8 315.001 126.6 316.921 118.12C318.841 109.64 319.801 99.88 319.801 88.84C319.801 77.8 318.841 68.04 316.921 59.56C315.001 51.08 312.281 43.96 308.761 38.2C305.401 32.28 301.321 27.8 296.521 24.76ZM376.984 175L451.324 45.76H467.164L392.824 175H376.984ZM382.744 105.52C378.184 105.52 373.984 104.74 370.144 103.18C366.424 101.5 363.184 99.28 360.424 96.52C357.784 93.64 355.684 90.34 354.124 86.62C352.564 82.9 351.784 78.94 351.784 74.74C351.784 70.54 352.564 66.58 354.124 62.86C355.684 59.14 357.784 55.9 360.424 53.14C363.184 50.26 366.424 48.04 370.144 46.48C373.984 44.8 378.184 43.96 382.744 43.96C387.184 43.96 391.324 44.8 395.164 46.48C399.004 48.04 402.244 50.26 404.884 53.14C407.644 55.9 409.804 59.14 411.364 62.86C412.924 66.58 413.704 70.54 413.704 74.74C413.704 78.94 412.924 82.9 411.364 86.62C409.804 90.34 407.644 93.64 404.884 96.52C402.244 99.28 399.004 101.5 395.164 103.18C391.324 104.74 387.184 105.52 382.744 105.52ZM382.744 57.64C379.984 57.64 377.524 58.12 375.364 59.08C373.204 60.04 371.284 61.3 369.604 62.86C368.044 64.42 366.844 66.22 366.004 68.26C365.164 70.3 364.744 72.46 364.744 74.74C364.744 77.02 365.164 79.18 366.004 81.22C366.844 83.26 368.044 85.06 369.604 86.62C371.284 88.18 373.204 89.44 375.364 90.4C377.524 91.36 379.984 91.84 382.744 91.84C385.384 91.84 387.784 91.36 389.944 90.4C392.224 89.44 394.144 88.18 395.704 86.62C397.384 85.06 398.644 83.26 399.484 81.22C400.324 79.18 400.744 77.02 400.744 74.74C400.744 72.46 400.324 70.3 399.484 68.26C398.644 66.22 397.384 64.42 395.704 62.86C394.144 61.3 392.224 60.04 389.944 59.08C387.784 58.12 385.384 57.64 382.744 57.64ZM461.404 176.8C456.844 176.8 452.644 176.02 448.804 174.46C445.084 172.78 441.844 170.56 439.084 167.8C436.444 164.92 434.344 161.62 432.784 157.9C431.224 154.18 430.444 150.22 430.444 146.02C430.444 141.82 431.224 137.86 432.784 134.14C434.344 130.42 436.444 127.18 439.084 124.42C441.844 121.54 445.084 119.32 448.804 117.76C452.644 116.08 456.844 115.24 461.404 115.24C465.844 115.24 469.984 116.08 473.824 117.76C477.664 119.32 480.904 121.54 483.544 124.42C486.304 127.18 488.464 130.42 490.024 134.14C491.584 137.86 492.364 141.82 492.364 146.02C492.364 150.22 491.584 154.18 490.024 157.9C488.464 161.62 486.304 164.92 483.544 167.8C480.904 170.56 477.664 172.78 473.824 174.46C469.984 176.02 465.844 176.8 461.404 176.8ZM461.404 128.92C458.644 128.92 456.184 129.4 454.024 130.36C451.864 131.32 449.944 132.58 448.264 134.14C446.704 135.7 445.504 137.5 444.664 139.54C443.824 141.58 443.404 143.74 443.404 146.02C443.404 148.3 443.824 150.46 444.664 152.5C445.504 154.54 446.704 156.34 448.264 157.9C449.944 159.46 451.864 160.72 454.024 161.68C456.184 162.64 458.644 163.12 461.404 163.12C464.044 163.12 466.444 162.64 468.604 161.68C470.884 160.72 472.804 159.46 474.364 157.9C476.044 156.34 477.304 154.54 478.144 152.5C478.984 150.46 479.404 148.3 479.404 146.02C479.404 143.74 478.984 141.58 478.144 139.54C477.304 137.5 476.044 135.7 474.364 134.14C472.804 132.58 470.884 131.32 468.604 130.36C466.444 129.4 464.044 128.92 461.404 128.92Z" fill="#1B2AC9"/>
<path d="M0.880001 31L-1.54294 27.8173L-3.12 29.0179V31H0.880001ZM38.08 2.67999V-1.32001H36.7307L35.6571 -0.502682L38.08 2.67999ZM56.32 2.67999H60.32V-1.32001H56.32V2.67999ZM56.32 175V179H60.32V175H56.32ZM37.6 175H33.6V179H37.6V175ZM37.6 25.24H41.6V17.3547L35.2373 22.0124L37.6 25.24ZM0.880001 52.12H-3.12V60.0053L3.24271 55.3476L0.880001 52.12ZM3.30294 34.1827L40.5029 5.86266L35.6571 -0.502682L-1.54294 27.8173L3.30294 34.1827ZM38.08 6.67999H56.32V-1.32001H38.08V6.67999ZM52.32 2.67999V175H60.32V2.67999H52.32ZM56.32 171H37.6V179H56.32V171ZM41.6 175V25.24H33.6V175H41.6ZM35.2373 22.0124L-1.48271 48.8924L3.24271 55.3476L39.9627 28.4676L35.2373 22.0124ZM4.88 52.12V31H-3.12V52.12H4.88ZM121.677 5.79999L119.795 2.27058L119.778 2.27942L119.761 2.28841L121.677 5.79999ZM169.437 5.79999L167.521 9.31157L167.538 9.32056L167.555 9.3294L169.437 5.79999ZM187.677 22.84L184.338 25.0424L187.677 22.84ZM199.197 50.68L195.313 51.6369V51.6369L199.197 50.68ZM199.197 127L203.081 127.957L199.197 127ZM187.677 154.84L191.016 157.042L187.677 154.84ZM169.437 171.88L167.555 168.351L167.538 168.359L167.521 168.368L169.437 171.88ZM121.677 171.88L119.761 175.392L119.778 175.401L119.795 175.409L121.677 171.88ZM92.1569 127L88.273 127.957L92.1569 127ZM92.1569 50.68L96.0407 51.6369L92.1569 50.68ZM103.677 22.84L107.016 25.0424L103.677 22.84ZM130.077 24.76L132.217 28.1393L130.077 24.76ZM117.597 38.2L114.159 36.1557L114.15 36.1701L114.142 36.1845L117.597 38.2ZM109.677 59.56L113.578 60.4433V60.4433L109.677 59.56ZM109.677 118.12L113.578 117.237L109.677 118.12ZM117.597 139.72L114.118 141.694L114.15 141.751L114.184 141.806L117.597 139.72ZM173.517 139.72L170.079 137.676L170.07 137.69L170.062 137.705L173.517 139.72ZM173.517 38.2L170.038 40.1744L170.07 40.2306L170.104 40.2858L173.517 38.2ZM123.559 9.3294C130.135 5.82232 137.481 4.03999 145.677 4.03999V-3.96001C136.273 -3.96001 127.619 -1.90234 119.795 2.27058L123.559 9.3294ZM145.677 4.03999C153.874 4.03999 161.125 5.82253 167.521 9.31157L171.352 2.28841C163.669 -1.90255 155.079 -3.96001 145.677 -3.96001V4.03999ZM167.555 9.3294C174.106 12.8237 179.706 18.0202 184.338 25.0424L191.016 20.6376C185.728 12.6198 179.167 6.45624 171.319 2.27058L167.555 9.3294ZM184.338 25.0424C188.99 32.0963 192.675 40.929 195.313 51.6369L203.081 49.7231C200.279 38.351 196.283 28.6237 191.016 20.6376L184.338 25.0424ZM195.313 51.6369C197.939 62.2937 199.277 74.6813 199.277 88.84H207.277C207.277 74.1987 205.895 61.1463 203.081 49.7231L195.313 51.6369ZM199.277 88.84C199.277 102.999 197.939 115.386 195.313 126.043L203.081 127.957C205.895 116.534 207.277 103.481 207.277 88.84H199.277ZM195.313 126.043C192.675 136.751 188.99 145.584 184.338 152.638L191.016 157.042C196.283 149.056 200.279 139.329 203.081 127.957L195.313 126.043ZM184.338 152.638C179.706 159.66 174.106 164.856 167.555 168.351L171.319 175.409C179.167 171.224 185.728 165.06 191.016 157.042L184.338 152.638ZM167.521 168.368C161.125 171.857 153.874 173.64 145.677 173.64V181.64C155.079 181.64 163.669 179.583 171.352 175.392L167.521 168.368ZM145.677 173.64C137.481 173.64 130.135 171.858 123.559 168.351L119.795 175.409C127.619 179.582 136.273 181.64 145.677 181.64V173.64ZM123.592 168.368C117.195 164.879 111.661 159.68 107.016 152.638L100.338 157.042C105.613 165.04 112.079 171.201 119.761 175.392L123.592 168.368ZM107.016 152.638C102.363 145.584 98.6789 136.751 96.0407 126.043L88.273 127.957C91.0748 139.329 95.0704 149.056 100.338 157.042L107.016 152.638ZM96.0407 126.043C93.4151 115.386 92.0769 102.999 92.0769 88.84H84.0769C84.0769 103.481 85.4586 116.534 88.273 127.957L96.0407 126.043ZM92.0769 88.84C92.0769 74.6813 93.4151 62.2937 96.0407 51.6369L88.273 49.7231C85.4586 61.1463 84.0769 74.1987 84.0769 88.84H92.0769ZM96.0407 51.6369C98.6789 40.929 102.363 32.0963 107.016 25.0424L100.338 20.6376C95.0704 28.6237 91.0748 38.351 88.273 49.7231L96.0407 51.6369ZM107.016 25.0424C111.661 18.0003 117.195 12.8012 123.592 9.31157L119.761 2.28841C112.079 6.47876 105.613 12.6397 100.338 20.6376L107.016 25.0424ZM163.417 21.3807C157.987 17.9415 152.046 16.2 145.677 16.2V24.2C150.507 24.2 154.967 25.4985 159.137 28.1393L163.417 21.3807ZM145.677 16.2C139.307 16.2 133.367 17.9415 127.937 21.3807L132.217 28.1393C136.387 25.4985 140.846 24.2 145.677 24.2V16.2ZM127.937 21.3807C122.504 24.8215 117.933 29.8082 114.159 36.1557L121.035 40.2443C124.301 34.7518 128.05 30.7785 132.217 28.1393L127.937 21.3807ZM114.142 36.1845C110.525 42.3853 107.76 49.9126 105.776 58.6767L113.578 60.4433C115.434 52.2474 117.949 45.5347 121.052 40.2155L114.142 36.1845ZM105.776 58.6767C103.775 67.5119 102.797 77.5783 102.797 88.84H110.797C110.797 78.0217 111.739 68.568 113.578 60.4433L105.776 58.6767ZM102.797 88.84C102.797 100.102 103.775 110.168 105.776 119.003L113.578 117.237C111.739 109.112 110.797 99.6583 110.797 88.84H102.797ZM105.776 119.003C107.759 127.765 110.52 135.354 114.118 141.694L121.076 137.746C117.954 132.246 115.434 125.435 113.578 117.237L105.776 119.003ZM114.184 141.806C117.964 147.991 122.53 152.875 127.937 156.299L132.217 149.541C128.024 146.885 124.27 142.969 121.01 137.634L114.184 141.806ZM127.937 156.299C133.367 159.738 139.307 161.48 145.677 161.48V153.48C140.846 153.48 136.387 152.182 132.217 149.541L127.937 156.299ZM145.677 161.48C152.046 161.48 157.987 159.738 163.417 156.299L159.137 149.541C154.967 152.182 150.507 153.48 145.677 153.48V161.48ZM163.417 156.299C168.845 152.862 173.345 147.953 176.972 141.735L170.062 137.705C166.969 143.007 163.309 146.898 159.137 149.541L163.417 156.299ZM176.955 141.764C180.737 135.404 183.589 127.79 185.578 119.003L177.776 117.237C175.925 125.41 173.337 132.196 170.079 137.676L176.955 141.764ZM185.578 119.003C187.579 110.168 188.557 100.102 188.557 88.84H180.557C180.557 99.6583 179.615 109.112 177.776 117.237L185.578 119.003ZM188.557 88.84C188.557 77.5783 187.579 67.5119 185.578 58.6767L177.776 60.4433C179.615 68.568 180.557 78.0217 180.557 88.84H188.557ZM185.578 58.6767C183.588 49.8879 180.732 42.3352 176.93 36.1142L170.104 40.2858C173.342 45.5848 175.926 52.2721 177.776 60.4433L185.578 58.6767ZM176.996 36.2256C173.375 29.8471 168.872 24.8353 163.417 21.3807L159.137 28.1393C163.282 30.7647 166.938 34.7129 170.038 40.1744L176.996 36.2256ZM256.921 5.79999L255.038 2.27058L255.022 2.27942L255.005 2.28841L256.921 5.79999ZM304.681 5.79999L302.765 9.31157L302.782 9.32056L302.798 9.3294L304.681 5.79999ZM322.921 22.84L319.582 25.0424L322.921 22.84ZM334.441 50.68L330.557 51.6369V51.6369L334.441 50.68ZM334.441 127L338.324 127.957L334.441 127ZM322.921 154.84L326.26 157.042L322.921 154.84ZM304.681 171.88L302.798 168.351L302.782 168.359L302.765 168.368L304.681 171.88ZM256.921 171.88L255.005 175.392L255.022 175.401L255.038 175.409L256.921 171.88ZM227.401 127L223.517 127.957L227.401 127ZM227.401 50.68L231.284 51.6369L227.401 50.68ZM238.921 22.84L242.26 25.0424H242.26L238.921 22.84ZM265.321 24.76L267.461 28.1393L265.321 24.76ZM252.841 38.2L249.402 36.1557L249.394 36.1701L249.385 36.1845L252.841 38.2ZM244.921 59.56L248.822 60.4433V60.4433L244.921 59.56ZM244.921 118.12L248.822 117.237L244.921 118.12ZM252.841 139.72L249.362 141.694L249.394 141.751L249.427 141.806L252.841 139.72ZM308.761 139.72L305.322 137.676L305.314 137.69L305.306 137.705L308.761 139.72ZM308.761 38.2L305.282 40.1744L305.314 40.2306L305.348 40.2858L308.761 38.2ZM258.803 9.3294C265.379 5.82232 272.724 4.03999 280.921 4.03999V-3.96001C271.517 -3.96001 262.862 -1.90234 255.038 2.27058L258.803 9.3294ZM280.921 4.03999C289.118 4.03999 296.369 5.82253 302.765 9.31157L306.596 2.28841C298.913 -1.90255 290.323 -3.96001 280.921 -3.96001V4.03999ZM302.798 9.3294C309.35 12.8237 314.95 18.0202 319.582 25.0424L326.26 20.6376C320.971 12.6198 314.411 6.45624 306.563 2.27058L302.798 9.3294ZM319.582 25.0424C324.234 32.0963 327.919 40.929 330.557 51.6369L338.324 49.7231C335.523 38.351 331.527 28.6237 326.26 20.6376L319.582 25.0424ZM330.557 51.6369C333.182 62.2937 334.521 74.6813 334.521 88.84H342.521C342.521 74.1987 341.139 61.1463 338.324 49.7231L330.557 51.6369ZM334.521 88.84C334.521 102.999 333.182 115.386 330.557 126.043L338.324 127.957C341.139 116.534 342.521 103.481 342.521 88.84H334.521ZM330.557 126.043C327.919 136.751 324.234 145.584 319.582 152.638L326.26 157.042C331.527 149.056 335.523 139.329 338.324 127.957L330.557 126.043ZM319.582 152.638C314.95 159.66 309.35 164.856 302.798 168.351L306.563 175.409C314.411 171.224 320.971 165.06 326.26 157.042L319.582 152.638ZM302.765 168.368C296.369 171.857 289.118 173.64 280.921 173.64V181.64C290.323 181.64 298.913 179.583 306.596 175.392L302.765 168.368ZM280.921 173.64C272.724 173.64 265.379 171.858 258.803 168.351L255.038 175.409C262.862 179.582 271.517 181.64 280.921 181.64V173.64ZM258.836 168.368C252.438 164.879 246.904 159.68 242.26 152.638L235.582 157.042C240.857 165.04 247.323 171.201 255.005 175.392L258.836 168.368ZM242.26 152.638C237.607 145.584 233.923 136.751 231.284 126.043L223.517 127.957C226.319 139.329 230.314 149.056 235.582 157.042L242.26 152.638ZM231.284 126.043C228.659 115.386 227.321 102.999 227.321 88.84H219.321C219.321 103.481 220.702 116.534 223.517 127.957L231.284 126.043ZM227.321 88.84C227.321 74.6813 228.659 62.2937 231.284 51.6369L223.517 49.7231C220.702 61.1463 219.321 74.1987 219.321 88.84H227.321ZM231.284 51.6369C233.923 40.929 237.607 32.0963 242.26 25.0424L235.582 20.6376C230.314 28.6237 226.319 38.351 223.517 49.7231L231.284 51.6369ZM242.26 25.0424C246.904 18.0003 252.438 12.8012 258.836 9.31157L255.005 2.28841C247.323 6.47876 240.857 12.6397 235.582 20.6376L242.26 25.0424ZM298.661 21.3807C293.231 17.9415 287.29 16.2 280.921 16.2V24.2C285.751 24.2 290.211 25.4985 294.38 28.1393L298.661 21.3807ZM280.921 16.2C274.551 16.2 268.611 17.9415 263.18 21.3807L267.461 28.1393C271.631 25.4985 276.09 24.2 280.921 24.2V16.2ZM263.18 21.3807C257.748 24.8215 253.177 29.8082 249.402 36.1557L256.279 40.2443C259.545 34.7518 263.294 30.7785 267.461 28.1393L263.18 21.3807ZM249.385 36.1845C245.768 42.3853 243.004 49.9126 241.019 58.6767L248.822 60.4433C250.678 52.2474 253.193 45.5347 256.296 40.2155L249.385 36.1845ZM241.019 58.6767C239.019 67.5119 238.041 77.5783 238.041 88.84H246.041C246.041 78.0217 246.982 68.568 248.822 60.4433L241.019 58.6767ZM238.041 88.84C238.041 100.102 239.019 110.168 241.019 119.003L248.822 117.237C246.982 109.112 246.041 99.6583 246.041 88.84H238.041ZM241.019 119.003C243.003 127.765 245.763 135.354 249.362 141.694L256.319 137.746C253.198 132.246 250.678 125.435 248.822 117.237L241.019 119.003ZM249.427 141.806C253.207 147.991 257.774 152.875 263.18 156.299L267.461 149.541C263.267 146.885 259.514 142.969 256.254 137.634L249.427 141.806ZM263.18 156.299C268.611 159.738 274.551 161.48 280.921 161.48V153.48C276.09 153.48 271.631 152.182 267.461 149.541L263.18 156.299ZM280.921 161.48C287.29 161.48 293.231 159.738 298.661 156.299L294.38 149.541C290.211 152.182 285.751 153.48 280.921 153.48V161.48ZM298.661 156.299C304.089 152.862 308.589 147.953 312.216 141.735L305.306 137.705C302.212 143.007 298.553 146.898 294.38 149.541L298.661 156.299ZM312.199 141.764C315.981 135.404 318.832 127.79 320.822 119.003L313.019 117.237C311.169 125.41 308.581 132.196 305.322 137.676L312.199 141.764ZM320.822 119.003C322.822 110.168 323.801 100.102 323.801 88.84H315.801C315.801 99.6583 314.859 109.112 313.019 117.237L320.822 119.003ZM323.801 88.84C323.801 77.5783 322.822 67.5119 320.822 58.6767L313.019 60.4433C314.859 68.568 315.801 78.0217 315.801 88.84H323.801ZM320.822 58.6767C318.832 49.8879 315.975 42.3352 312.174 36.1142L305.348 40.2858C308.586 45.5848 311.169 52.2721 313.019 60.4433L320.822 58.6767ZM312.239 36.2256C308.619 29.8471 304.115 24.8353 298.661 21.3807L294.38 28.1393C298.526 30.7647 302.182 34.7129 305.282 40.1744L312.239 36.2256ZM376.984 175L373.517 173.006L370.069 179H376.984V175ZM451.324 45.76V41.76H449.011L447.857 43.7656L451.324 45.76ZM467.164 45.76L470.632 47.7544L474.08 41.76H467.164V45.76ZM392.824 175V179H395.138L396.292 176.994L392.824 175ZM370.144 103.18L368.498 106.825L368.568 106.857L368.639 106.886L370.144 103.18ZM360.424 96.52L357.476 99.2229L357.535 99.287L357.596 99.3484L360.424 96.52ZM354.124 86.62L357.813 85.0731L354.124 86.62ZM360.424 53.14L357.536 50.3724L357.534 50.3751L360.424 53.14ZM370.144 46.48L371.691 50.1688L371.72 50.1569L371.748 50.1446L370.144 46.48ZM395.164 46.48L393.561 50.1446L393.61 50.1659L393.659 50.1859L395.164 46.48ZM404.884 53.14L401.936 55.8429L401.995 55.907L402.056 55.9684L404.884 53.14ZM411.364 86.62L407.676 85.0731H407.676L411.364 86.62ZM404.884 96.52L401.996 93.7524L401.994 93.7551L404.884 96.52ZM395.164 103.18L396.67 106.886L396.719 106.866L396.768 106.845L395.164 103.18ZM375.364 59.08L373.74 55.4247L375.364 59.08ZM369.604 62.86L366.883 59.9288L366.828 59.9792L366.776 60.0316L369.604 62.86ZM366.004 68.26L362.306 66.737V66.737L366.004 68.26ZM366.004 81.22L362.306 82.743L366.004 81.22ZM369.604 86.62L366.776 89.4484L366.828 89.5008L366.883 89.5512L369.604 86.62ZM375.364 90.4L376.989 86.7448L375.364 90.4ZM389.944 90.4L388.392 86.7135L388.356 86.7287L388.32 86.7448L389.944 90.4ZM395.704 86.62L392.983 83.6888L392.928 83.7392L392.876 83.7916L395.704 86.62ZM399.484 68.26L403.183 66.737V66.737L399.484 68.26ZM395.704 62.86L392.876 65.6884L392.928 65.7408L392.983 65.7912L395.704 62.86ZM389.944 59.08L388.32 62.7352L388.356 62.7512L388.392 62.7665L389.944 59.08ZM448.804 174.46L447.158 178.105L447.228 178.137L447.299 178.166L448.804 174.46ZM439.084 167.8L436.136 170.503L436.195 170.567L436.256 170.628L439.084 167.8ZM432.784 157.9L436.473 156.353L432.784 157.9ZM432.784 134.14L436.473 135.687L432.784 134.14ZM439.084 124.42L436.196 121.652L436.194 121.655L439.084 124.42ZM448.804 117.76L450.351 121.449L450.38 121.437L450.408 121.425L448.804 117.76ZM473.824 117.76L472.221 121.425L472.27 121.446L472.319 121.466L473.824 117.76ZM483.544 124.42L480.596 127.123L480.655 127.187L480.716 127.248L483.544 124.42ZM490.024 157.9L486.336 156.353L490.024 157.9ZM483.544 167.8L480.656 165.032L480.654 165.035L483.544 167.8ZM473.824 174.46L475.33 178.166L475.379 178.146L475.428 178.125L473.824 174.46ZM448.264 134.14L445.543 131.209L445.488 131.259L445.436 131.312L448.264 134.14ZM444.664 139.54L448.363 141.063V141.063L444.664 139.54ZM444.664 152.5L448.363 150.977V150.977L444.664 152.5ZM448.264 157.9L445.436 160.728L445.488 160.781L445.543 160.831L448.264 157.9ZM468.604 161.68L467.052 157.993L467.016 158.009L466.98 158.025L468.604 161.68ZM474.364 157.9L471.643 154.969L471.588 155.019L471.536 155.072L474.364 157.9ZM478.144 152.5L481.843 154.023V154.023L478.144 152.5ZM478.144 139.54L481.843 138.017L478.144 139.54ZM474.364 134.14L471.536 136.968L471.588 137.021L471.643 137.071L474.364 134.14ZM468.604 130.36L466.98 134.015L467.016 134.031L467.052 134.047L468.604 130.36ZM380.452 176.994L454.792 47.7544L447.857 43.7656L373.517 173.006L380.452 176.994ZM451.324 49.76H467.164V41.76H451.324V49.76ZM463.697 43.7656L389.357 173.006L396.292 176.994L470.632 47.7544L463.697 43.7656ZM392.824 171H376.984V179H392.824V171ZM382.744 101.52C378.649 101.52 374.966 100.821 371.65 99.4741L368.639 106.886C373.003 108.659 377.72 109.52 382.744 109.52V101.52ZM371.791 99.5345C368.49 98.0441 365.656 96.0946 363.253 93.6916L357.596 99.3484C360.713 102.465 364.358 104.956 368.498 106.825L371.791 99.5345ZM363.373 93.8171C361.055 91.2879 359.201 88.382 357.813 85.0731L350.436 88.1669C352.168 92.298 354.514 95.9921 357.476 99.2229L363.373 93.8171ZM357.813 85.0731C356.467 81.8631 355.784 78.4311 355.784 74.74H347.784C347.784 79.4489 348.662 83.9369 350.436 88.1669L357.813 85.0731ZM355.784 74.74C355.784 71.0489 356.467 67.6169 357.813 64.4069L350.436 61.3131C348.662 65.5431 347.784 70.0311 347.784 74.74H355.784ZM357.813 64.4069C359.195 61.1127 361.032 58.2916 363.315 55.9049L357.534 50.3751C354.537 53.5084 352.174 57.1673 350.436 61.3131L357.813 64.4069ZM363.312 55.9076C365.689 53.4278 368.471 51.5193 371.691 50.1688L368.597 42.7912C364.378 44.5607 360.68 47.0921 357.536 50.3724L363.312 55.9076ZM371.748 50.1446C375.039 48.7046 378.687 47.96 382.744 47.96V39.96C377.682 39.96 372.93 40.8953 368.541 42.8154L371.748 50.1446ZM382.744 47.96C386.666 47.96 390.256 48.6988 393.561 50.1446L396.768 42.8154C392.392 40.9012 387.703 39.96 382.744 39.96V47.96ZM393.659 50.1859C396.984 51.5365 399.721 53.4265 401.936 55.8429L407.833 50.4371C404.768 47.0935 401.025 44.5434 396.67 42.7741L393.659 50.1859ZM402.056 55.9684C404.436 58.3488 406.31 61.1495 407.676 64.4069L415.053 61.3131C413.299 57.1305 410.852 53.4512 407.713 50.3116L402.056 55.9684ZM407.676 64.4069C409.022 67.6169 409.704 71.0489 409.704 74.74H417.704C417.704 70.0311 416.827 65.5431 415.053 61.3131L407.676 64.4069ZM409.704 74.74C409.704 78.4311 409.022 81.8631 407.676 85.0731L415.053 88.1669C416.827 83.9369 417.704 79.4489 417.704 74.74H409.704ZM407.676 85.0731C406.303 88.3457 404.413 91.2308 401.996 93.7524L407.772 99.2876C410.876 96.0492 413.306 92.3343 415.053 88.1669L407.676 85.0731ZM401.994 93.7551C399.753 96.0974 396.964 98.0265 393.561 99.5154L396.768 106.845C401.045 104.973 404.735 102.463 407.775 99.2849L401.994 93.7551ZM393.659 99.4741C390.33 100.826 386.705 101.52 382.744 101.52V109.52C387.663 109.52 392.318 108.654 396.67 106.886L393.659 99.4741ZM382.744 53.64C379.518 53.64 376.49 54.2025 373.74 55.4247L376.989 62.7352C378.559 62.0375 380.451 61.64 382.744 61.64V53.64ZM373.74 55.4247C371.189 56.5583 368.896 58.0593 366.883 59.9288L372.326 65.7912C373.673 64.5407 375.219 63.5217 376.989 62.7352L373.74 55.4247ZM366.776 60.0316C364.843 61.965 363.347 64.2087 362.306 66.737L369.703 69.783C370.342 68.2313 371.246 66.875 372.433 65.6884L366.776 60.0316ZM362.306 66.737C361.26 69.2763 360.744 71.9554 360.744 74.74H368.744C368.744 72.9646 369.069 71.3236 369.703 69.783L362.306 66.737ZM360.744 74.74C360.744 77.5246 361.26 80.2036 362.306 82.743L369.703 79.697C369.069 78.1563 368.744 76.5154 368.744 74.74H360.744ZM362.306 82.743C363.347 85.2713 364.843 87.515 366.776 89.4484L372.433 83.7916C371.246 82.605 370.342 81.2487 369.703 79.697L362.306 82.743ZM366.883 89.5512C368.896 91.4207 371.189 92.9217 373.74 94.0552L376.989 86.7448C375.219 85.9583 373.673 84.9393 372.326 83.6888L366.883 89.5512ZM373.74 94.0552C376.49 95.2775 379.518 95.84 382.744 95.84V87.84C380.451 87.84 378.559 87.4425 376.989 86.7448L373.74 94.0552ZM382.744 95.84C385.878 95.84 388.841 95.2678 391.569 94.0552L388.32 86.7448C386.728 87.4522 384.89 87.84 382.744 87.84V95.84ZM391.497 94.0865C394.196 92.95 396.565 91.4161 398.533 89.4484L392.876 83.7916C391.724 84.9439 390.253 85.9299 388.392 86.7135L391.497 94.0865ZM398.426 89.5512C400.513 87.6137 402.114 85.3385 403.183 82.743L395.786 79.697C395.174 81.1815 394.256 82.5063 392.983 83.6888L398.426 89.5512ZM403.183 82.743C404.229 80.2036 404.744 77.5246 404.744 74.74H396.744C396.744 76.5154 396.42 78.1563 395.786 79.697L403.183 82.743ZM404.744 74.74C404.744 71.9554 404.229 69.2763 403.183 66.737L395.786 69.783C396.42 71.3236 396.744 72.9646 396.744 74.74H404.744ZM403.183 66.737C402.114 64.1415 400.513 61.8663 398.426 59.9288L392.983 65.7912C394.256 66.9737 395.174 68.2985 395.786 69.783L403.183 66.737ZM398.533 60.0316C396.565 58.0639 394.196 56.5299 391.497 55.3934L388.392 62.7665C390.253 63.55 391.724 64.5361 392.876 65.6884L398.533 60.0316ZM391.569 55.4247C388.841 54.2122 385.878 53.64 382.744 53.64V61.64C384.89 61.64 386.728 62.0278 388.32 62.7352L391.569 55.4247ZM461.404 172.8C457.309 172.8 453.626 172.101 450.31 170.754L447.299 178.166C451.663 179.939 456.38 180.8 461.404 180.8V172.8ZM450.451 170.815C447.15 169.324 444.316 167.375 441.913 164.972L436.256 170.628C439.373 173.745 443.018 176.236 447.158 178.105L450.451 170.815ZM442.033 165.097C439.715 162.568 437.861 159.662 436.473 156.353L429.096 159.447C430.828 163.578 433.174 167.272 436.136 170.503L442.033 165.097ZM436.473 156.353C435.127 153.143 434.444 149.711 434.444 146.02H426.444C426.444 150.729 427.322 155.217 429.096 159.447L436.473 156.353ZM434.444 146.02C434.444 142.329 435.127 138.897 436.473 135.687L429.096 132.593C427.322 136.823 426.444 141.311 426.444 146.02H434.444ZM436.473 135.687C437.855 132.393 439.692 129.572 441.975 127.185L436.194 121.655C433.197 124.788 430.834 128.447 429.096 132.593L436.473 135.687ZM441.972 127.188C444.349 124.708 447.131 122.799 450.351 121.449L447.257 114.071C443.038 115.841 439.34 118.372 436.196 121.652L441.972 127.188ZM450.408 121.425C453.699 119.985 457.347 119.24 461.404 119.24V111.24C456.342 111.24 451.59 112.175 447.201 114.095L450.408 121.425ZM461.404 119.24C465.326 119.24 468.916 119.979 472.221 121.425L475.428 114.095C471.052 112.181 466.363 111.24 461.404 111.24V119.24ZM472.319 121.466C475.644 122.817 478.381 124.706 480.596 127.123L486.493 121.717C483.428 118.374 479.685 115.823 475.33 114.054L472.319 121.466ZM480.716 127.248C483.096 129.629 484.97 132.43 486.336 135.687L493.713 132.593C491.959 128.41 489.512 124.731 486.373 121.592L480.716 127.248ZM486.336 135.687C487.682 138.897 488.364 142.329 488.364 146.02H496.364C496.364 141.311 495.487 136.823 493.713 132.593L486.336 135.687ZM488.364 146.02C488.364 149.711 487.682 153.143 486.336 156.353L493.713 159.447C495.487 155.217 496.364 150.729 496.364 146.02H488.364ZM486.336 156.353C484.963 159.626 483.073 162.511 480.656 165.032L486.432 170.568C489.536 167.329 491.966 163.614 493.713 159.447L486.336 156.353ZM480.654 165.035C478.413 167.377 475.624 169.307 472.221 170.795L475.428 178.125C479.705 176.253 483.395 173.743 486.435 170.565L480.654 165.035ZM472.319 170.754C468.99 172.106 465.365 172.8 461.404 172.8V180.8C466.323 180.8 470.978 179.934 475.33 178.166L472.319 170.754ZM461.404 124.92C458.178 124.92 455.15 125.483 452.4 126.705L455.649 134.015C457.219 133.317 459.111 132.92 461.404 132.92V124.92ZM452.4 126.705C449.849 127.838 447.556 129.339 445.543 131.209L450.986 137.071C452.333 135.821 453.879 134.802 455.649 134.015L452.4 126.705ZM445.436 131.312C443.503 133.245 442.007 135.489 440.966 138.017L448.363 141.063C449.002 139.511 449.906 138.155 451.093 136.968L445.436 131.312ZM440.966 138.017C439.92 140.556 439.404 143.235 439.404 146.02H447.404C447.404 144.245 447.729 142.604 448.363 141.063L440.966 138.017ZM439.404 146.02C439.404 148.805 439.92 151.484 440.966 154.023L448.363 150.977C447.729 149.436 447.404 147.795 447.404 146.02H439.404ZM440.966 154.023C442.007 156.551 443.503 158.795 445.436 160.728L451.093 155.072C449.906 153.885 449.002 152.529 448.363 150.977L440.966 154.023ZM445.543 160.831C447.556 162.701 449.849 164.202 452.4 165.335L455.649 158.025C453.879 157.238 452.333 156.219 450.986 154.969L445.543 160.831ZM452.4 165.335C455.15 166.557 458.178 167.12 461.404 167.12V159.12C459.111 159.12 457.219 158.723 455.649 158.025L452.4 165.335ZM461.404 167.12C464.538 167.12 467.501 166.548 470.229 165.335L466.98 158.025C465.388 158.732 463.55 159.12 461.404 159.12V167.12ZM470.157 165.367C472.856 164.23 475.225 162.696 477.193 160.728L471.536 155.072C470.384 156.224 468.913 157.21 467.052 157.993L470.157 165.367ZM477.086 160.831C479.173 158.894 480.774 156.619 481.843 154.023L474.446 150.977C473.834 152.461 472.916 153.786 471.643 154.969L477.086 160.831ZM481.843 154.023C482.889 151.484 483.404 148.805 483.404 146.02H475.404C475.404 147.795 475.08 149.436 474.446 150.977L481.843 154.023ZM483.404 146.02C483.404 143.235 482.889 140.556 481.843 138.017L474.446 141.063C475.08 142.604 475.404 144.245 475.404 146.02H483.404ZM481.843 138.017C480.774 135.421 479.173 133.146 477.086 131.209L471.643 137.071C472.916 138.254 473.834 139.579 474.446 141.063L481.843 138.017ZM477.193 131.312C475.225 129.344 472.856 127.81 470.157 126.673L467.052 134.047C468.913 134.83 470.384 135.816 471.536 136.968L477.193 131.312ZM470.229 126.705C467.501 125.492 464.538 124.92 461.404 124.92V132.92C463.55 132.92 465.388 133.308 466.98 134.015L470.229 126.705Z" fill="white"/>
</svg>
