<svg width="55" height="120" viewBox="0 0 55 120" fill="none" xmlns="http://www.w3.org/2000/svg">
<path d="M48.675 19.8387C45.1 15 37.8583 11.8065 34.8333 10.4516C34.5583 10.3548 34.375 10.2581 34.1917 10.1613C34.4667 9.87097 34.7417 9.48387 34.925 8.90323C35.2 7.93548 35.2 7.16129 35.2 6.58065C35.1083 6.09677 35.1083 5.90323 35.2 5.70968C35.2 5.6129 35.2917 5.6129 35.2917 5.51613C35.5667 5.03226 36.2083 4.16129 35.9333 2.90323C35.3833 0.290323 29.7917 0 27.4083 0C27.1333 0 19.8 0.0967743 18.975 2.6129C18.7917 3.3871 18.975 4.16129 19.525 4.74194C19.525 4.93548 19.6167 7.35484 20.2583 8.90323C20.4417 9.29032 20.625 9.58064 20.8083 9.87097C18.6083 10.6452 13.475 13.0645 8.525 17.0323C2.2 22.0645 0 29.4194 0 34.2581V96.1935C0 102.968 5.775 109.065 7.24167 110.226C7.51667 110.516 7.79167 110.903 8.06667 111.581C8.43333 112.355 8.89167 113.419 9.9 114.194C11.1833 115.161 13.0167 115.452 14.2083 115.548C15.125 117.097 17.05 119.71 20.075 120C20.2583 120 20.4417 120 20.625 120C23.0083 120 24.8417 118.645 26.4 117.581C27.1333 117.097 27.9583 116.516 28.325 116.419C28.875 116.419 30.525 117.194 31.5333 117.677C33.4583 118.548 35.3833 119.516 37.125 119.419C39.9667 119.226 42.35 115.839 44.4583 112.258C44.6417 111.871 44.825 111.484 45.0083 111.29C45.2833 110.806 45.5583 110.613 46.2 110.129C47.1167 109.452 48.3083 108.484 50.05 106.258C53.075 102.29 54.175 99.5806 54.175 96.2903V34.3548C54.175 29.4194 52.525 25.0645 48.675 19.8387ZM50.4167 96.0968C50.4167 98.2258 49.9583 99.9677 47.1167 103.645C45.7417 105.484 44.825 106.161 44 106.742C43.2667 107.323 42.5333 107.806 41.8917 108.871C41.7083 109.161 41.525 109.548 41.25 109.935C38.5917 114.387 37.4 115.355 36.85 115.355C36.025 115.452 34.375 114.677 33 114C31.1667 113.129 29.3333 112.258 27.775 112.452C26.4917 112.645 25.4833 113.419 24.2917 114.29C23.0083 115.258 21.725 116.226 20.4417 116.129C18.7 116.032 17.325 113.71 16.9583 112.839C16.6833 112.161 16.0417 111.677 15.3083 111.677C14.1167 111.677 12.65 111.484 12.1917 111.097C11.9167 110.903 11.6417 110.516 11.3667 109.839C11 108.968 10.45 108 9.44167 107.129C8.15833 106.161 3.66667 101.032 3.66667 96.2903V34.3548C3.66667 30.3871 5.5 24.3871 10.9083 20.0323C16.0417 15.9677 21.45 13.6452 22.55 13.3548C24.2 12.9677 24.9333 11.8065 24.8417 10.0645C24.8417 10.0645 24.8417 9.96774 24.8417 9.87097C24.8417 8.70968 24.2 8.03226 23.925 7.64516C23.8333 7.54839 23.7417 7.54839 23.7417 7.45161C23.4667 6.77419 23.2833 5.32258 23.2833 4.64516C23.2833 4.64516 23.2833 4.54839 23.2833 4.35484C24.475 4.16129 26.2167 3.87097 27.5 3.87097C29.0583 3.87097 30.7083 4.16129 31.8083 4.35484C31.8083 4.45161 31.7167 4.54839 31.7167 4.64516C31.5333 5.41935 31.5333 6.19355 31.5333 6.67742C31.5333 7.16129 31.5333 7.35484 31.4417 7.54839C31.35 7.64516 31.35 7.64516 31.2583 7.74194C30.9833 8.12903 30.4333 8.70968 30.4333 9.58064C30.3417 10.2581 30.25 11.8065 31.7167 12.9677C31.9917 13.1613 32.2667 13.2581 33.275 13.7419C35.8417 14.9032 42.625 17.9032 45.65 21.9677C49.0417 26.5161 50.4167 30 50.4167 34.1613V96.0968Z" fill="white"/>
<path d="M23.8334 69.2903C24.1084 70.5484 24.6584 71.6129 25.5751 72.3871C25.9417 72.6774 26.4917 73.0645 26.5834 73.0645C26.6751 73.0645 27.2251 72.6774 27.5917 72.3871C28.4167 71.6129 29.0584 70.6451 29.3334 69.3871C29.3334 69 29.3334 68.8064 29.3334 68.7097C29.3334 68.6129 29.1501 68.4193 29.0584 68.2258C28.6001 67.5484 28.0501 66.4839 27.7751 65.6129C27.6834 65.3226 27.5917 65.129 27.5917 65.129C27.5917 65.129 27.3167 65.2258 27.0417 65.4193C26.7667 65.5161 26.4917 65.7097 26.4917 65.7097C26.4917 65.7097 26.2167 65.6129 25.9417 65.4193C25.6667 65.3226 25.4834 65.2258 25.4834 65.2258C25.4834 65.2258 25.3917 65.4194 25.3001 65.6129C25.0251 66.4839 24.5667 67.5484 24.1084 68.2258C24.0167 68.4193 23.8334 68.6129 23.8334 68.7097C23.7417 68.8064 23.7417 68.9032 23.8334 69.2903Z" fill="white"/>
<path d="M24.6585 73.8388L24.0168 73.1613C23.4668 72.5807 23.3752 72.4839 23.1002 72.0968C22.7335 71.5162 22.5502 71.1291 22.3668 70.5484C22.2752 70.2581 22.1835 70.0646 22.1835 70.0646C22.1835 70.0646 22.0002 70.1613 21.8168 70.2581C21.2668 70.6452 20.5335 70.9355 19.9835 71.0323C19.8002 71.0323 19.7085 71.1291 19.7085 71.1291C19.8002 71.2259 19.8002 71.4194 19.8002 71.7097C19.8002 72.6775 20.0752 73.6452 20.5335 74.613C20.8085 75.1936 21.4502 75.9678 21.7252 76.1613C21.8168 76.2581 21.9085 76.2581 22.0918 76.1613C22.8252 75.871 23.3752 75.4839 24.0168 74.7097C24.2918 74.4194 24.5668 74.1291 24.5668 74.0323L24.6585 73.8388Z" fill="white"/>
<path d="M23.1917 66.3871C23.4667 65.8064 23.65 65.2258 23.8333 64.6451L23.925 64.1612L23.7417 63.9677C23.65 63.8709 23.2833 63.4838 22.9167 63.0967L22.275 62.4193L21.8167 62.6129C20.9917 62.9032 19.7083 63.1935 18.7 63.2903C18.425 63.2903 18.2417 63.3871 18.2417 63.3871C18.2417 63.3871 18.15 63.5806 18.0583 63.7742C17.5083 65.2258 17.4167 66.4838 17.6917 67.8387C17.7833 68.3225 17.9667 68.8064 18.2417 69.1935L18.425 69.5806H18.7C20.5333 69.4838 22.1833 68.3225 23.1917 66.3871Z" fill="white"/>
<path d="M28.4169 76.5484C27.8669 76.0645 27.4086 75.5807 26.9502 74.8065C26.8586 74.7097 26.8586 74.7097 26.6752 74.8065C26.4919 74.9032 26.4919 74.9032 26.3086 74.8065C26.1252 74.7097 26.1252 74.7097 25.9419 75.0968C25.6669 75.5807 25.2086 76.1613 24.6586 76.5484C24.3836 76.742 24.1086 77.0323 24.1086 77.0323C24.0169 77.129 24.0169 77.129 24.2002 77.5161C24.6586 78.4839 25.4836 79.4516 26.3086 79.9355C26.4919 80.0323 26.4919 80.0323 26.7669 79.9355C27.6836 79.4516 28.5086 78.4839 28.8752 77.5161C29.0586 77.129 29.0586 77.129 28.9669 77.0323C28.9669 77.0323 28.6919 76.742 28.4169 76.5484Z" fill="white"/>
<path d="M32.9998 71.1291C32.3582 70.9355 31.6248 70.6452 31.0748 70.2581C30.8915 70.1613 30.7998 70.0646 30.7998 70.0646C30.7998 70.0646 30.7082 70.3549 30.6165 70.5484C30.4332 71.0323 30.2498 71.5162 29.8832 72.0968C29.6998 72.3872 29.6082 72.5807 28.9665 73.1613L28.4165 73.8388L28.5082 74.0323C28.5998 74.1291 28.8748 74.5162 29.0582 74.7097C29.6998 75.3871 30.2498 75.871 30.9832 76.1613C31.2582 76.2581 31.2582 76.2581 31.3498 76.1613C31.7165 75.871 32.2665 75.1936 32.6332 74.613C32.9082 74.1291 33.1832 73.2581 33.2748 72.6775C33.3665 72.1936 33.3665 71.3226 33.2748 71.2259C33.2748 71.2259 33.0915 71.1291 32.9998 71.1291Z" fill="white"/>
<path d="M33.9165 56.2258C33.5498 55.742 32.5415 54.7742 32.0831 54.3871C30.9831 53.6129 29.6081 53.1291 28.2331 52.9355C27.9581 52.9355 27.6831 52.8388 27.5915 52.8388C27.4998 52.8388 27.4998 52.8388 27.4998 52.5484C27.5915 51.3871 27.4998 50.2259 27.2248 49.2581C27.0415 48.7742 26.8581 48.5807 26.4915 48.4839C26.3081 48.3871 25.9415 48.5807 25.7581 48.871C25.6665 49.0646 25.6665 49.3549 25.7581 49.8388C25.9415 50.7097 26.0331 51.6775 25.9415 52.4517V52.6452H25.4831C24.1081 52.742 22.8248 53.1291 21.8165 53.7097C20.9915 54.0968 20.6248 54.4839 19.8915 55.1613C19.2498 55.8388 18.9748 56.1291 18.6081 56.8065C17.7831 58.0646 17.2331 59.9033 17.0498 61.4517V61.742H17.3248C18.7915 61.742 21.0831 61.2581 22.4581 60.5807C22.6415 60.4839 22.8248 60.3871 22.8248 60.3871C22.8248 60.3871 22.9165 60.4839 22.9165 60.5807C23.0998 60.871 23.5581 61.5484 23.8331 61.8388C24.3831 62.4194 25.5748 63.2904 26.2165 63.6775L26.4915 63.871L26.6748 63.7742C27.0415 63.5807 27.7748 63.0968 28.1415 62.8065C28.6915 62.4194 29.6081 61.4517 29.8831 60.9678C29.9748 60.7742 30.1581 60.5807 30.1581 60.5807C30.1581 60.5807 30.3415 60.5807 30.5248 60.6775C31.4415 61.0646 32.0831 61.2581 33.1831 61.5484C34.0081 61.742 34.9248 61.8388 35.5665 61.8388H36.0248V61.6452C36.0248 61.3549 35.8415 60.6775 35.7498 60.1936C35.3831 58.742 34.8331 57.3871 33.9165 56.2258Z" fill="white"/>
<path d="M34.8332 63.3871L34.2832 63.2903C33.2749 63.1935 31.8999 62.8064 31.1666 62.6129L30.8916 62.5161L30.2499 63.1935C29.8832 63.5806 29.5166 63.9677 29.3332 64.0645L29.1499 64.2581L29.2416 64.6451C29.4249 65.3226 29.5166 65.6129 29.7916 66.1935C30.1582 66.9677 30.4332 67.3548 30.9832 67.9355C31.4416 68.4193 31.5332 68.5161 31.8999 68.7097C32.5416 69.0968 32.9999 69.2903 33.6416 69.4839C34.0999 69.5806 34.5582 69.5806 34.5582 69.5806C34.5582 69.5806 34.7416 69.2903 34.8332 69.0968C35.6582 67.5484 35.7499 65.7097 34.9249 63.7742L34.8332 63.3871Z" fill="white"/>
</svg>
