<svg width="24" height="24" viewBox="0 0 24 24" fill="none" xmlns="http://www.w3.org/2000/svg">
<path d="M6 20.5199C7.10457 20.5199 8 19.6588 8 18.5966C8 17.5344 7.10457 16.6733 6 16.6733C4.89543 16.6733 4 17.5344 4 18.5966C4 19.6588 4.89543 20.5199 6 20.5199Z" stroke="#1B2AC9" stroke-linecap="round" stroke-linejoin="round"/>
<path d="M17 20.5199C18.1046 20.5199 19 19.6588 19 18.5966C19 17.5344 18.1046 16.6733 17 16.6733C15.8954 16.6733 15 17.5344 15 18.5966C15 19.6588 15.8954 20.5199 17 20.5199Z" stroke="#1B2AC9" stroke-linecap="round" stroke-linejoin="round"/>
<path d="M17 16.6734H6V3.21057H4" stroke="#1B2AC9" stroke-linecap="round" stroke-linejoin="round"/>
<path d="M6 5.13379L20 6.09542L19 12.8268H6" stroke="#1B2AC9" stroke-linecap="round" stroke-linejoin="round"/>
</svg>
