<svg width="13" height="11" viewBox="0 0 13 11" fill="none" xmlns="http://www.w3.org/2000/svg">
<path fill-rule="evenodd" clip-rule="evenodd" d="M12.4783 2.02284C12.8 1.61531 12.7305 1.02416 12.323 0.70238C11.9189 0.38329 11.3334 0.448519 11.0095 0.848704L6.1235 6.88488C5.73145 7.36921 4.99674 7.38094 4.58943 6.90937L1.64176 3.49664C1.30435 3.106 0.71413 3.06289 0.323548 3.40037C-0.0669331 3.73776 -0.110023 4.3278 0.227299 4.71834L4.1752 9.28911C4.17585 9.28987 4.17587 9.29099 4.17524 9.29177C4.17461 9.29254 4.17463 9.29366 4.17529 9.29442L4.72481 9.92842C5.13572 10.4025 5.87663 10.3855 6.26537 9.89307L12.4783 2.02284Z" fill="#1B2AC9"/>
</svg>
