<svg width="24" height="24" viewBox="0 0 24 24" fill="none" xmlns="http://www.w3.org/2000/svg">
<path d="M19 6.92914H5C3.89543 6.92914 3 7.79021 3 8.85239V17.507C3 18.5692 3.89543 19.4303 5 19.4303H19C20.1046 19.4303 21 18.5692 21 17.507V8.85239C21 7.79021 20.1046 6.92914 19 6.92914Z" stroke="#1B2AC9" stroke-linecap="round" stroke-linejoin="round"/>
<path d="M8 6.92915V5.0059C8 4.49582 8.21071 4.00663 8.58579 3.64595C8.96086 3.28527 9.46957 3.08264 10 3.08264H14C14.5304 3.08264 15.0391 3.28527 15.4142 3.64595C15.7893 4.00663 16 4.49582 16 5.0059V6.92915" stroke="#1B2AC9" stroke-linecap="round" stroke-linejoin="round"/>
<path d="M12 11.7373V11.7469" stroke="#1B2AC9" stroke-linecap="round" stroke-linejoin="round"/>
<path d="M3 12.6989C5.79158 14.0516 8.87403 14.7562 12 14.7562C15.126 14.7562 18.2084 14.0516 21 12.6989" stroke="#1B2AC9" stroke-linecap="round" stroke-linejoin="round"/>
</svg>
