<svg width="39" height="121" viewBox="0 0 39 121" fill="none" xmlns="http://www.w3.org/2000/svg">
<path d="M38.1998 68.8C38.1998 59.1 35.9998 53.6 32.2998 44.1C31.2998 41.7 30.2998 39 29.0998 35.9C28.1998 33.6 27.5998 31.3 27.1998 28.9C26.6998 26.1 26.4998 23.3 26.4998 20.4V18.4C26.8998 17.9 27.1998 17.3 27.1998 16.5V10.2V9.70002V7.40002V6.80002V3.30002C27.1998 1.70002 25.7998 0.400024 24.1998 0.400024H14.6998C13.0998 0.400024 11.6998 1.70002 11.6998 3.30002V16.6C11.6998 17.3 11.9998 18 12.3998 18.5V20.5C12.3998 23.3 12.1998 26.2 11.6998 29C11.2998 31.4 10.6998 33.8 9.7998 36C8.5998 39.1 7.5998 41.8 6.5998 44.2C2.7998 53.7 0.699805 59.2 0.699805 68.9L0.299805 110.8C0.299805 115.9 5.39961 119.3 9.6998 119.9C14 120.5 15.6656 120.489 19.5 120.5C19.6953 120.501 19.8047 120.501 20 120.5C23.5614 120.488 24.6996 120.3 29.0998 119.9C33.5 119.5 38.5998 115.8 38.4998 110.8L38.1998 68.8ZM15.2998 3.90002H23.5998V6.80002H15.2998V3.90002ZM15.2998 10.3H23.5998V16H15.2998V10.3ZM9.8998 45.5C10.8998 43.1 11.9998 40.3 13.1998 37.1C14.0998 34.6 14.7998 32 15.1998 29.4C15.6998 26.4 15.8998 23.4 15.8998 20.4V19.5H22.7998V20.4C22.7998 23.4 22.9998 26.4 23.4998 29.4C23.8998 32 24.5998 34.6 25.4998 37.1C26.6998 40.3 27.7998 43.1 28.7998 45.5L29.4998 45.3L28.8998 45.5C29.0998 46.1 29.3998 46.7 29.5998 47.3C28.6998 47.5 27.8998 47.6 27.0998 47.7C25.8998 45.1 22.8998 43.4 19.3998 43.4C15.8998 43.4 12.8998 45.2 11.6998 47.7C10.8998 47.6 10.0998 47.4 9.1998 47.3C9.3998 46.7 9.6998 46.1 9.8998 45.5ZM24.0998 50.1C24.0998 51.4 22.5998 53.3 19.4998 53.3C16.3998 53.2 14.8998 51.3 14.8998 50.1C14.8998 48.8 16.3998 46.9 19.4998 46.9C22.5998 46.9 24.0998 48.8 24.0998 50.1ZM29.1998 116.4C26 117 23.2952 116.989 19.5 117C19.3047 117.001 19.1953 117.001 19 117C15.3995 116.988 13 117 9.7998 116.4C6.59961 115.8 3.8998 113.9 3.9998 110.8L4.3998 68.9C4.3998 61.8 5.5998 57.2 7.8998 51C9.0998 51.2 10.2998 51.4 11.4998 51.6C12.2998 54.6 15.6998 56.8 19.4998 56.8C23.2998 56.8 26.6998 54.6 27.4998 51.6C28.5998 51.4 29.7998 51.2 30.9998 51C33.2998 57.2 34.4998 61.8 34.4998 68.9L34.8998 110.8C34.9998 113.8 32.3996 115.8 29.1998 116.4Z" fill="url(#paint0_linear_1934_17299)"/>
<path d="M26.4997 75.9C25.9997 75.3 25.3997 75 24.6997 74.8C24.1997 74.7 23.6997 74.6 23.0997 74.6C22.2997 74.6 21.3997 74.8 20.5997 75.1C20.3997 75.2 20.1997 75.2 20.1997 75.2C20.0997 75.2 20.2997 74.9 20.5997 74.5C20.9997 73.9 21.5997 73.1 21.9997 72.8C22.1997 72.5 22.8997 72 23.3997 71.6C23.5997 71.5 23.7997 71.4 23.7997 71.3C23.8997 71.2 23.7997 71.1 22.8997 70.7C21.9997 70.3 21.7997 70.3 21.4997 70.5C21.3997 70.5 21.2997 70.6 21.0997 70.9C20.4997 71.8 19.7997 73.2 19.2997 74.4C19.1997 74.7 19.0997 75 19.0997 75C19.0997 75 18.8997 75 18.6997 74.9C16.7997 74.3 14.9997 74.4 13.4997 75.4C12.3997 76.1 11.5997 77.3 11.2997 78.6C11.0997 79.9 11.1997 81.6 11.6997 83.2C12.4997 85.7 13.8997 87.8 15.4997 88.8C16.2997 89.3 16.8997 89.5 17.7997 89.5C18.3997 89.5 18.7997 89.5 19.3997 89.3L19.6997 89.2L19.9997 89.3C20.5997 89.5 20.8997 89.6 21.5997 89.6C22.0997 89.6 22.1997 89.6 22.5997 89.5C24.0997 89.1 25.3997 87.9 26.4997 86.1C27.2997 84.7 27.8997 83.1 28.0997 81.4C28.1997 80.9 28.1997 79.4 28.0997 79C27.8997 77.7 27.2997 76.7 26.4997 75.9ZM26.1997 81.5C26.1997 81.5 25.3997 79.7 24.6997 78.8C23.6997 77.9 21.9997 76.7 21.9997 76.7C21.9997 76.7 24.2997 76.5 25.3997 77.2C26.6997 78 26.1997 81.5 26.1997 81.5Z" fill="url(#paint1_linear_1934_17299)"/>
<path d="M16.5998 73.2001C17.1998 73.6001 18.0998 73.8001 18.7998 73.8001C19.3998 73.8001 19.4998 73.6001 19.4998 73.0001C19.4998 72.3001 19.2998 71.8001 18.9998 71.2001C18.7998 71.0001 18.6998 70.8001 18.3998 70.5001C17.7998 70.0001 17.1998 69.7001 16.3998 69.5001C15.9998 69.4001 15.1998 69.3001 15.0998 69.4001C15.0998 69.5001 14.9998 69.5001 14.8998 69.6001C14.7998 69.7001 14.7998 69.8001 14.7998 70.0001C14.7998 70.8001 15.0998 71.6001 15.4998 72.2001C15.6998 72.6001 16.1998 73.0001 16.5998 73.2001Z" fill="url(#paint2_linear_1934_17299)"/>
<defs>
<linearGradient id="paint0_linear_1934_17299" x1="39.8297" y1="60.7551" x2="0.919506" y2="59.7282" gradientUnits="userSpaceOnUse">
<stop stop-color="#1B2AC9"/>
<stop offset="1" stop-color="#0073F0"/>
</linearGradient>
<linearGradient id="paint1_linear_1934_17299" x1="28.1798" y1="80.1553" x2="11.2057" y2="79.7074" gradientUnits="userSpaceOnUse">
<stop stop-color="#1B2AC9"/>
<stop offset="1" stop-color="#0073F0"/>
</linearGradient>
<linearGradient id="paint2_linear_1934_17299" x1="19.5371" y1="71.6448" x2="14.7576" y2="71.5187" gradientUnits="userSpaceOnUse">
<stop stop-color="#1B2AC9"/>
<stop offset="1" stop-color="#0073F0"/>
</linearGradient>
</defs>
</svg>
