<svg width="37" height="40" viewBox="0 0 37 40" fill="none" xmlns="http://www.w3.org/2000/svg">
<path fill-rule="evenodd" clip-rule="evenodd" d="M26.1466 0.118382C22.8598 0.636033 23.3487 0.234908 10.7511 12.7498L0.416584 23.0165L1.2617 23.847L2.10673 24.6775L12.2683 14.5627C22.6964 4.18274 23.2277 3.67758 24.2374 3.18453C30.8764 -0.0575786 37.505 7.3348 33.3737 13.3734C33.089 13.7896 15.0382 31.8279 10.9127 35.819C6.55521 40.0344 0.0196885 35.6421 3.07338 30.5503C3.36937 30.0568 25.4108 8.03318 26.1641 7.47835C28.0063 6.12143 30.5437 8.06567 29.7318 10.2119C29.5603 10.6653 23.3447 16.9381 11.5622 28.5486C8.42771 31.6374 8.67127 31.1699 9.67944 32.1621L10.4909 32.9609L20.8888 22.6239C31.9746 11.6029 31.6887 11.9065 32.0444 10.7811C33.6338 5.75357 27.6916 2.70101 23.7459 6.5181C19.6205 10.5091 1.56971 28.5475 1.28494 28.9637C-3.1115 35.3898 4.66507 43.0707 11.1763 38.7333C11.5073 38.5128 14.7337 35.3641 20.7658 29.3747C36.2686 13.9816 35.156 15.1308 35.8978 13.7445C39.5074 6.99951 33.7285 -1.07578 26.1466 0.118382Z" fill="#1B2AC9"/>
</svg>
