<svg width="59" height="85" viewBox="0 0 59 85" fill="none" xmlns="http://www.w3.org/2000/svg">
<path d="M28.8313 38.9999C29.2313 39.4999 30.0313 40.6999 30.3313 41.2999C30.6313 41.8999 30.6313 41.8999 30.9313 41.2999C31.2313 40.7999 31.4313 40.1999 31.6313 39.6999C31.7313 39.2999 31.7313 39.0999 31.7313 37.2999C31.7313 35.8999 32.0313 34.5999 32.8313 32.6999C33.0313 32.2999 33.1313 31.9999 33.1313 31.9999C33.1313 31.8999 32.3313 31.9999 32.0313 32.0999C31.4313 32.2999 31.0313 32.4999 30.3313 33.0999C29.3313 33.9999 28.2313 35.5999 27.8313 37.0999C27.7313 37.3999 27.6313 37.5999 27.6313 37.6999C27.6313 37.7999 27.8313 37.9999 28.1313 38.1999C28.3313 38.3999 28.6313 38.7999 28.8313 38.9999Z" fill="white"/>
<path d="M24.3314 41.6001C25.7314 42.1001 26.8314 43.2001 27.8314 45.0001C28.0314 45.3001 28.2314 45.7001 28.2314 45.7001C28.2314 45.7001 28.4314 45.6001 28.6314 45.3001C29.1314 44.8001 29.6314 44.3001 30.1314 43.9001L30.5314 43.6001L30.4314 43.4001C29.9314 41.8001 28.5314 39.7001 27.1314 38.3001C25.2314 36.5001 23.1314 35.7001 21.2314 36.0001C20.5314 36.1001 19.8314 36.5001 19.3314 36.9001L19.2314 37.0001L19.6314 37.5001C21.2314 39.6001 22.7314 41.0001 24.3314 41.6001Z" fill="white"/>
<path d="M26.2316 48.5001C26.5316 48.0001 27.1316 47.0001 27.4316 46.6001L27.6316 46.3001L27.3316 45.7001C26.3316 43.8001 25.3316 42.8001 23.9316 42.2001C22.8316 41.8001 21.6316 40.9001 20.4316 39.7001C19.9316 39.2001 19.1316 38.3001 18.8316 37.7001L18.7316 37.6001L18.6316 37.7001C18.4316 38.0001 18.2316 38.4001 18.1316 38.8001C18.0316 39.3001 18.0316 40.2001 18.1316 40.8001C18.3316 41.9001 18.9316 43.3001 19.6316 44.3001C20.7316 46.0001 22.2316 47.4001 24.1316 48.3001C24.8316 48.6001 25.7316 49.0001 25.9316 49.0001C25.9316 48.9001 26.0316 48.9001 26.2316 48.5001Z" fill="white"/>
<path d="M32.4317 37.8001C32.5317 38.4001 32.5317 39.0001 32.4317 39.4001C32.3317 40.2001 31.8317 41.3001 31.3317 42.2001C31.0317 42.7001 31.0317 42.7001 31.0317 42.9001C31.1317 43.2001 31.1317 43.2001 31.4317 43.0001C32.2317 42.6001 33.0317 42.4001 33.9317 42.4001H34.5317L34.7317 42.1001C35.6317 40.7001 36.3317 38.9001 36.5317 37.3001C36.7317 35.1001 35.9317 33.1001 34.4317 32.3001L34.0317 32.1001L33.9317 32.3001C33.7317 32.8001 33.2317 33.9001 33.0317 34.5001C32.5317 35.8001 32.3317 36.9001 32.4317 37.8001Z" fill="white"/>
<path d="M30.9316 50.7C31.4316 49.1 31.6316 48.5999 32.1316 47.7999C32.8316 46.6999 33.9316 45.6999 35.8316 44.4999L36.5317 44.0999L36.4317 43.9999C36.3317 43.7999 35.5316 43.5 35.1316 43.4C34.6316 43.3 33.6316 43.3 33.1316 43.4C29.9316 44.1 26.6317 47.9999 26.1317 51.5999C25.8317 53.2999 26.4317 55.0999 27.5317 56.2L27.8316 56.4999L28.0317 56.2C29.0317 55.0999 29.8317 53.9999 30.2317 53.0999C30.4317 52.3999 30.5316 52 30.9316 50.7Z" fill="white"/>
<path d="M37.0317 44.6001C37.0317 44.6001 36.7317 44.8001 36.4317 45.0001C35.2317 45.8001 34.4317 46.3001 33.6317 47.2001C32.9317 47.9001 32.6317 48.3001 32.3317 49.0001C32.0317 49.5001 32.0317 49.7001 31.8317 50.7001C31.7317 51.1001 31.6317 51.7001 31.5317 51.9001C31.0317 53.3001 30.1317 54.9001 28.8317 56.4001C28.6317 56.6001 28.5317 56.7001 28.5317 56.8001C28.5317 56.8001 29.1317 57.0001 29.4317 57.1001C30.3317 57.3001 31.3317 57.0001 32.6317 56.3001C35.4317 54.7001 37.5317 51.6001 37.9317 48.3001C38.0317 47.4001 38.0317 46.6001 37.7317 45.8001C37.4317 45.2001 37.1317 44.6001 37.0317 44.6001Z" fill="white"/>
<path d="M55.4315 7.9C54.6315 7.3 53.7315 7.3 53.1315 7.2C52.9315 7.2 52.6315 7.2 52.5315 7.1C52.4315 7 52.4315 6.9 52.3315 6.1C52.3315 5.4 52.2315 4.6 51.8315 3.7C51.4315 2.6 50.3315 0 30.3315 0C21.5315 0 8.53154 1.2 6.73153 3.3C6.13154 4.1 6.03154 5 5.93154 5.9C5.93154 6.4 5.83153 7.1 5.63154 7.3C5.53154 7.4 5.43154 7.4 5.03154 7.5C4.33154 7.7 3.53154 7.9 2.63154 8.7C0.431535 10.7 -0.668465 15.1 0.431535 17C0.731535 17.5 1.23153 18.3 4.63154 18.9C4.93154 21.5 5.23154 24.7 5.43154 26.7C5.23154 26.7 5.03154 26.8 4.83154 27C4.33154 27.4 4.03154 28 4.03154 28.7C4.03154 29.4 8.03154 66.9 8.23153 67.6C8.33154 68 8.63153 69.1 9.93153 69.5C10.1315 71.7 10.6315 76.5 10.9315 80.8L11.0315 82.2L12.3315 82.6C12.6315 82.7 20.0315 85 30.9315 85C41.9315 85 45.9315 82.7 46.3315 82.4L47.2315 81.9L47.3315 80.9C47.5315 77.3 47.9315 71.8 48.1315 69.4C48.4315 69.3 48.8315 69.2 49.1315 68.9C49.5315 68.5 49.8315 68 49.8315 67.4C49.9315 66.6 50.9315 56.9 51.8315 48.3C53.7315 30 53.8315 29.1 53.8315 28.8C53.8315 28.1 53.5315 27.5 53.0315 27.1C52.8315 26.9 52.6315 26.8 52.3315 26.8C52.5315 24.7 52.9315 21.4 53.2315 18.7C54.5315 18.3 56.1315 17.7 56.9315 17.2C57.4315 16.8 58.1315 16.1 58.1315 14.5C58.0315 12.7 57.0315 8.9 55.4315 7.9ZM50.7315 15.2L49.4315 15.6L49.3315 16.9C48.5315 24.4 48.0315 28.4 48.0315 28.7C48.0315 29.4 48.3315 30 48.8315 30.4C49.0315 30.6 49.2315 30.7 49.4315 30.7C49.0315 34.2 48.3315 41.3 47.6315 47.7C46.5315 58.7 46.0315 63.4 45.8315 65.5C44.5315 65.9 44.2315 67.1 44.1315 67.5C44.0315 68.3 43.5315 75.7 43.2315 79.3C41.8315 80 38.0315 81 30.9315 81C23.2315 81 17.2315 79.8 14.7315 79.2C13.8315 67.9 13.6315 67.4 13.4315 67C13.2315 66.5 12.7315 66 11.9315 65.8C11.3315 60.3 8.83154 37.7 8.13154 30.8C8.33154 30.7 8.63154 30.6 8.83154 30.5L9.63154 29.9V28.9C9.63154 28.8 9.63153 28.5 8.43153 17L8.23153 15.4L6.63154 15.2C5.73153 15.1 4.63154 14.9 3.93154 14.7C4.03154 13.8 4.53154 12.4 5.23153 11.7C5.33153 11.6 5.53154 11.5 5.93154 11.4C6.53154 11.2 7.53153 11 8.43153 10C9.53154 8.8 9.73153 7.3 9.83154 6.3C9.83154 6.2 9.83154 6.1 9.83154 6C12.0315 5.3 19.7315 4 30.2315 4C42.0315 4 47.0315 5 48.2315 5.6C48.3315 5.8 48.3315 6.1 48.3315 6.5C48.4315 7.5 48.5315 9 49.9315 10.2C50.9315 11 52.0315 11.1 52.7315 11.2C52.8315 11.2 53.0315 11.2 53.1315 11.2C53.4315 11.8 53.9315 13.2 54.0315 14.1C53.2315 14.4 51.9315 14.8 50.7315 15.2Z" fill="white"/>
</svg>
