<svg width="24" height="24" viewBox="0 0 24 24" fill="none" xmlns="http://www.w3.org/2000/svg">
<path d="M7 18.4687C8.10457 18.4687 9 17.6076 9 16.5454C9 15.4833 8.10457 14.6222 7 14.6222C5.89543 14.6222 5 15.4833 5 16.5454C5 17.6076 5.89543 18.4687 7 18.4687Z" stroke="#1B2AC9" stroke-linecap="round" stroke-linejoin="round"/>
<path d="M17 18.4687C18.1046 18.4687 19 17.6076 19 16.5454C19 15.4833 18.1046 14.6222 17 14.6222C15.8954 14.6222 15 15.4833 15 16.5454C15 17.6076 15.8954 18.4687 17 18.4687Z" stroke="#1B2AC9" stroke-linecap="round" stroke-linejoin="round"/>
<path d="M5 16.5455H3V12.6989M2 5.00592H13V16.5455M9 16.5455H15M19 16.5455H21V10.7757M21 10.7757H13M21 10.7757L18 5.96755H13" stroke="#1B2AC9" stroke-linecap="round" stroke-linejoin="round"/>
<path d="M3 8.85242H7" stroke="#1B2AC9" stroke-linecap="round" stroke-linejoin="round"/>
</svg>
