<svg width="12" height="23" viewBox="0 0 12 23" fill="none" xmlns="http://www.w3.org/2000/svg">
<path fill-rule="evenodd" clip-rule="evenodd" d="M7.69363 0.967916C6.53182 1.15803 5.71575 1.56998 5.04627 2.30423C4.48261 2.92245 4.1309 3.64777 3.93187 4.60227C3.8567 4.96281 3.8471 5.18071 3.83157 6.87899L3.81438 8.75702H2.2236H0.632812V10.666V12.5751L2.21645 12.586L3.80009 12.597L3.81034 17.4967L3.82059 22.3964H5.71676H7.61294V17.4862V12.576H9.18649C10.0519 12.576 10.7607 12.5713 10.7615 12.5655C10.8671 11.8012 11.2264 8.81036 11.2152 8.7885C11.2064 8.77117 10.391 8.75702 9.40336 8.75702H7.60765L7.62121 7.19375C7.63452 5.6648 7.6369 5.62501 7.73019 5.38207C7.91917 4.88992 8.31684 4.59913 8.91055 4.51897C9.07344 4.49698 9.69257 4.47839 10.2864 4.47767L11.3661 4.47637L11.3556 2.76621L11.3451 1.05605L10.8206 1.00648C9.96056 0.925193 8.09529 0.902195 7.69363 0.967916Z" fill="#F2F3F7"/>
</svg>
