<svg width="46" height="46" viewBox="0 0 46 46" fill="none" xmlns="http://www.w3.org/2000/svg">
<circle cx="23" cy="23" r="23" fill="white"/>
<path fill-rule="evenodd" clip-rule="evenodd" d="M24.6936 12.3039C23.5318 12.494 22.7158 12.9059 22.0463 13.6402C21.4826 14.2584 21.1309 14.9837 20.9319 15.9382C20.8567 16.2988 20.8471 16.5166 20.8316 18.2149L20.8144 20.093H19.2236H17.6328V22.002V23.911L19.2165 23.922L20.8001 23.933L20.8103 28.8326L20.8206 33.7323H22.7168H24.6129V28.8221V23.912H26.1865C27.0519 23.912 27.7607 23.9072 27.7615 23.9015C27.8671 23.1372 28.2264 20.1463 28.2152 20.1244C28.2064 20.1071 27.391 20.093 26.4034 20.093H24.6077L24.6212 18.5297C24.6345 17.0007 24.6369 16.961 24.7302 16.718C24.9192 16.2259 25.3168 15.9351 25.9106 15.8549C26.0734 15.8329 26.6926 15.8143 27.2864 15.8136L28.3661 15.8123L28.3556 14.1021L28.3451 12.392L27.8206 12.3424C26.9606 12.2611 25.0953 12.2381 24.6936 12.3039Z" fill="#1B2AC9"/>
</svg>
