<svg width="46" height="46" viewBox="0 0 46 46" fill="none" xmlns="http://www.w3.org/2000/svg">
<circle cx="23" cy="23" r="23" fill="url(#paint0_linear_621_1324)"/>
<path fill-rule="evenodd" clip-rule="evenodd" d="M24.6941 12.3039C23.5323 12.494 22.7162 12.9059 22.0468 13.6402C21.4831 14.2584 21.1314 14.9837 20.9324 15.9382C20.8572 16.2988 20.8476 16.5166 20.8321 18.2149L20.8149 20.093H19.2241H17.6333V22.002V23.911L19.2169 23.922L20.8006 23.933L20.8108 28.8326L20.8211 33.7323H22.7173H24.6134V28.8221V23.912H26.187C27.0524 23.912 27.7612 23.9072 27.762 23.9015C27.8676 23.1372 28.2269 20.1463 28.2157 20.1244C28.2069 20.1071 27.3915 20.093 26.4038 20.093H24.6081L24.6217 18.5297C24.635 17.0007 24.6374 16.961 24.7307 16.718C24.9197 16.2259 25.3173 15.9351 25.911 15.8549C26.0739 15.8329 26.6931 15.8143 27.2869 15.8136L28.3666 15.8123L28.3561 14.1021L28.3456 12.392L27.8211 12.3424C26.961 12.2611 25.0958 12.2381 24.6941 12.3039Z" fill="#F2F3F7"/>
<defs>
<linearGradient id="paint0_linear_621_1324" x1="23" y1="0" x2="23" y2="46" gradientUnits="userSpaceOnUse">
<stop stop-color="#0073F0"/>
<stop offset="1" stop-color="#1B2AC9"/>
</linearGradient>
</defs>
</svg>
