<svg width="76" height="38" viewBox="0 0 76 38" fill="none" xmlns="http://www.w3.org/2000/svg">
<path d="M31.76 0H26L35.6 24H41.3599L31.76 0Z" fill="#151515"/>
<path d="M40.4006 0H34.6406L44.2406 24H50.0006L40.4006 0Z" fill="#151515"/>
<path d="M6 0L6 6H0V24H8.64L12 18H6V6L18 6V24H24V0H6Z" fill="#151515"/>
<path d="M38.4362 35.027C37.8889 35.027 37.4343 34.9324 37.0724 34.7432C36.7105 34.5541 36.4413 34.3018 36.2648 33.9865C36.0883 33.6712 36 33.3288 36 32.9595C36 32.2748 36.256 31.7477 36.7679 31.3784C37.2799 31.009 37.9772 30.8243 38.8598 30.8243H40.634V30.7432C40.634 30.1577 40.4839 29.7162 40.1838 29.4189C39.8837 29.1126 39.4821 28.9595 38.979 28.9595C38.5465 28.9595 38.1714 29.0721 37.8536 29.2973C37.5447 29.5135 37.3505 29.8333 37.271 30.2568H36.1324C36.1765 29.7703 36.3354 29.3604 36.609 29.027C36.8915 28.6937 37.2401 28.4414 37.655 28.2703C38.0698 28.0901 38.5112 28 38.979 28C39.897 28 40.5854 28.2523 41.0444 28.7568C41.5122 29.2523 41.7461 29.9144 41.7461 30.7432V34.8649H40.7531L40.6869 33.6622C40.5016 34.0405 40.228 34.3649 39.8661 34.6351C39.513 34.8964 39.0364 35.027 38.4362 35.027ZM38.6083 34.0676C39.032 34.0676 39.3938 33.955 39.6939 33.7297C40.0029 33.5045 40.2368 33.2117 40.3957 32.8514C40.5545 32.491 40.634 32.1126 40.634 31.7162V31.7027H38.9525C38.2993 31.7027 37.8359 31.8198 37.5623 32.0541C37.2975 32.2793 37.1651 32.5631 37.1651 32.9054C37.1651 33.2568 37.2887 33.5405 37.5358 33.7568C37.7918 33.964 38.1493 34.0676 38.6083 34.0676Z" fill="#151515"/>
<path d="M45.3476 32.7568C44.9769 32.7568 44.6371 32.7072 44.3281 32.6081L43.6661 33.2432C43.7632 33.3153 43.8824 33.3784 44.0236 33.4324C44.1737 33.4775 44.3855 33.5225 44.6591 33.5676C44.9328 33.6036 45.3167 33.6441 45.811 33.6892C46.6937 33.7523 47.3248 33.9595 47.7043 34.3108C48.0839 34.6622 48.2737 35.1216 48.2737 35.6892C48.2737 36.0766 48.1677 36.4459 47.9559 36.7973C47.7529 37.1486 47.4351 37.4369 47.0026 37.6622C46.5789 37.8874 46.0317 38 45.3609 38C44.7695 38 44.2443 37.9189 43.7853 37.7568C43.3263 37.6036 42.9688 37.3649 42.7129 37.0405C42.4569 36.7252 42.3289 36.3243 42.3289 35.8378C42.3289 35.5856 42.3951 35.3108 42.5275 35.0135C42.6599 34.7252 42.9071 34.4505 43.2689 34.1892C43.0748 34.1081 42.9071 34.0225 42.7658 33.9324C42.6334 33.8333 42.5099 33.7252 42.3951 33.6081V33.2973L43.5205 32.1622C42.9997 31.7117 42.7393 31.1171 42.7393 30.3784C42.7393 29.9369 42.8409 29.536 43.0439 29.1757C43.2469 28.8153 43.5426 28.5315 43.9309 28.3243C44.3193 28.1081 44.7915 28 45.3476 28C45.7272 28 46.0714 28.0541 46.3803 28.1622H48.8033V29.0135L47.5719 29.0676C47.8279 29.4459 47.9559 29.8829 47.9559 30.3784C47.9559 30.8198 47.85 31.2207 47.6381 31.5811C47.4351 31.9414 47.1394 32.2297 46.7511 32.4459C46.3715 32.6532 45.9037 32.7568 45.3476 32.7568ZM45.3476 31.8243C45.8154 31.8243 46.1862 31.7027 46.4598 31.4595C46.7422 31.2072 46.8835 30.8468 46.8835 30.3784C46.8835 29.9189 46.7422 29.5676 46.4598 29.3243C46.1862 29.0721 45.8154 28.9459 45.3476 28.9459C44.871 28.9459 44.4914 29.0721 44.209 29.3243C43.9354 29.5676 43.7985 29.9189 43.7985 30.3784C43.7985 30.8468 43.9354 31.2072 44.209 31.4595C44.4914 31.7027 44.871 31.8243 45.3476 31.8243ZM43.4146 35.7297C43.4146 36.1802 43.5999 36.5135 43.9707 36.7297C44.3414 36.955 44.8048 37.0676 45.3609 37.0676C45.9081 37.0676 46.345 36.9459 46.6716 36.7027C47.007 36.4595 47.1747 36.1351 47.1747 35.7297C47.1747 35.4414 47.06 35.1892 46.8305 34.973C46.601 34.7658 46.1773 34.6441 45.5595 34.6081C45.074 34.5721 44.6547 34.527 44.3017 34.473C43.9398 34.6712 43.7015 34.8829 43.5867 35.1081C43.472 35.3423 43.4146 35.5495 43.4146 35.7297Z" fill="#151515"/>
<path d="M52.0898 35.027C51.4631 35.027 50.907 34.8829 50.4215 34.5946C49.9361 34.2973 49.5521 33.8874 49.2697 33.3649C48.996 32.8423 48.8592 32.2252 48.8592 31.5135C48.8592 30.8108 48.996 30.1982 49.2697 29.6757C49.5433 29.1441 49.9228 28.7342 50.4083 28.4459C50.9026 28.1486 51.4719 28 52.1162 28C52.7518 28 53.299 28.1486 53.758 28.4459C54.2258 28.7342 54.5833 29.1171 54.8304 29.5946C55.0776 30.0721 55.2012 30.5856 55.2012 31.1351C55.2012 31.2342 55.1967 31.3333 55.1879 31.4324C55.1879 31.5315 55.1879 31.6441 55.1879 31.7703H49.9581C49.9846 32.2838 50.0994 32.7117 50.3024 33.0541C50.5142 33.3874 50.7746 33.6396 51.0835 33.8108C51.4013 33.982 51.7367 34.0676 52.0898 34.0676C52.5487 34.0676 52.9327 33.9595 53.2416 33.7432C53.5506 33.527 53.7757 33.2342 53.9169 32.8649H55.0158C54.8393 33.4865 54.4994 34.0045 53.9963 34.4189C53.502 34.8243 52.8665 35.027 52.0898 35.027ZM52.0898 28.9595C51.5602 28.9595 51.0879 29.1261 50.6731 29.4595C50.2671 29.7838 50.0332 30.2613 49.9714 30.8919H54.1022C54.0758 30.2883 53.8727 29.8153 53.4932 29.473C53.1137 29.1306 52.6458 28.9595 52.0898 28.9595Z" fill="#151515"/>
<path d="M56.0132 34.8649V28.1622H57.0195L57.0857 29.3649C57.2975 28.9414 57.602 28.6081 57.9992 28.3649C58.3964 28.1216 58.8466 28 59.3497 28C60.1265 28 60.7443 28.2432 61.2033 28.7297C61.6711 29.2072 61.905 29.9459 61.905 30.9459V34.8649H60.7929V31.0676C60.7929 29.6712 60.228 28.973 59.0982 28.973C58.5332 28.973 58.061 29.1847 57.6815 29.6081C57.3108 30.0225 57.1254 30.6171 57.1254 31.3919V34.8649H56.0132Z" fill="#151515"/>
<path d="M65.9467 35.027C65.32 35.027 64.7551 34.8829 64.252 34.5946C63.7577 34.2973 63.3649 33.8874 63.0737 33.3649C62.7912 32.8333 62.65 32.2162 62.65 31.5135C62.65 30.8108 62.7912 30.1982 63.0737 29.6757C63.3649 29.1441 63.7577 28.7342 64.252 28.4459C64.7551 28.1486 65.32 28 65.9467 28C66.7235 28 67.3766 28.2072 67.9062 28.6216C68.4447 29.036 68.7845 29.5901 68.9257 30.2838H67.7871C67.6988 29.8694 67.4826 29.5495 67.1383 29.3243C66.7941 29.0901 66.3925 28.973 65.9335 28.973C65.5628 28.973 65.2141 29.0676 64.8875 29.2568C64.5609 29.4459 64.2961 29.7297 64.0931 30.1081C63.8901 30.4865 63.7886 30.955 63.7886 31.5135C63.7886 32.0721 63.8901 32.5405 64.0931 32.9189C64.2961 33.2973 64.5609 33.5856 64.8875 33.7838C65.2141 33.973 65.5628 34.0676 65.9335 34.0676C66.3925 34.0676 66.7941 33.955 67.1383 33.7297C67.4826 33.4955 67.6988 33.1667 67.7871 32.7432H68.9257C68.7933 33.4189 68.4579 33.9685 67.9195 34.3919C67.3811 34.8153 66.7235 35.027 65.9467 35.027Z" fill="#151515"/>
<path d="M70.5319 37.8378L72.1604 34.2162H71.7765L69.1682 28.1622H70.373L72.5444 33.3784L74.8481 28.1622H76L71.697 37.8378H70.5319Z" fill="#151515"/>
</svg>
