<svg width="37" height="37" viewBox="0 0 37 37" fill="none" xmlns="http://www.w3.org/2000/svg">
<g clip-path="url(#clip0_621_2413)">
<path d="M29.364 10.2149L29.3595 10.2193C29.4563 10.4874 29.5465 10.7589 29.6237 11.0358C29.5453 10.7586 29.4613 10.4837 29.364 10.2149Z" fill="#4285F4"/>
<path d="M18.5 2.57843L10.3242 5.96543L15.0215 10.6629C15.9397 9.73848 17.1874 9.21663 18.4903 9.21216C19.7932 9.20769 21.0445 9.72098 21.969 10.6391C22.8934 11.5572 23.4153 12.805 23.4198 14.1079C23.4242 15.4108 22.9109 16.6621 21.9928 17.5866L28.9062 10.6722L29.3595 10.2189C28.5555 7.9828 27.0812 6.04916 25.1377 4.68178C23.1943 3.31441 20.8763 2.57989 18.5 2.57843Z" fill="#4285F4"/>
<path d="M18.5 19.0473C17.5287 19.0471 16.5792 18.7591 15.7715 18.2196C14.9638 17.6802 14.3341 16.9135 13.9619 16.0163C13.5897 15.1192 13.4917 14.1318 13.6803 13.179C13.8689 12.2262 14.3356 11.3507 15.0215 10.663L10.3242 5.96545C9.24889 7.03787 8.39616 8.31221 7.81496 9.71523C7.23377 11.1183 6.93557 12.6223 6.9375 14.141C6.9375 19.235 9.55652 22.4276 12.6378 25.7034C12.8444 25.9148 13.0164 26.1488 13.2112 26.3678L21.9534 17.6255C21.0353 18.5371 19.7938 19.0483 18.5 19.0473Z" fill="#FFBA00"/>
<path d="M18.5 2.57843C15.4334 2.57843 12.4925 3.79662 10.3241 5.96501C8.15569 8.1334 6.9375 11.0744 6.9375 14.1409C6.93515 15.4974 7.148 16.8456 7.56812 18.1353L22.4265 3.2775C21.1683 2.8178 19.8395 2.58123 18.5 2.57843Z" fill="#0066DA"/>
<path d="M19.5419 33.67C20.5922 30.7478 22.1726 28.0445 24.2039 25.6958C27.516 22.3305 30.0625 19.2354 30.0625 14.1409C30.0598 12.8015 29.8234 11.4727 29.364 10.2145L13.2112 26.3674C15.0708 28.4812 16.4834 30.9495 17.3638 33.6237C17.4376 33.8516 17.5806 34.0507 17.7728 34.1936C17.965 34.3365 18.1969 34.416 18.4364 34.4211C18.6758 34.4262 18.9109 34.3566 19.109 34.222C19.3071 34.0874 19.4584 33.8945 19.5419 33.67Z" fill="#00AC47"/>
<path opacity="0.5" d="M12.6378 25.7034C12.8444 25.9148 13.0164 26.1488 13.2112 26.3678C13.0159 26.1492 12.844 25.9151 12.6378 25.7034Z" fill="#0066DA"/>
<path opacity="0.5" d="M8.33309 8.62991C7.9742 9.29062 7.68103 9.98496 7.45781 10.703C7.68108 9.98498 7.97425 9.29064 8.33309 8.62991Z" fill="#0066DA"/>
<path opacity="0.5" d="M7.45781 10.7029C7.22937 11.4377 7.0752 12.1936 6.99762 12.9591C7.07521 12.1936 7.22938 11.4377 7.45781 10.7029Z" fill="#0066DA"/>
<path d="M17.57 33.9925C17.5932 34.0212 17.6215 34.0413 17.6468 34.067C17.6212 34.0413 17.593 34.0211 17.57 33.9925Z" fill="white"/>
<path d="M18.2542 34.3902L18.3004 34.3979L18.2542 34.3902Z" fill="white"/>
<path d="M15.75 29.978C15.7071 29.9005 15.6715 29.8182 15.6275 29.7413C15.671 29.8185 15.7075 29.9006 15.75 29.978Z" fill="white"/>
<path d="M17.3638 33.6238C17.1272 32.9272 16.861 32.2502 16.5652 31.5927C16.8573 32.2521 17.1272 32.9266 17.3638 33.6238Z" fill="white"/>
<path d="M17.953 34.2901C17.9265 34.2771 17.8994 34.2662 17.8739 34.251C17.8998 34.2662 17.926 34.2773 17.953 34.2901Z" fill="white"/>
<path d="M22.7917 27.4643C22.5037 27.866 22.2506 28.2881 21.9907 28.7062C22.2498 28.2877 22.5044 27.8663 22.7917 27.4643Z" fill="white"/>
<path d="M19.7104 33.2699C19.9814 32.5862 20.2728 31.9145 20.5846 31.2548C20.2709 31.9132 19.9814 32.5861 19.7104 33.2699Z" fill="white"/>
<path d="M21.5988 29.3206C21.2659 29.8938 20.9628 30.4848 20.6738 31.083C20.9628 30.4842 21.267 29.8945 21.5988 29.3206Z" fill="white"/>
<path d="M10.3242 5.96545C9.24889 7.03787 8.39616 8.31221 7.81496 9.71523C7.23376 11.1183 6.93557 12.6223 6.9375 14.1409C6.93515 15.4974 7.148 16.8456 7.56812 18.1353L15.0313 10.6722L10.3242 5.96545Z" fill="#EA4435"/>
</g>
<defs>
<clipPath id="clip0_621_2413">
<rect width="37" height="37" fill="white"/>
</clipPath>
</defs>
</svg>
