<svg width="46" height="46" viewBox="0 0 46 46" fill="none" xmlns="http://www.w3.org/2000/svg">
<circle cx="23" cy="23" r="23" fill="url(#paint0_linear_621_1321)"/>
<path d="M15.7012 13.6071C14.1491 14.4954 13.1241 16.0497 12.9272 17.8152L12.9272 17.8152C12.9191 17.8885 12.9128 18.0993 12.9075 18.4001C12.9021 18.7056 12.8976 19.1139 12.894 19.5904C12.8868 20.5436 12.8832 21.7713 12.8832 22.9988C12.8832 24.2263 12.8868 25.454 12.894 26.4072C12.8976 26.8837 12.9021 27.292 12.9075 27.5975C12.9128 27.8984 12.9191 28.1092 12.9272 28.1825L13.0763 28.1659L12.9272 28.1825C13.2141 30.7556 15.2453 32.7875 17.8178 33.0744L17.8344 32.9254L17.8178 33.0744C17.8911 33.0826 18.1018 33.0889 18.4026 33.0942C18.708 33.0996 19.1161 33.1041 19.5925 33.1077C20.5454 33.1149 21.7727 33.1185 22.9999 33.1185C24.227 33.1185 25.4543 33.1149 26.4072 33.1077C26.8836 33.1041 27.2918 33.0996 27.5972 33.0942C27.8979 33.0889 28.1087 33.0826 28.182 33.0744L28.1653 32.9254L28.182 33.0744C30.7544 32.7875 32.7856 30.7556 33.0725 28.1825C33.0807 28.1092 33.0869 27.8984 33.0923 27.5975C33.0977 27.292 33.1022 26.8837 33.1057 26.4072C33.1129 25.454 33.1165 24.2263 33.1165 22.9988C33.1165 21.7713 33.1129 20.5436 33.1057 19.5904C33.1022 19.1139 33.0977 18.7056 33.0923 18.4001C33.0869 18.0993 33.0807 17.8885 33.0725 17.8152C32.7856 15.242 30.7544 13.2102 28.182 12.9232L28.1653 13.0723L28.182 12.9232C28.1156 12.9158 27.9077 12.9103 27.6082 12.9056C27.3035 12.9009 26.8933 12.897 26.4129 12.8939C25.4521 12.8878 24.2095 12.8849 22.9675 12.8852C21.7254 12.8855 20.4835 12.889 19.524 12.8956C19.0444 12.899 18.6349 12.9031 18.3313 12.908C18.0329 12.9128 17.8258 12.9184 17.7605 12.9259C17.0869 13.0031 16.3029 13.2627 15.7012 13.6071ZM15.7012 13.6071L15.7757 13.7373L15.7012 13.6071ZM17.8638 14.3897C17.8636 14.3897 17.8638 14.3897 17.8645 14.3897C17.8672 14.3895 17.8772 14.3887 17.8988 14.3877C17.9226 14.3866 17.9551 14.3856 17.9961 14.3845C18.0781 14.3824 18.1918 14.3804 18.334 14.3785C18.6184 14.3747 19.0147 14.3714 19.4943 14.3688C20.4535 14.3637 21.7445 14.3613 23.1359 14.3629L28.1762 14.3687L28.5294 14.4661C29.3154 14.683 29.9151 15.0248 30.4432 15.5532C30.9711 16.0812 31.3125 16.6803 31.5302 17.4677L31.6748 17.4277L31.5302 17.4677L31.6279 17.8209V22.9988V28.1768L31.5302 28.5299L31.6748 28.5699L31.5302 28.53C31.3125 29.3174 30.9711 29.9164 30.4432 30.4445C29.9153 30.9726 29.3165 31.314 28.5293 31.5318L28.5693 31.6764L28.5293 31.5318L28.1762 31.6295H22.9999H17.8235L17.4704 31.5318C16.6833 31.314 16.0844 30.9726 15.5565 30.4445C15.0286 29.9164 14.6872 29.3174 14.4695 28.53L14.4695 28.5299L14.3719 28.1768V22.9988V17.8209L14.4695 17.4677L14.4695 17.4677C14.6869 16.6812 15.0287 16.0811 15.5544 15.5553C16.1782 14.9313 17.0014 14.5161 17.8638 14.3897ZM17.8638 14.3897L17.8421 14.2413L17.8638 14.3897C17.8638 14.3897 17.8638 14.3897 17.8638 14.3897ZM29.0766 15.5434L29.0766 15.5434C29.7168 15.7354 30.2025 16.2951 30.3109 16.9611C30.5063 18.1622 29.3583 19.2246 28.1828 18.9234C27.497 18.7476 27.0544 18.3028 26.878 17.6138C26.878 17.6138 26.878 17.6138 26.878 17.6138L27.0233 17.5766C26.7944 16.6831 27.4433 15.759 28.3912 15.6283L29.0766 15.5434ZM29.0766 15.5434C28.9782 15.5139 28.8452 15.4926 28.7202 15.4812C28.5963 15.4699 28.4648 15.4667 28.3707 15.4797L29.0766 15.5434ZM28.7874 17.4063L28.7874 17.4063L28.4623 17.4709C28.4623 17.4709 28.4623 17.4709 28.4623 17.4709C28.2835 17.386 28.2486 17.1555 28.3875 17.0247C28.449 16.9668 28.505 16.9436 28.5555 16.9394C28.6067 16.9352 28.6702 16.9491 28.7484 16.9979C28.8716 17.0748 28.9014 17.2873 28.7874 17.4063ZM22.2294 17.4587C20.015 17.7606 18.1495 19.4267 17.5843 21.6049C17.088 23.5176 17.6439 25.5317 19.0558 26.944C21.2567 29.1456 24.743 29.1456 26.9439 26.944C29.1447 24.7426 29.1448 21.2534 26.9439 19.054C25.6814 17.7924 23.9878 17.2189 22.2294 17.4587ZM20.0886 20.0866L19.9825 19.9805L20.0886 20.0866C21.024 19.1508 22.3093 18.7246 23.6002 18.9204C24.5027 19.0573 25.2688 19.444 25.9112 20.0866L26.0172 19.9805L25.9112 20.0866C27.5279 21.7038 27.5279 24.2938 25.9112 25.9111C24.2944 27.5283 21.7053 27.5283 20.0886 25.9111C18.4718 24.2938 18.4718 21.7038 20.0886 20.0866Z" fill="#F2F3F7" stroke="#F2F3F7" stroke-width="0.3"/>
<defs>
<linearGradient id="paint0_linear_621_1321" x1="23" y1="0" x2="23" y2="46" gradientUnits="userSpaceOnUse">
<stop stop-color="#0073F0"/>
<stop offset="1" stop-color="#1B2AC9"/>
</linearGradient>
</defs>
</svg>
