<svg width="22" height="21" viewBox="0 0 22 21" fill="none" xmlns="http://www.w3.org/2000/svg">
<path d="M3.70116 1.27115C2.14906 2.15943 1.12408 3.71372 0.927248 5.47922L0.927247 5.47923C0.919079 5.55253 0.912804 5.76332 0.907482 6.06419C0.902079 6.36967 0.897583 6.77796 0.893988 7.25451C0.886797 8.2077 0.883203 9.43538 0.883203 10.6629C0.883203 11.8904 0.886797 13.1181 0.893988 14.0713C0.897583 14.5478 0.902079 14.9561 0.907482 15.2616C0.912804 15.5624 0.919079 15.7732 0.927247 15.8465L1.07632 15.8299L0.927248 15.8465C1.21412 18.4197 3.24533 20.4515 5.81776 20.7385L5.83439 20.5894L5.81777 20.7385C5.89105 20.7467 6.10179 20.7529 6.40257 20.7583C6.70796 20.7637 7.11612 20.7682 7.59252 20.7718C8.54543 20.779 9.77274 20.7826 10.9999 20.7826C12.227 20.7826 13.4543 20.779 14.4072 20.7718C14.8836 20.7682 15.2918 20.7637 15.5972 20.7583C15.8979 20.7529 16.1087 20.7467 16.182 20.7385L16.1653 20.5894L16.182 20.7385C18.7544 20.4515 20.7856 18.4197 21.0725 15.8465C21.0807 15.7732 21.0869 15.5624 21.0923 15.2616C21.0977 14.9561 21.1022 14.5478 21.1057 14.0713C21.1129 13.1181 21.1165 11.8904 21.1165 10.6629C21.1165 9.43538 21.1129 8.2077 21.1057 7.25451C21.1022 6.77796 21.0977 6.36967 21.0923 6.06419C21.0869 5.76332 21.0807 5.55253 21.0725 5.47923C20.7856 2.9061 18.7544 0.874231 16.182 0.587265L16.1653 0.736327L16.182 0.587264C16.1156 0.579863 15.9077 0.574353 15.6082 0.569698C15.3035 0.564963 14.8933 0.561062 14.4129 0.557981C13.4521 0.551819 12.2095 0.54893 10.9675 0.549241C9.72542 0.549553 8.48353 0.553065 7.52405 0.55971C7.04436 0.563032 6.63494 0.567139 6.33126 0.572026C6.03292 0.576828 5.82585 0.582437 5.76055 0.589926C5.0869 0.667182 4.3029 0.926732 3.70116 1.27115ZM3.70116 1.27115L3.77567 1.40133L3.70116 1.27115ZM5.86379 2.05377C5.86363 2.0538 5.86385 2.05378 5.86449 2.05373C5.86717 2.05352 5.87722 2.05272 5.89881 2.05175C5.92263 2.05069 5.95511 2.04962 5.99614 2.04855C6.07808 2.04644 6.19183 2.04442 6.33405 2.04252C6.61836 2.03874 7.01472 2.03548 7.49434 2.03291C8.45348 2.02777 9.74454 2.02537 11.1359 2.02697L16.1762 2.03279L16.5294 2.13021C17.3154 2.34705 17.9151 2.68886 18.4432 3.21721C18.9711 3.74529 19.3125 4.34431 19.5302 5.13175L19.6748 5.09178L19.5302 5.13175L19.6279 5.48493V10.6629V15.8408L19.5302 16.194L19.6748 16.234L19.5302 16.194C19.3125 16.9814 18.9711 17.5805 18.4432 18.1085C17.9153 18.6366 17.3165 18.9781 16.5293 19.1959L16.5693 19.3404L16.5293 19.1959L16.1762 19.2935H10.9999H5.8235L5.47045 19.1959C4.68326 18.9781 4.08443 18.6366 3.55652 18.1085C3.0286 17.5805 2.6872 16.9814 2.46952 16.194L2.46952 16.194L2.37186 15.8408V10.6629V5.48493L2.46952 5.13175L2.46952 5.13175C2.68695 4.34525 3.02865 3.7452 3.55438 3.21932C4.17816 2.59535 5.00138 2.18015 5.86379 2.05377ZM5.86379 2.05377L5.84206 1.90535L5.86381 2.05377C5.8638 2.05377 5.8638 2.05377 5.86379 2.05377ZM17.0766 3.20743L17.0766 3.20743C17.7168 3.39949 18.2025 3.95911 18.3109 4.62519C18.5063 5.82621 17.3583 6.88868 16.1828 6.58743C15.497 6.41167 15.0544 5.96688 14.878 5.2779C14.878 5.27789 14.878 5.27789 14.878 5.27789L15.0233 5.24068C14.7944 4.34719 15.4433 3.4231 16.3912 3.29239L17.0766 3.20743ZM17.0766 3.20743C16.9782 3.17793 16.8452 3.15671 16.7202 3.14528C16.5963 3.13395 16.4648 3.13081 16.3707 3.14379L17.0766 3.20743ZM16.7874 5.07033L16.7874 5.07035L16.4623 5.135C16.4623 5.135 16.4623 5.135 16.4623 5.13499C16.2835 5.05009 16.2486 4.81959 16.3875 4.68876C16.449 4.63085 16.505 4.60763 16.5555 4.60346C16.6067 4.59923 16.6702 4.61316 16.7484 4.66196C16.8716 4.73884 16.9014 4.9514 16.7874 5.07033ZM10.2294 5.12274C8.01503 5.42464 6.14949 7.09074 5.58433 9.26894C5.08802 11.1816 5.6439 13.1958 7.05579 14.6081C9.25672 16.8097 12.743 16.8097 14.9439 14.6081C17.1447 12.4066 17.1448 8.91747 14.9439 6.71805C13.6814 5.45643 11.9878 4.883 10.2294 5.12274ZM8.08857 7.75064L7.98249 7.64459L8.08858 7.75064C9.02404 6.81486 10.3093 6.3887 11.6002 6.58448C12.5027 6.72135 13.2688 7.10805 13.9112 7.75064L14.0172 7.64459L13.9112 7.75064C15.5279 9.36791 15.5279 11.9579 13.9112 13.5751C12.2944 15.1924 9.70533 15.1924 8.08857 13.5751C6.4718 11.9579 6.4718 9.36791 8.08857 7.75064Z" fill="#F2F3F7" stroke="#F2F3F7" stroke-width="0.3"/>
</svg>
