<svg width="38" height="126" viewBox="0 0 38 126" fill="none" xmlns="http://www.w3.org/2000/svg">
<path fill-rule="evenodd" clip-rule="evenodd" d="M37.7 107.5C37.7 107.3 37.7 107.1 37.7 106.9C37.7 106.2 37.6 105.1 37.6 104C37.4 101.6 37.2 98.6 36.6 95.8C36.1 93.2 35.4 90.7 34.9 88.7C34.4 86.6 34.1 85.3 34.1 84.7C34 83.1 34 82.7 34.1 81.3C34.2 78.9 34.7 77.1 35.4 75.2C36 73.2 36.8 71.1 37.2 68.2C37.4 66.6 37.5 64.8 37.5 63.4C37.5 62.7 37.5 62 37.5 61.5C37.5 61.3 37.5 61.1 37.5 60.9C37.5 60.8 37.5 60.8 37.5 60.7C37.5 60.7 37.5 60.7 37.5 60.6C37.5 60.1 37.4 59.7 37.2 59.4V35.4C37.4 35 37.5 34.6 37.5 34.2C37.5 33.7 37.4 31 37 29C36.2 25.4 34.8 23.4 33.1 20.7C31.8 18.5 29.7 16.1 28 14.2C27.3 13.4 26.6 12.7 26.1 12.2H26.8V10.2V9.3V7.5L25.9 7.4V6.6V4.6H25.6V4.1V3.6V3.1V2.1V1.1H25.2V0H23.2H23.1H13.9H11.9V0.6H11.4V1.6V2.6V2.7V3V3.6V4.2V4.5V4.7V5V5.4V6.2V6.5V7.1H10.5V9.1V10V12H11.5C11 12.6 10.3 13.3 9.5 14.2C7.9 16 5.9 18.5 4.6 20.6C3 23.3 1.2 26.1 0.7 29C0.5 30.3 0.3 31.4 0.3 32.2C0 32.7 0 33.1 0 33.5C0 33.8 0 34.2 0.1 34.7C0.1 34.8 0.2 35 0.3 35.1C0.3 36.7 0.4 42.2 0.4 47.6C0.4 50.7 0.5 53.9 0.5 56.2C0.5 57.4 0.5 58.3 0.5 59C0.5 59.2 0.5 59.3 0.5 59.5C0.4 59.6 0.4 59.8 0.3 59.9C0.2 60.2 0.2 60.5 0.2 60.5C0.2 60.6 0.2 60.8 0.2 60.9C0.2 61.1 0.2 61.5 0.2 61.8C0.2 62.5 0.2 63.3 0.3 64.2C0.3 65.1 0.4 65.9 0.4 66.7C0.5 67.4 0.5 68.1 0.6 68.5C0.7 69 1.5 71.8 2.3 74.6C2.7 76 3.1 77.5 3.4 78.8C3.7 80.1 3.9 81.1 3.9 81.6C4 82.7 4 83.5 4 84C4 84.2 4 84.4 4 84.4V84.5V84.7V84.8C4 84.9 4 85 4 85.2C4 85.6 3.9 86.1 3.8 86.7C3.6 87.9 3.4 89.2 3.1 90.2C2.7 91.5 2.2 93.7 1.9 95.4C1.7 96.3 1.6 97.1 1.5 97.7C1.5 98 1.4 98.2 1.4 98.4C1.4 98.5 1.4 98.5 1.4 98.6C1.4 98.6 1.4 98.6 1.4 98.7C1.4 98.7 1.4 98.7 2.1 98.8L1.4 98.7V98.8V98.9L3.4 99L1.4 98.9L0.5 108C0.4 108.3 0.3 108.7 0.3 109C0.3 109.3 0.4 110.3 0.5 111.3C0.5 111.9 0.6 112.5 0.6 113.1C0.6 113.7 0.7 114.3 0.7 114.9C0.8 116.6 1.5 118.5 2.2 120C2.6 120.8 3 121.5 3.5 122.1C3.9 122.6 4.5 123.4 5.3 123.7C6 124 6.6 124.1 7.2 124.1C7.6 124.6 8.2 125.1 9 125.4C9.8 125.7 10.7 125.8 11.6 125.9C12.5 126 13.4 126 14.2 125.9C15.4 125.8 16.3 125.2 16.8 124.8C17.1 124.6 17.3 124.4 17.5 124.2C17.6 124.1 17.7 124.1 17.7 124C17.7 124 17.7 124 17.8 123.9C17.8 123.9 17.8 123.9 16.3 122.6C16.6 122.8 16.9 123 17.1 123.2L16.3 122.6L17.8 123.9L17.9 123.8L18 123.7C18 123.7 18 123.7 18.1 123.6C18.1 123.5 18.2 123.4 18.3 123.3C18.5 123.1 18.7 122.8 18.9 122.5C19.1 122.2 19.3 122 19.5 121.8C19.8 122.1 20.2 122.5 20.6 122.9C21 123.3 21.4 123.7 21.8 124.1C22.2 124.5 22.6 124.9 23 125.1C23.6 125.5 24.3 125.6 24.8 125.7C25.4 125.8 26 125.8 26.5 125.8C27.1 125.8 27.6 125.7 28.1 125.6C28.5 125.5 29.1 125.4 29.5 125.2C30 125 30.4 124.6 30.6 124.4C30.8 124.2 31 123.9 31.2 123.7C31.6 123.7 32.1 123.6 32.6 123.4C33.4 123.1 33.9 122.5 34.2 122.1C34.5 121.6 34.8 121.1 35.1 120.6C35.6 119.6 36 118.5 36.3 117.6C37 115.9 37.4 113.8 37.6 112.2C37.8 110.6 37.9 109.2 37.9 108.8C38 108.4 37.9 107.9 37.7 107.5ZM34 108.2C34.1 108.2 34.1 108.2 34.2 108.2H34ZM14.4 13.1C14.2 12.9 14 12.7 13.7 12.5L14.4 13.1ZM1.2 36C1.2 36 1.3 36.1 1.2 36C1.2 36.1 1.2 36.1 1.2 36ZM3.2 32.6C3.2 32.5 3.2 32.6 3.2 32.6V32.6ZM17.6 123.6C17.7 123.7 17.8 123.7 17.8 123.7L17.6 123.6ZM29.4 121L30.4 121.7C30 121.4 29.6 121.2 29.4 121ZM31.6 119.1C31.4 119.4 31.3 119.7 31.2 119.8L29.7 119L28.7 120.6L28.6 120.7C28.5 120.8 28.4 121 28.3 121.2C28.2 121.4 28 121.5 27.9 121.7C27.9 121.7 27.9 121.7 27.8 121.8C27.7 121.8 27.7 121.8 27.5 121.9C27.2 122 26.8 122 26.4 122C26 122 25.7 122 25.4 122C25.2 122 25.2 122 25.1 121.9C25 121.8 24.8 121.7 24.5 121.3C24.2 121 23.8 120.6 23.4 120.2C23 119.8 22.6 119.4 22.3 119.1C22.1 118.9 22 118.8 21.9 118.7C21.8 118.6 21.6 118.4 21.4 118.3C20.2 117.5 18.8 117.7 17.9 118.2C17.6 118.4 17.3 118.6 17.2 118.7C17 118.8 16.9 119 16.7 119.2C16.4 119.5 16.1 119.9 15.8 120.2C15.5 120.5 15.3 120.9 15.1 121.1C15 121.2 14.9 121.3 14.9 121.4C14.8 121.5 14.7 121.6 14.6 121.7C14.3 121.9 14.1 122 13.9 122C13.4 122.1 12.7 122.1 12 122C11.3 121.9 10.7 121.8 10.4 121.7C10.4 121.7 10.3 121.7 10.3 121.5C10.3 121.4 10.2 121.4 10.2 121.3L9.3 118.7L7.3 120.2C7.3 120.2 7.2 120.2 7.1 120.2C7.1 120.2 7 120.1 6.8 119.8C6.5 119.4 6.2 118.9 5.9 118.3C5.3 117 4.9 115.6 4.8 114.6C4.8 114 4.7 113.4 4.7 112.8C4.7 112.2 4.6 111.6 4.6 111C4.6 110.5 4.5 110 4.5 109.6C4.5 109.5 4.5 109.4 4.5 109.4L4.6 109.3L4.7 108.6L2.7 108.5L4.7 108.6L5.4 99.2C5.4 99.2 5.4 99.1 5.4 99C5.4 98.8 5.5 98.6 5.5 98.3C5.6 97.7 5.7 96.9 5.9 96.1C6.2 94.3 6.6 92.5 7 91.5C7.5 90.2 7.7 88.5 7.9 87.3C8 86.7 8.1 86.1 8.1 85.7C8.1 85.5 8.1 85.3 8.1 85.2V85.1C8.1 85.1 8.1 85 8.1 84.9C8.1 84.7 8.1 84.5 8.2 84.1C8.2 83.4 8.2 82.5 8.1 81.1C8 80.3 7.8 79 7.5 77.7C7.2 76.4 6.8 74.8 6.4 73.4C5.6 70.4 4.9 67.9 4.8 67.5C4.8 67.5 4.8 67.4 4.8 67.2C4.8 67 4.7 66.7 4.7 66.3C4.6 65.6 4.6 64.8 4.6 64C4.6 63.2 4.5 62.4 4.5 61.8C4.5 61.7 4.5 61.6 4.5 61.5L4.8 61.3V60.1H3.8C4.7 60.1 4.8 60.1 4.8 60.1C4.8 60.1 4.8 60.1 4.8 60C4.8 60 4.8 59.9 4.8 59.8C4.8 59.6 4.8 59.4 4.8 59C4.8 58.3 4.8 57.3 4.8 56.2C4.8 53.9 4.8 50.7 4.7 47.6C4.4 41.3 4.3 35 4.3 34.7C4.3 34.6 4.3 34.5 4.3 34.3C4.3 34.2 4.3 34 4.2 33.8C4.2 33.7 4.1 33.5 4 33.3C4 33.1 4 32.9 4 32.6C4.1 32 4.2 31 4.4 29.8C4.7 27.8 6 25.8 7.8 22.8C8.9 21 10.7 18.7 12.3 16.9C13.1 16 13.8 15.2 14.3 14.7C14.6 14.4 14.8 14.2 14.9 14.1C15 14 15 14 15.1 13.9L15.7 13.3V12.5V11.2V10.1V9.2V8.6V8.1V7.4V6.8V6.6V5.6V5.5V5.4V4.8V4.6V4.3V4H20.9L21 5V6.1H21.1L21.2 6.7V7.4V9.2V11H21.3V12.4V13.2L21.9 13.8C21.9 13.8 22 13.9 22.1 14C22.2 14.1 22.5 14.4 22.7 14.6C23.2 15.1 24 15.9 24.8 16.8C26.4 18.6 28.3 20.8 29.4 22.7C31.2 25.6 32.2 27 32.8 29.8C33 30.8 33.1 32.1 33.2 33L33 33.1V34.7V60.1V61.1L33.3 61.3C33.3 62.6 33.3 65.5 33 67.7C32.7 70.1 32 71.9 31.4 74C30.7 76 30 78.3 29.9 81.2C29.8 82.6 29.8 83.2 29.9 84.9C29.9 86 30.4 87.8 30.9 89.7C31.4 91.7 32 94.1 32.5 96.6C33 99.1 33.3 101.9 33.4 104.2C33.5 105.3 33.5 106.3 33.5 107C33.5 107.3 33.5 107.6 33.5 107.8C33.5 107.9 33.5 108 33.5 108C33.5 108 33.5 108 33.5 108.1V109.3L33.7 109.4C33.7 109.9 33.6 110.8 33.5 111.7C33.3 113.2 33 114.9 32.5 116.2C32.3 117.4 32 118.3 31.6 119.1Z" fill="white"/>
<path fill-rule="evenodd" clip-rule="evenodd" d="M25.9997 73.1L25.5997 73L25.7997 72.7C26.5997 71.6 26.9997 69.8001 26.5997 69.3001C26.2997 69.0001 25.9997 68.8 24.9997 68.6C24.8997 68.6 24.8997 68.6 25.1997 68.2C26.0997 67.2 26.6997 66.1 26.7997 64.9001C26.7997 64.5001 26.7997 64.4 26.6997 64.1C26.5997 63.9 26.4997 63.8 26.1997 63.7C24.9997 63.2 23.0997 63.3 21.5997 64C21.3997 64.1 21.1997 64.2 21.1997 64.2C21.1997 64.2 21.2997 64 21.3997 63.8C22.0997 62.4 22.1997 60.5 21.5997 58.8C21.2997 57.9 20.5997 56.9001 19.8997 56.4001C19.2997 55.9001 18.9997 55.9 18.4997 56.1C18.0997 56.3 17.2997 57.1 16.9997 57.6C16.6997 58.1 16.3997 58.8 16.1997 59.5C16.0997 59.9 15.9997 60.2 15.9997 61C15.9997 62.3 16.1997 63.1 16.6997 63.9001C16.7997 64.1 16.8997 64.2 16.8997 64.2C16.8997 64.2 16.5997 64.1 16.1997 63.9001C15.2997 63.5001 14.6997 63.3 13.6997 63.3C12.4997 63.2 11.4997 63.5 11.1997 64C10.9997 64.2 10.9997 64.3 10.9997 64.7C10.9997 65.9 11.5997 67.2 12.5997 68.2C12.8997 68.5 12.8997 68.5 12.6997 68.5C11.3997 68.7 11.0997 68.9001 10.9997 69.4001C10.7997 70.1 11.1997 71.6 11.8997 72.6C11.9997 72.8 12.0997 72.9 12.0997 73C12.0997 73 11.9997 73.1 11.7997 73.1C11.3997 73.2 11.0997 73.4 10.9997 73.7C10.9997 74 10.9997 74.1 10.9997 74.5C11.0997 75.8 11.6997 76.9 12.7997 78C14.0997 79.2001 15.6997 79.9 17.2997 80H17.9997V83.2C17.9997 86.7 17.9997 86.6001 18.3997 86.9001C18.5997 87.0001 18.6997 87 18.9997 87C19.3997 87 19.5997 86.9 19.7997 86.6C19.8997 86.4 19.8997 86.4 19.8997 83.2V80H20.5997C23.6997 79.9 26.6997 77.3 26.9997 74.6C26.9997 74.2 26.9997 74.1001 26.8997 73.8001C26.6997 73.4001 26.5997 73.3 25.9997 73.1ZM21.7997 66C22.6997 65.4 23.3997 65.2 24.2997 65.2H24.7997V65.4001C24.7997 65.5001 24.5997 65.8 24.4997 66.1C24.2997 66.5 24.0997 66.7 23.6997 67.2C22.7997 68.1 21.6997 68.6 20.4997 68.7H19.9997V68.4001C19.9997 67.6 20.7997 66.6 21.7997 66ZM14.3997 65.2C15.1997 65.4 16.0997 65.8001 16.5997 66.3001C17.2997 66.9001 17.9997 67.9001 17.9997 68.3001C17.9997 68.4001 17.9997 68.4001 17.3997 68.4001C16.2997 68.3 15.0997 67.8 14.1997 66.9001C13.6997 66.4001 13.2997 65.9001 13.0997 65.4001C12.9997 65.3 12.9997 65.2 12.9997 65.2C12.9997 65.1 13.9997 65.2 14.3997 65.2ZM12.9997 70.3001H13.6997C14.1997 70.3001 14.4997 70.4 14.7997 70.5C15.7997 70.8 16.7997 71.5001 17.3997 72.3001C17.6997 72.7001 17.9997 73.3 17.9997 73.5C17.9997 73.6 17.9997 73.6 17.3997 73.6C16.2997 73.5 15.1997 73.1001 14.2997 72.3001C13.5997 71.7001 13.2997 71.2001 12.9997 70.4001V70.3001ZM17.4997 78.1C15.6997 78.1 13.6997 76.8 13.0997 75.1C12.9997 74.9 12.9997 74.8 13.0997 74.7C13.1997 74.6 14.0997 74.7001 14.5997 74.8001C15.1997 75.0001 16.0997 75.4 16.4997 75.7C17.1997 76.2 17.8997 77.2001 17.9997 77.8001V78H17.4997V78.1ZM19.1997 63.7L18.9997 63.9001L18.7997 63.7C18.4997 63.4 18.1997 62.7 18.0997 62.2C17.8997 61.6 17.8997 60.3 18.0997 59.7C18.1997 59.4 18.2997 59.1001 18.3997 58.9001C18.5997 58.5001 18.8997 58.1 18.9997 58.1C18.9997 58.1 19.0997 58.2001 19.1997 58.4001C19.7997 59.2001 19.9997 59.9 19.9997 61C19.9997 62.1 19.6997 63.1 19.1997 63.7ZM19.9997 73.8001V73.5C19.9997 72.9 20.7997 71.8 21.7997 71.2C22.6997 70.6 23.4997 70.4001 24.2997 70.4001H24.7997V70.6C24.6997 70.9 24.2997 71.6 23.9997 72C23.0997 73 21.7997 73.7001 20.4997 73.8001H19.9997ZM24.8997 75.2C24.3997 76.4 23.2997 77.4001 21.8997 77.9001C21.3997 78.1001 21.1997 78.1 20.6997 78.1H19.9997V77.9001C19.9997 77.8001 20.0997 77.5001 20.1997 77.3001C20.7997 76.1001 22.1997 75.1001 23.6997 74.8001C24.0997 74.7001 24.6997 74.7 24.8997 74.7C24.9997 74.8 24.9997 74.8 24.8997 75.2Z" fill="white"/>
</svg>
