<svg width="150" height="33" viewBox="0 0 150 33" fill="none" xmlns="http://www.w3.org/2000/svg">
<path d="M88.7185 11.5034L79.7698 2.48191C78.9911 1.69512 78.0665 1.07094 77.0486 0.645071C76.0307 0.219203 74.9397 0 73.8378 0C72.7359 0 71.6448 0.219203 70.627 0.645071C69.6091 1.07094 68.6844 1.69512 67.9058 2.48191L61.5896 8.84688C61.3302 9.10995 61.0218 9.3187 60.6822 9.46114C60.3427 9.60358 59.9785 9.67691 59.6108 9.67691C59.243 9.67691 58.8789 9.60358 58.5393 9.46114C58.1997 9.3187 57.8914 9.10995 57.632 8.84688L51.3157 2.48191C50.5371 1.69512 49.6124 1.07094 48.5946 0.645071C47.5767 0.219203 46.4856 0 45.3837 0C44.2819 0 43.1908 0.219203 42.1729 0.645071C41.1551 1.07094 40.2304 1.69512 39.4518 2.48191L33.1355 8.84688C32.8761 9.10995 32.5678 9.3187 32.2282 9.46114C31.8886 9.60358 31.5245 9.67691 31.1567 9.67691C30.789 9.67691 30.4248 9.60358 30.0853 9.46114C29.7457 9.3187 29.4373 9.10995 29.1779 8.84688L22.8617 2.48191C22.0831 1.69512 21.1584 1.07094 20.1405 0.645071C19.1226 0.219203 18.0316 0 16.9297 0C15.8278 0 14.7367 0.219203 13.7189 0.645071C12.701 1.07094 11.7763 1.69512 10.9977 2.48191L2.04896 11.5034C0.737027 12.8275 0 14.6232 0 16.4955C0 18.3679 0.737027 20.1636 2.04896 21.4877L10.9977 30.5181C11.7763 31.3049 12.701 31.9291 13.7189 32.3549C14.7367 32.7808 15.8278 33 16.9297 33C18.0316 33 19.1226 32.7808 20.1405 32.3549C21.1584 31.9291 22.0831 31.3049 22.8617 30.5181L29.1514 24.1442C29.4108 23.8811 29.7192 23.6724 30.0588 23.5299C30.3983 23.3875 30.7625 23.3142 31.1302 23.3142C31.498 23.3142 31.8621 23.3875 32.2017 23.5299C32.5413 23.6724 32.8496 23.8811 33.109 24.1442L39.4253 30.5181C40.2039 31.3049 41.1286 31.9291 42.1464 32.3549C43.1643 32.7808 44.2554 33 45.3572 33C46.4591 33 47.5502 32.7808 48.5681 32.3549C49.5859 31.9291 50.5106 31.3049 51.2892 30.5181L57.6055 24.1442C57.8649 23.8811 58.1732 23.6724 58.5128 23.5299C58.8524 23.3875 59.2165 23.3142 59.5843 23.3142C59.952 23.3142 60.3162 23.3875 60.6557 23.5299C60.9953 23.6724 61.3037 23.8811 61.5631 24.1442L67.8793 30.5181C68.6579 31.3049 69.5826 31.9291 70.6005 32.3549C71.6183 32.7808 72.7094 33 73.8113 33C74.9132 33 76.0042 32.7808 77.0221 32.3549C78.04 31.9291 78.9646 31.3049 79.7433 30.5181L88.692 21.4877C90.0075 20.1672 90.7493 18.3735 90.7542 16.5011C90.7592 14.6287 90.027 12.831 88.7185 11.5034Z" fill="url(#paint0_linear_1402_2363)"/>
<path d="M16.7315 11.4052C17.1747 11.4023 17.6147 11.4808 18.0301 11.637C18.4161 11.7795 18.7703 11.9977 19.0725 12.2789C19.3689 12.5612 19.6062 12.9007 19.7704 13.2773C19.9431 13.6949 20.0273 14.1443 20.0177 14.5966C20.0215 15.0332 19.9404 15.4663 19.7792 15.8714C19.628 16.2485 19.3992 16.5888 19.1078 16.8698C18.8074 17.1556 18.4529 17.3769 18.0654 17.5206C17.6442 17.6776 17.1982 17.7561 16.7491 17.7524H15.6802V21.5946H13.8428V11.4052H16.7315ZM15.6802 13.4021V15.7466H17.0142C17.3219 15.7536 17.6201 15.6383 17.8446 15.4257C17.9559 15.3178 18.0433 15.1873 18.1011 15.0429C18.159 14.8985 18.186 14.7434 18.1802 14.5877C18.1855 14.4329 18.1592 14.2787 18.1029 14.1345C18.0467 13.9904 17.9618 13.8594 17.8534 13.7498C17.7462 13.6347 17.6159 13.5441 17.4711 13.4841C17.3264 13.4242 17.1705 13.3962 17.0142 13.4021H15.6802Z" fill="white"/>
<path d="M42.6047 11.4052H48.1612V13.4198H44.4422V15.3454H47.7461V17.3601H44.4422V19.5709H48.1612V21.5856H42.6047V11.4052Z" fill="white"/>
<path d="M69.9553 11.4052H77.738V13.3931H74.761V21.5856H72.9147V13.3931H69.9553V11.4052Z" fill="white"/>
<path d="M36.2002 15.488H26.1118V17.5027H36.2002V15.488Z" fill="white"/>
<path d="M64.655 15.488H54.5667V17.5027H64.655V15.488Z" fill="white"/>
<path d="M102.8 11.4052H108.365V13.4198H104.646V15.3454H107.941V17.3601H104.646V19.5709H108.365V21.5856H102.8V11.4052Z" fill="#1B2AC9"/>
<path d="M111.669 21.5856H109.417L112.818 16.326L109.62 11.4052H111.81L113.904 14.6411L115.998 11.4052H118.242L115.044 16.326L118.445 21.5856H116.254L113.957 18.0197L111.669 21.5856Z" fill="#1B2AC9"/>
<path d="M122.79 11.4052C123.234 11.4023 123.674 11.4808 124.089 11.637C124.472 11.7797 124.824 11.9979 125.123 12.2789C125.422 12.5587 125.66 12.8989 125.82 13.2773C125.995 13.6914 126.082 14.1377 126.077 14.5877C126.08 15.0243 125.999 15.4574 125.838 15.8625C125.684 16.24 125.452 16.5802 125.158 16.8609C124.859 17.1447 124.508 17.3659 124.124 17.5117C123.701 17.6722 123.251 17.7508 122.799 17.7435H121.73V21.5856H119.893V11.4052H122.79ZM121.73 13.4021V15.7466H123.064C123.217 15.751 123.369 15.7249 123.511 15.6698C123.654 15.6148 123.784 15.5318 123.895 15.4257C124.007 15.3188 124.096 15.1886 124.154 15.0439C124.212 14.8992 124.238 14.7436 124.23 14.5877C124.235 14.4337 124.21 14.2803 124.155 14.1364C124.1 13.9925 124.018 13.8611 123.912 13.7498C123.799 13.6297 123.662 13.5363 123.509 13.4762C123.356 13.4161 123.192 13.3908 123.029 13.4021H121.73Z" fill="#1B2AC9"/>
<path d="M127.579 11.4052H133.145V13.4198H129.417V15.3454H132.721V17.3601H129.417V19.5709H133.145V21.5856H127.579V11.4052Z" fill="#1B2AC9"/>
<path d="M135.159 11.4052H138.154C138.531 11.407 138.907 11.4672 139.267 11.5834C139.623 11.6983 139.953 11.8831 140.238 12.1272C140.534 12.3843 140.769 12.7039 140.927 13.0633C141.114 13.4771 141.204 13.9283 141.193 14.3826C141.203 14.9948 141.034 15.5966 140.707 16.112C140.374 16.6098 139.886 16.9803 139.32 17.1639L141.643 21.6212H139.576L137.359 17.3957H136.996V21.6212H135.159V11.4052ZM137.005 13.402V15.488H138.313C138.448 15.4938 138.584 15.4724 138.711 15.425C138.839 15.3775 138.955 15.305 139.055 15.2117C139.152 15.1121 139.228 14.9935 139.278 14.8632C139.328 14.7329 139.351 14.5936 139.346 14.4539C139.35 14.3165 139.328 14.1795 139.279 14.051C139.23 13.9225 139.157 13.8049 139.064 13.7051C138.966 13.6054 138.848 13.527 138.719 13.4749C138.59 13.4228 138.452 13.398 138.313 13.402H137.005Z" fill="#1B2AC9"/>
<path d="M142.226 11.4052H150V13.3931H146.996V21.5856H145.159V13.3931H142.226V11.4052Z" fill="#1B2AC9"/>
<defs>
<linearGradient id="paint0_linear_1402_2363" x1="-0.00050477" y1="16.4955" x2="90.768" y2="16.4955" gradientUnits="userSpaceOnUse">
<stop stop-color="#0073F0"/>
<stop offset="1" stop-color="#1B2AC9"/>
</linearGradient>
</defs>
</svg>
