<svg width="40" height="56" viewBox="0 0 40 56" fill="none" xmlns="http://www.w3.org/2000/svg">
<path fill-rule="evenodd" clip-rule="evenodd" d="M40 20.1209C40 24.7081 38.4429 28.9315 35.8283 32.2916L20.2041 55.6982L4.95459 32.8531C2.06763 29.4079 0.329468 24.9674 0.329468 20.1209C0.329468 9.16619 9.21002 0.285645 20.1647 0.285645C31.1194 0.285645 40 9.16619 40 20.1209ZM20.2041 29.1732C25.3989 29.1732 29.6101 24.962 29.6101 19.7672C29.6101 14.5724 25.3989 10.3612 20.2041 10.3612C15.0093 10.3612 10.7981 14.5724 10.7981 19.7672C10.7981 24.962 15.0093 29.1732 20.2041 29.1732Z" fill="url(#paint0_linear_621_2394)"/>
<defs>
<linearGradient id="paint0_linear_621_2394" x1="40.6048" y1="38.9001" x2="-0.698123" y2="37.9731" gradientUnits="userSpaceOnUse">
<stop stop-color="#1B2AC9"/>
<stop offset="1" stop-color="#0073F0"/>
</linearGradient>
</defs>
</svg>
