<svg width="211" height="300" viewBox="0 0 211 300" fill="none" xmlns="http://www.w3.org/2000/svg">
<path d="M94.6384 67.1214C86.7896 67.1214 79.5445 68.2128 72.9032 70.3956C66.2619 72.5784 60.2244 75.4434 54.7906 78.9904C49.3568 82.5375 44.3759 86.6303 39.8477 91.2687C35.6215 95.9072 31.848 100.819 28.5273 106.003L0 61.8008C2.41501 53.3424 6.49035 45.4297 12.226 38.0628C18.2635 30.4229 25.5086 23.8745 33.9611 18.4175C42.7156 12.6876 52.6775 8.18554 63.8469 4.91134C75.0164 1.63711 87.0914 0 100.072 0C116.977 0 131.92 2.31924 144.901 6.95772C157.882 11.5962 168.749 18.0082 177.504 26.1937C186.258 34.3793 192.899 43.9291 197.427 54.8431C201.956 65.7572 204.22 77.4898 204.22 90.0409C204.22 100.682 202.861 110.505 200.144 119.509C197.427 128.24 193.352 136.835 187.918 145.293C182.786 153.752 176.296 162.347 168.447 171.078C160.598 179.809 151.542 189.359 141.278 199.727L108.676 232.879H210.559V300H2.26407V248.022L95.0912 156.753C101.732 150.205 107.468 144.475 112.298 139.563C117.128 134.652 121.053 130.014 124.071 125.648C127.392 121.01 129.807 116.644 131.316 112.551C133.128 108.186 134.033 103.411 134.033 98.2265C134.033 89.4952 130.411 82.1282 123.166 76.1255C116.223 70.1228 106.713 67.1214 94.6384 67.1214Z" fill="#F4F6F6"/>
</svg>
