<svg width="210" height="300" viewBox="0 0 210 300" fill="none" xmlns="http://www.w3.org/2000/svg">
<path d="M94.3392 232.879C108.38 232.879 119.643 229.741 128.126 223.465C136.902 217.19 141.289 208.731 141.289 198.09C141.289 188.54 137.34 181.037 129.442 175.58C121.837 169.85 111.452 166.985 98.2883 166.985C89.2201 166.985 81.3219 167.94 74.5938 169.85C68.1583 171.76 63.3316 173.806 60.1139 175.989L49.1442 130.15L103.115 67.1214H16.2351V0H192.189V47.8854L138.657 109.277C146.262 110.914 154.161 113.779 162.351 117.872C170.834 121.692 178.586 127.149 185.607 134.243C192.628 141.064 198.332 149.795 202.72 160.437C207.4 171.078 209.74 183.902 209.74 198.909C209.74 212.824 206.961 225.921 201.403 238.199C196.138 250.477 188.386 261.255 178.148 270.532C168.202 279.536 156.062 286.767 141.728 292.224C127.687 297.408 111.891 300 94.3392 300C81.1756 300 69.3284 298.636 58.7975 295.907C48.2666 293.179 39.0521 289.632 31.1539 285.266C23.2557 280.628 16.6739 275.58 11.4085 270.123C6.14302 264.666 2.3402 259.072 0 253.342L15.7963 199.318C24.2796 208.868 34.6642 216.917 46.9502 223.465C59.2363 229.741 75.0326 232.879 94.3392 232.879Z" fill="#F4F6F6"/>
</svg>
