<svg width="24" height="24" viewBox="0 0 24 24" fill="none" xmlns="http://www.w3.org/2000/svg">
<path d="M5 4.17224H9L11 8.98038L8.5 10.4228C9.57096 12.511 11.3285 14.2011 13.5 15.231L15 12.8269L20 14.7501V18.5967C20 19.1067 19.7893 19.5959 19.4142 19.9566C19.0391 20.3173 18.5304 20.5199 18 20.5199C14.0993 20.292 10.4202 18.6991 7.65683 16.0418C4.8935 13.3845 3.23705 9.84655 3 6.0955C3 5.58542 3.21071 5.09623 3.58579 4.73555C3.96086 4.37487 4.46957 4.17224 5 4.17224" stroke="#1B2AC9" stroke-linecap="round" stroke-linejoin="round"/>
<path d="M15 7.05713C15.5304 7.05713 16.0391 7.25976 16.4142 7.62044C16.7893 7.98112 17 8.47031 17 8.98038" stroke="#1B2AC9" stroke-linecap="round" stroke-linejoin="round"/>
<path d="M15 3.21057C16.5913 3.21057 18.1174 3.81846 19.2426 4.9005C20.3679 5.98254 21 7.4501 21 8.98034" stroke="#1B2AC9" stroke-linecap="round" stroke-linejoin="round"/>
</svg>
