<svg width="16" height="16" viewBox="0 0 16 16" fill="none" xmlns="http://www.w3.org/2000/svg">
<path d="M13.6302 13.037L13.6306 13.0375C13.6697 13.0762 13.7007 13.1223 13.7218 13.1731C13.743 13.2239 13.7539 13.2783 13.7539 13.3333C13.7539 13.3883 13.743 13.4428 13.7218 13.4936C13.7007 13.5443 13.6697 13.5904 13.6306 13.6292L13.6292 13.6306C13.5904 13.6697 13.5443 13.7007 13.4936 13.7218C13.4428 13.743 13.3883 13.7539 13.3333 13.7539C13.2783 13.7539 13.2239 13.743 13.1731 13.7218C13.1223 13.7007 13.0762 13.6697 13.0375 13.6306L13.037 13.6302L10.777 11.3635L10.6203 11.2063L10.4456 11.3433C9.55806 12.04 8.462 12.4181 7.33365 12.4167H7.33334C6.32795 12.4167 5.34514 12.1185 4.50919 11.56C3.67324 11.0014 3.02169 10.2075 2.63695 9.27864C2.2522 8.34979 2.15154 7.3277 2.34768 6.34163C2.54382 5.35556 3.02796 4.44979 3.73888 3.73888C4.44979 3.02796 5.35556 2.54382 6.34163 2.34768C7.3277 2.15154 8.34979 2.2522 9.27864 2.63695C10.2075 3.02169 11.0014 3.67324 11.56 4.50919C12.1185 5.34514 12.4167 6.32795 12.4167 7.33334V7.33365C12.4181 8.462 12.04 9.55806 11.3433 10.4456L11.2063 10.6203L11.3635 10.777L13.6302 13.037ZM3.79959 4.97216C3.33259 5.67107 3.08334 6.49277 3.08334 7.33334C3.08334 8.46051 3.5311 9.54151 4.32813 10.3385C5.12516 11.1356 6.20617 11.5833 7.33334 11.5833C8.17391 11.5833 8.9956 11.3341 9.69451 10.8671C10.3934 10.4001 10.9382 9.73633 11.2598 8.95974C11.5815 8.18315 11.6657 7.32862 11.5017 6.5042C11.3377 5.67978 10.9329 4.92251 10.3385 4.32813C9.74417 3.73376 8.98689 3.32899 8.16247 3.165C7.33805 3.00101 6.48352 3.08518 5.70693 3.40685C4.93035 3.72852 4.26659 4.27325 3.79959 4.97216Z" fill="#1B2AC9" stroke="#1B2AC9" stroke-width="0.5"/>
</svg>
