<svg width="24" height="24" viewBox="0 0 24 24" fill="none" xmlns="http://www.w3.org/2000/svg">
<path d="M9 5.13379H7C6.46957 5.13379 5.96086 5.33642 5.58579 5.6971C5.21071 6.05778 5 6.54697 5 7.05704V18.5966C5 19.1067 5.21071 19.5958 5.58579 19.9565C5.96086 20.3172 6.46957 20.5198 7 20.5198H17C17.5304 20.5198 18.0391 20.3172 18.4142 19.9565C18.7893 19.5958 19 19.1067 19 18.5966V7.05704C19 6.54697 18.7893 6.05778 18.4142 5.6971C18.0391 5.33642 17.5304 5.13379 17 5.13379H15" stroke="#1B2AC9" stroke-linecap="round" stroke-linejoin="round"/>
<path d="M13 3.21057H11C9.89543 3.21057 9 4.07164 9 5.13383C9 6.19601 9.89543 7.05708 11 7.05708H13C14.1046 7.05708 15 6.19601 15 5.13383C15 4.07164 14.1046 3.21057 13 3.21057Z" stroke="#1B2AC9" stroke-linecap="round" stroke-linejoin="round"/>
<path d="M9 13.7885L11 15.7117L15 11.8652" stroke="#1B2AC9" stroke-linecap="round" stroke-linejoin="round"/>
</svg>
