<svg width="24" height="24" viewBox="0 0 24 24" fill="none" xmlns="http://www.w3.org/2000/svg">
<path d="M9 11.7373L11 13.6605L15 9.81403" stroke="#1B2AC9" stroke-linecap="round" stroke-linejoin="round"/>
<path d="M12 3.08264C14.3358 5.06992 17.3845 6.10462 20.5 5.96753C20.9536 7.45133 21.0924 9.00768 20.9081 10.5441C20.7239 12.0805 20.2203 13.5656 19.4274 14.9112C18.6345 16.2567 17.5684 17.4353 16.2924 18.3768C15.0165 19.3184 13.5568 20.0036 12 20.3919C10.4432 20.0036 8.98347 19.3184 7.70753 18.3768C6.4316 17.4353 5.3655 16.2567 4.57258 14.9112C3.77967 13.5656 3.27612 12.0805 3.09186 10.5441C2.9076 9.00768 3.04639 7.45133 3.49999 5.96753C6.61552 6.10462 9.66416 5.06992 12 3.08264" stroke="#1B2AC9" stroke-linecap="round" stroke-linejoin="round"/>
</svg>
