<svg width="30" height="24" viewBox="0 0 30 24" fill="none" xmlns="http://www.w3.org/2000/svg">
<g opacity="0.15">
<mask id="path-1-inside-1_325_895" fill="white">
<path fill-rule="evenodd" clip-rule="evenodd" d="M6 0H0V6H6V24H14.64L18 18H12V6L24 6V24H30V0H12V6H6V0Z"/>
</mask>
<path fill-rule="evenodd" clip-rule="evenodd" d="M6 0H0V6H6V24H14.64L18 18H12V6L24 6V24H30V0H12V6H6V0Z" fill="#151515"/>
<path d="M0 0V-1H-1V0H0ZM6 0H7V-1H6V0ZM0 6H-1V7H0V6ZM6 24H5V25H6V24ZM14.64 24V25H15.2261L15.5125 24.4886L14.64 24ZM18 18L18.8725 18.4886L19.7061 17H18V18ZM12 18H11V19H12V18ZM24 6H25V5L24 5L24 6ZM24 24H23V25H24V24ZM30 24V25H31V24H30ZM30 0H31V-1H30V0ZM12 0V-1H11V0H12ZM0 1H6V-1H0V1ZM1 6V0H-1V6H1ZM6 5H0V7H6V5ZM5 6V24H7V6H5ZM6 25H14.64V23H6V25ZM15.5125 24.4886L18.8725 18.4886L17.1275 17.5114L13.7675 23.5114L15.5125 24.4886ZM18 17H12V19H18V17ZM13 18V6H11V18H13ZM12 7L24 7L24 5L12 5L12 7ZM23 6V24H25V6H23ZM24 25H30V23H24V25ZM31 24V0H29V24H31ZM30 -1H12V1H30V-1ZM11 0V6H13V0H11ZM12 5H6V7H12V5ZM5 0V6H7V0H5Z" fill="black" mask="url(#path-1-inside-1_325_895)"/>
</g>
</svg>
