<svg width="46" height="46" viewBox="0 0 46 46" fill="none" xmlns="http://www.w3.org/2000/svg">
<circle cx="23" cy="23" r="23" fill="url(#paint0_linear_621_1327)"/>
<path fill-rule="evenodd" clip-rule="evenodd" d="M30.3633 14.6192C30.2562 14.6477 28.2499 15.4088 25.9047 16.3106C23.5595 17.2123 19.5292 18.7619 16.9484 19.7542C14.3677 20.7464 12.1587 21.6061 12.0396 21.6646C11.8029 21.7808 11.5519 22.0251 11.513 22.1772C11.4485 22.4292 11.6294 22.75 11.9493 22.9512C12.1652 23.0869 16.4954 24.5386 16.6049 24.512C16.6408 24.5032 19.2148 22.912 22.3249 20.9759C25.435 19.0398 28.0282 17.4391 28.0877 17.4188C28.238 17.3675 28.4394 17.3937 28.4888 17.471C28.5998 17.6449 28.8078 17.4536 21.6901 23.724C19.4917 25.6606 19.3331 25.8087 19.3943 25.8665C19.4305 25.9006 21.0722 27.1371 23.0426 28.6143C25.7176 30.6198 26.6744 31.3168 26.8198 31.3663C27.1026 31.4625 27.4384 31.4542 27.6765 31.345C27.8606 31.2606 28.144 31.0021 28.2348 30.8357C28.2789 30.7551 31.4348 15.2065 31.4333 15.0774C31.4315 14.9165 31.2905 14.6912 31.1509 14.6262C30.9855 14.5493 30.6376 14.5462 30.3633 14.6192Z" fill="#F2F3F7"/>
<defs>
<linearGradient id="paint0_linear_621_1327" x1="23" y1="0" x2="23" y2="46" gradientUnits="userSpaceOnUse">
<stop stop-color="#0073F0"/>
<stop offset="1" stop-color="#1B2AC9"/>
</linearGradient>
</defs>
</svg>
