<svg width="24" height="20" viewBox="0 0 24 20" fill="none" xmlns="http://www.w3.org/2000/svg">
<path fill-rule="evenodd" clip-rule="evenodd" d="M22.8394 0.710517C22.5463 0.768224 1.10716 8.44033 0.661897 8.64684C-0.0724297 8.98742 -0.206459 9.49442 0.313532 9.96492C0.563074 10.1907 0.776049 10.2673 3.45519 11.0938L6.14844 11.9248L12.4663 8.25194C20.1708 3.77308 19.8232 3.97246 20.0408 3.9069C20.4507 3.78346 20.5912 4.00957 20.2962 4.31806C20.2124 4.40567 17.7326 6.46468 14.7856 8.89363C11.8386 11.3226 9.43364 13.3261 9.44128 13.3458C9.4853 13.4594 18.2412 19.5278 18.4561 19.5937C19.1265 19.7992 19.8637 19.5409 20.159 18.9969C20.3094 18.7199 24.0295 1.47427 23.9998 1.1917C23.9528 0.744111 23.5394 0.572663 22.8394 0.710517Z" fill="#F2F3F7"/>
</svg>
