<svg width="46" height="46" viewBox="0 0 46 46" fill="none" xmlns="http://www.w3.org/2000/svg">
<circle cx="23" cy="23" r="23" fill="white"/>
<path fill-rule="evenodd" clip-rule="evenodd" d="M32.8394 14.0465C32.5463 14.1042 11.1072 21.7763 10.6619 21.9828C9.92757 22.3234 9.79354 22.8304 10.3135 23.3009C10.5631 23.5267 10.776 23.6032 13.4552 24.4298L16.1484 25.2607L22.4663 21.5879C30.1708 17.109 29.8232 17.3084 30.0408 17.2428C30.4507 17.1194 30.5912 17.3455 30.2962 17.654C30.2124 17.7416 27.7326 19.8006 24.7856 22.2296C21.8386 24.6585 19.4336 26.662 19.4413 26.6817C19.4853 26.7953 28.2412 32.8637 28.4561 32.9296C29.1265 33.1352 29.8637 32.8768 30.159 32.3328C30.3094 32.0558 34.0295 14.8102 33.9998 14.5276C33.9528 14.08 33.5394 13.9086 32.8394 14.0465Z" fill="#1B2AC9"/>
</svg>
