<svg width="39" height="116" viewBox="0 0 39 116" fill="none" xmlns="http://www.w3.org/2000/svg">
<path d="M12.3999 75.7C13.3999 75.8 14.2999 75.1 14.3999 74C14.5999 72.6 13.2999 71.4 11.9999 71.8C11.4999 71.9 11.0999 72.2 10.8999 72.6C10.4999 73.3 10.4999 74.2 10.9999 74.9C11.3999 75.4 11.7999 75.6 12.3999 75.7Z" fill="url(#paint0_linear_1934_17297)"/>
<path d="M10.5002 80.1C9.70022 80.3 9.10022 81 9.00022 81.7C8.80022 82.9 9.80022 84 11.0002 84C11.6002 84 12.0002 83.7 12.4002 83.2C12.9002 82.6 12.9002 81.6 12.5002 80.9C12.1002 80.3 11.3002 79.9 10.5002 80.1Z" fill="url(#paint1_linear_1934_17297)"/>
<path d="M13.2002 71C13.3002 71 13.6002 71.1 13.7002 71.2C13.9002 71.3 14.0002 71.3 14.2002 71.3C15.3002 71.2 16.0002 70.4 16.0002 69.3C16.0002 68.3 15.2002 67.4 14.2002 67.3C14.1002 67.3 13.9002 67.3 13.8002 67.3C13.3002 67.4 12.9002 67.5 12.6002 67.9C12.3002 68.2 12.1002 68.6 12.0002 69.1C11.9002 69.5 12.0002 69.8 12.2002 70.2C12.6002 70.7 12.9002 70.9 13.2002 71Z" fill="url(#paint2_linear_1934_17297)"/>
<path d="M19.1001 70.7C18.9001 71 18.8001 71.3 18.9001 71.8C18.9001 72.3 19.1001 72.6 19.3001 72.9C19.5001 73.2 19.7001 73.3 19.9001 73.3C20.1001 73.3 20.5001 73.4 20.8001 73.5C21.1001 73.6 21.2001 73.6 21.7001 73.4C22.6001 73 23.0001 72 22.7001 71C22.5001 70.3 21.9001 69.8 21.1001 69.7C20.8001 69.7 20.8001 69.7 20.4001 69.7C19.9001 69.9 19.3001 70.3 19.1001 70.7Z" fill="url(#paint3_linear_1934_17297)"/>
<path d="M15.7002 71.6C15.6002 71.7 15.4002 71.8 15.2002 71.9C15.1002 72 14.9002 72.1 14.9002 72.1C14.8002 72.2 14.8002 72.2 15.0002 72.5C15.2002 72.9 15.3002 73.3 15.3002 73.8V74.2H15.7002C16.4002 74.2 17.0002 74.4 17.4002 74.8C17.5002 74.9 17.6002 75 17.6002 75C17.7002 75 18.1002 74.5 18.2002 74.4C18.4002 73.9 18.5002 73.4 18.3002 73.1C18.2002 73 18.2002 72.8 18.1002 72.6C18.0002 72.2 17.6002 71.8 17.0002 71.6C16.7002 71.5 16.2002 71.5 16.0002 71.6C16.0002 71.4 15.8002 71.5 15.7002 71.6Z" fill="url(#paint4_linear_1934_17297)"/>
<path d="M16.8002 70C16.7002 70.2 16.7002 70.3 16.8002 70.4C16.9002 70.5 16.9002 70.6 17.1002 70.6C17.5002 70.7 17.7002 70.8 17.9002 70.9C18.1002 71.1 18.2002 71.1 18.2002 70.9C18.2002 70.8 18.5002 70.2 18.7002 69.9C19.0002 69.5 19.7002 69.1 20.2002 68.9C20.4002 68.9 20.4002 68.9 20.4002 68.7C20.3002 68.2 19.9002 67.7 19.4002 67.4C19.2002 67.3 19.0002 67.2 18.8002 67.2C18.5002 67.2 18.5002 67.2 18.2002 67.2C17.7002 67.3 17.2002 67.6 16.9002 68L16.7002 68.2L16.8002 68.5C16.8002 69 16.8002 69.7 16.8002 70Z" fill="url(#paint5_linear_1934_17297)"/>
<path d="M13.6998 78.3C13.5998 77.5 13.0998 76.8 12.2998 76.6C12.0998 76.5 11.4998 76.5 11.1998 76.6C10.2998 76.9 9.7998 77.6 9.7998 78.5C9.7998 78.8 9.8998 79.2 9.9998 79.4C10.0998 79.5 10.0998 79.5 10.2998 79.4C10.8998 79.2 11.7998 79.4 12.2998 79.7C12.4998 79.8 12.4998 79.8 12.4998 79.8C12.4998 79.7 12.9998 79.2 13.2998 79C13.6998 78.7 13.6998 78.6 13.6998 78.3Z" fill="url(#paint6_linear_1934_17297)"/>
<path d="M24.8998 73.1C24.5998 72.8 24.3998 72.7 23.9998 72.6C23.4998 72.5 23.4998 72.5 23.2998 72.9C23.1998 73.1 22.9998 73.4 22.8998 73.5C22.6998 73.8 22.1998 74.2 21.8998 74.3C21.7998 74.3 21.7998 74.4 21.7998 74.4C21.7998 74.4 21.8998 74.5 21.8998 74.6C22.0998 74.8 22.1998 75.3 22.2998 75.6V75.8H22.6998C22.8998 75.8 23.1998 75.8 23.2998 75.9C23.4998 76 23.9998 76.2 24.2998 76.3C24.3998 76.4 24.3998 76.4 24.4998 76.3C24.6998 76.2 25.0998 75.8 25.1998 75.5C25.3998 75 25.4998 74.5 25.3998 74C25.2998 73.6 25.0998 73.3 24.8998 73.1Z" fill="url(#paint7_linear_1934_17297)"/>
<path d="M23.3001 76.6C23.0001 76.5 22.4001 76.5 22.4001 76.6C22.4001 76.6 22.3001 76.8 22.3001 76.9C22.2001 77.3 21.9001 77.7 21.6001 78.1C21.4001 78.3 21.3001 78.4 21.2001 78.5L21.1001 78.6L21.3001 79C21.5001 79.4 21.6001 79.8 21.6001 80C21.6001 80.2 21.7001 80.3 22.0001 80.5C23.2001 81 24.5001 80.2 24.7001 79C24.8001 77.8 24.2001 76.9 23.3001 76.6Z" fill="url(#paint8_linear_1934_17297)"/>
<path d="M27.3 68C27.1 67.9 26.8 67.9 26.7 67.9C26.5 67.9 26.4 67.9 26.4 67.8C26.4 67.8 26.5 67.6 26.6 67.4C27.3 66.3 27.7 65.1 27.8 63.7C27.8 63.4 27.8 63.1 27.8 63.1C27.8 63 27.8 63 27.4 63C27.1 63 27 63 27 63.1C27 63.1 27 63.4 27 63.6C26.9 65 26.4 66.3 25.6 67.4C24.7 68.5 23.5 69.2 22.3 69.4H22V69.8V70.2H22.2C22.3 70.2 22.6 70.2 22.8 70.1C23.7 69.9 24.6 69.5 25.3 68.9C25.4 68.8 25.5 68.7 25.5 68.7C25.5 68.7 25.5 68.9 25.6 69C25.8 70.3 26.7 71.7 27.8 72.4C28.6 72.9 29.4 73.2 30.4 73.2H31V72.8C31 70.6 29.5 68.6 27.3 68Z" fill="url(#paint9_linear_1934_17297)"/>
<path d="M21.5 75.5C21.4 75 21 74.6 20.6 74.3C20.2 74.1 19.6 74 19.2 74.1C19.1 74.1 19.1 74.2 18.9 74.4C18.7 74.8 18.5 75.1 18.2 75.3L18 75.4L18.1 75.6C18.3 76 18.3 76.3 18.3 76.7V77.1H18.6C19.1 77.1 19.7 77.2 20.2 77.5L20.4 77.6L20.6 77.5C21 77.2 21.3 76.8 21.4 76.4C21.6 76.3 21.6 75.8 21.5 75.5Z" fill="url(#paint10_linear_1934_17297)"/>
<path d="M15.4001 79.3C15.2001 79.2 14.6001 79.2 14.4001 79.3C14.0001 79.4 13.4001 79.8 13.2001 80.2L13.1001 80.4L13.2001 80.6C13.5001 81.1 13.7001 81.8 13.6001 82.5C13.5001 82.9 13.5001 82.9 14.0001 83.1C14.7001 83.5 15.7001 83.3 16.3001 82.7C17.3001 81.5 16.8001 79.8 15.4001 79.3Z" fill="url(#paint11_linear_1934_17297)"/>
<path d="M17.5999 77C17.5999 76.5 17.3999 75.9 16.9999 75.5C16.6999 75.2 16.3999 75 15.9999 75C15.5999 74.9 15.3999 74.9 15.0999 75C14.9999 75 14.8999 75 14.7999 75.2C14.5999 75.5 14.2999 75.8 13.9999 76C13.6999 76.2 13.5999 76.5001 13.8999 76.8001C14.1999 77.2001 14.3999 77.7 14.4999 78.2V78.5H14.8999C15.2999 78.5 15.6999 78.6 15.9999 78.7C16.1999 78.8 16.3999 78.8 16.5999 78.5C16.6999 78.3 17.0999 77.9 17.3999 77.7C17.4999 77.6 17.5999 77.4 17.5999 77Z" fill="url(#paint12_linear_1934_17297)"/>
<path d="M19.3999 78.2C19.0999 78.1 18.6999 78.1 18.3999 78.1C18.0999 78.2 17.6999 78.4 17.3999 78.6C17.1999 78.8 16.8999 79.2 16.8999 79.4C16.8999 79.4 16.9999 79.6 16.9999 79.7C17.2999 80.2 17.4999 80.7 17.4999 81.3V81.7L17.6999 81.8C17.9999 82 18.2999 82 18.5999 82C19.0999 82 19.4999 81.8 19.8999 81.5C20.4999 80.9 20.6999 80 20.2999 79.1C20.2999 78.7 19.7999 78.3 19.3999 78.2Z" fill="url(#paint13_linear_1934_17297)"/>
<path d="M38 45.8C37.9 45.4 37.4 43 34.2 39.1C31.4 35.8 29.1 34.3 27.5 33.6V8.6L28.5 8V6.9C28.5 6.8 28.5 6.6 28.5 6.3C28.7 4.1 28.7 2.9 28.3 2.1C27.7 0.9 26.2 0.3 25.6 0.1L25.3 0H13.2L12.8 0.2C12.5 0.4 11.3 1 10.6 1.8C9.6 2.9 9.8 5.4 10.1 7.2C10.2 7.8 10.5 8.2 10.8 8.5V33.7C9.3 34.4 6.9 35.9 4.1 39C0.6 42.8 0.1 45.3 0 45.7V108.5L0.1 108.8C0.2 109.2 1.1 111.4 2.4 112.6C3.7 113.8 6 114.6 6.5 114.7L6.8 114.8C6.8 114.8 14.2126 116.008 19 116C23.7097 115.992 31 114.8 31 114.8L31.3 114.7C31.6 114.6 33.8 113.8 35.3 112.6C36.8 111.4 37.7 109.2 37.9 108.8L38.1 108.4V46.1L38 45.8ZM34 107.8C33.7 108.4 33.2 109.3 32.7 109.7C32.1 110.2 31 110.7 30.3 111C30.3 111 23.4516 111.99 19 112C14.4709 112.01 7.5 111 7.5 111C6.7 110.7 5.6 110.2 5.1 109.8C4.7 109.4 4.2 108.5 4 107.9V46.4C4.1 46 4.8 44.3 7.1 41.8C10.7 37.8 13.3 37.1 13.3 37.1L14.9 36.8V7.5V6.1L14.1 5.8C14 5.2 14 4.6 14 4.2C13.9 4.1 14 4.1 14.2 4H24.7C24.7 4.5 24.7 5.2 24.6 5.7L23.5 6.4V35.2L23.4 37L25.2 37.2C25.2 37.2 27.6 37.7 31.1 41.8C33.3 44.4 33.9 46.1 34 46.4V107.8Z" fill="url(#paint14_linear_1934_17297)"/>
<defs>
<linearGradient id="paint0_linear_1934_17297" x1="14.2987" y1="73.6817" x2="10.7206" y2="73.716" gradientUnits="userSpaceOnUse">
<stop stop-color="#1B2AC9"/>
<stop offset="1" stop-color="#0073F0"/>
</linearGradient>
<linearGradient id="paint1_linear_1934_17297" x1="12.7206" y1="82.0137" x2="9.14372" y2="82.0481" gradientUnits="userSpaceOnUse">
<stop stop-color="#1B2AC9"/>
<stop offset="1" stop-color="#0073F0"/>
</linearGradient>
<linearGradient id="paint2_linear_1934_17297" x1="15.866" y1="69.3243" x2="12.2829" y2="69.3587" gradientUnits="userSpaceOnUse">
<stop stop-color="#1B2AC9"/>
<stop offset="1" stop-color="#0073F0"/>
</linearGradient>
<linearGradient id="paint3_linear_1934_17297" x1="22.5501" y1="71.6811" x2="18.9805" y2="71.7153" gradientUnits="userSpaceOnUse">
<stop stop-color="#1B2AC9"/>
<stop offset="1" stop-color="#0073F0"/>
</linearGradient>
<linearGradient id="paint4_linear_1934_17297" x1="18.2362" y1="73.1029" x2="15.0036" y2="73.134" gradientUnits="userSpaceOnUse">
<stop stop-color="#1B2AC9"/>
<stop offset="1" stop-color="#0073F0"/>
</linearGradient>
<linearGradient id="paint5_linear_1934_17297" x1="20.1628" y1="69.1756" x2="16.8259" y2="69.2077" gradientUnits="userSpaceOnUse">
<stop stop-color="#1B2AC9"/>
<stop offset="1" stop-color="#0073F0"/>
</linearGradient>
<linearGradient id="paint6_linear_1934_17297" x1="13.5212" y1="78.1153" x2="9.93" y2="78.1497" gradientUnits="userSpaceOnUse">
<stop stop-color="#1B2AC9"/>
<stop offset="1" stop-color="#0073F0"/>
</linearGradient>
<linearGradient id="paint7_linear_1934_17297" x1="25.3185" y1="74.3544" x2="21.8938" y2="74.3873" gradientUnits="userSpaceOnUse">
<stop stop-color="#1B2AC9"/>
<stop offset="1" stop-color="#0073F0"/>
</linearGradient>
<linearGradient id="paint8_linear_1934_17297" x1="24.5297" y1="78.4513" x2="21.1966" y2="78.4833" gradientUnits="userSpaceOnUse">
<stop stop-color="#1B2AC9"/>
<stop offset="1" stop-color="#0073F0"/>
</linearGradient>
<linearGradient id="paint9_linear_1934_17297" x1="30.5427" y1="68.1366" x2="22.2842" y2="68.2159" gradientUnits="userSpaceOnUse">
<stop stop-color="#1B2AC9"/>
<stop offset="1" stop-color="#0073F0"/>
</linearGradient>
<linearGradient id="paint10_linear_1934_17297" x1="21.3835" y1="75.9689" x2="18.2179" y2="75.9993" gradientUnits="userSpaceOnUse">
<stop stop-color="#1B2AC9"/>
<stop offset="1" stop-color="#0073F0"/>
</linearGradient>
<linearGradient id="paint11_linear_1934_17297" x1="16.6614" y1="81.2321" x2="13.2851" y2="81.2645" gradientUnits="userSpaceOnUse">
<stop stop-color="#1B2AC9"/>
<stop offset="1" stop-color="#0073F0"/>
</linearGradient>
<linearGradient id="paint12_linear_1934_17297" x1="17.4462" y1="76.8202" x2="13.9066" y2="76.8541" gradientUnits="userSpaceOnUse">
<stop stop-color="#1B2AC9"/>
<stop offset="1" stop-color="#0073F0"/>
</linearGradient>
<linearGradient id="paint13_linear_1934_17297" x1="20.5945" y1="80.0312" x2="17.1294" y2="80.0644" gradientUnits="userSpaceOnUse">
<stop stop-color="#1B2AC9"/>
<stop offset="1" stop-color="#0073F0"/>
</linearGradient>
<linearGradient id="paint14_linear_1934_17297" x1="36.3448" y1="57.3628" x2="0.9332" y2="57.7029" gradientUnits="userSpaceOnUse">
<stop stop-color="#1B2AC9"/>
<stop offset="1" stop-color="#0073F0"/>
</linearGradient>
</defs>
</svg>
