<svg width="46" height="46" viewBox="0 0 46 46" fill="none" xmlns="http://www.w3.org/2000/svg">
<circle cx="23" cy="23" r="23" fill="url(#paint0_linear_621_1311)"/>
<path fill-rule="evenodd" clip-rule="evenodd" d="M18.3365 24.6617C16.6239 22.9956 15.5586 20.2509 15.2625 16.7418L15.157 15.4922H13.0813C11.9395 15.4922 10.975 15.5226 10.9377 15.56C10.7993 15.6985 11.118 18.8893 11.3973 20.16C12.8402 26.7258 17.0683 30.5278 23.3376 30.8968L24.8901 30.9881V28.2319V25.4757L25.4581 25.5729C26.3008 25.717 27.8364 26.4616 28.6337 27.1128C29.3854 27.7266 30.6644 29.5502 30.9498 30.4153L31.1238 30.9425H33.3274H35.5308L35.4325 30.4502C35.2917 29.745 34.557 28.2305 33.858 27.2045C33.082 26.0657 31.7421 24.7491 30.4692 23.8748L29.4593 23.181L30.3935 22.4347C32.1408 21.0387 33.6343 18.9646 34.2709 17.0496C34.5235 16.29 34.6761 15.8965 34.5414 15.6978C34.3845 15.4665 33.838 15.4993 32.606 15.5257L30.6276 15.5679L30.2105 16.5574C29.66 17.8629 28.712 19.239 27.8136 20.0372C27.1278 20.6462 25.4942 21.5507 25.0795 21.551C24.9344 21.5511 24.8901 20.8444 24.8901 18.5217V15.4922H22.8453H20.8005V20.8039V26.1158L20.4597 26.0142C19.8715 25.8386 18.9295 25.2386 18.3365 24.6617Z" fill="#F2F3F7"/>
<defs>
<linearGradient id="paint0_linear_621_1311" x1="23" y1="0" x2="23" y2="46" gradientUnits="userSpaceOnUse">
<stop stop-color="#0073F0"/>
<stop offset="1" stop-color="#1B2AC9"/>
</linearGradient>
</defs>
</svg>
