<svg width="71" height="130" viewBox="0 0 71 130" fill="none" xmlns="http://www.w3.org/2000/svg">
<path d="M70.0001 49.4C70.0001 41 68.6001 39.2 64.8001 35L64.7001 34.9C61.5001 31.5 46.8001 18 43.4001 15V2.8C43.4001 1.8 42.7001 1 41.8001 0.8C41.6001 0.8 37.5001 0 35.2001 0C32.9001 0 28.4001 0.8 28.2001 0.8C27.2001 1 26.5001 1.8 26.5001 2.8V15C23.2001 18 9.10009 31 4.80009 36.6C0.100087 42.7 0.900087 48.3 1.20009 49.7V111.7C1.20009 116.4 3.30009 121.3 6.70009 124.9C10.1001 128.4 28.3001 130 36.2001 130C36.5001 130 36.7001 130 36.9001 130C43.0001 129.9 61.4001 128.6 65.1001 123.9C67.5001 120.9 70.1001 116.7 70.0001 111C69.9001 107.6 70.0001 78.6 70.0001 61.3C70.0001 55.7 70.0001 51.4 70.0001 49.4ZM66.0001 61.3C66.0001 78.7 65.9001 107.7 66.0001 111.2C66.1001 114.6 64.9001 117.8 62.0001 121.5C60.3001 123.7 47.9001 126 36.9001 126.1C26.3001 126.3 11.4001 123.9 9.70009 122.2C8.60009 121.1 5.30009 117.2 5.30009 111.7V49.4C5.30009 49.3 5.20009 49.1 5.20009 48.9C5.10009 48.7 4.00009 44.2 8.00009 39C12.5001 33 29.7001 17.5 29.8001 17.3C30.3001 16.9 30.5001 16.4 30.5001 15.8V4.5C32.0001 4.3 34.0001 4 35.1001 4C36.2001 4 37.9001 4.2 39.3001 4.5V15.8C39.3001 16.4 39.6001 16.9 40.0001 17.3C40.2001 17.5 58.3001 33.9 61.7001 37.6L61.8001 37.7C65.1001 41.3 66.0001 42.2 66.0001 49.4C66.0001 51.4 66.0001 55.8 66.0001 61.3Z" fill="url(#paint0_linear_1934_17295)"/>
<path d="M32.4999 73.1C32.4999 73 30.9999 70.7 30.3999 70C29.9999 69.3 28.9999 68 28.9999 68C28.9999 68 28.7999 68.3 28.4999 68.6C25.4999 72.4 23.3999 76.2 22.9999 78.1C22.8999 78.6 22.9999 79.6 23.0999 80.2C23.4999 81.9 24.6999 83.4 26.1999 84.1C26.5999 84.3 27.4999 84.6 27.6999 84.6C27.7999 84.6 27.7999 84.5 27.7999 84C27.7999 82.4 28.2999 80.6 29.4999 78.3C30.1999 76.8 31.4999 74.7 32.2999 73.5C32.3999 73.3 32.4999 73.1 32.4999 73.1Z" fill="url(#paint1_linear_1934_17295)"/>
<path d="M42.2001 74C40.9001 72.1 38.7001 69.3 38.6001 69.3C38.6001 69.2 38.3001 69.6 37.9001 70C34.3001 74.5 31.4001 79.1 30.5001 81.9C30.2001 82.9 30.1001 83.3 30.1001 84.3C30.2001 86.3 31.0001 88.1 32.5001 89.6C33.7001 90.8 35.1001 91.6 36.9001 92C37.6001 92.2 39.5001 92.1 40.3001 92C43.6001 91.3 46.1001 88.9 46.8001 85.6C46.9001 85 47.0001 83.7 46.9001 83.2C46.5001 81.1 44.9001 77.9 42.2001 74ZM44.6001 84.6C44.4001 85.5 44.2001 86 43.8001 86.6C43.5001 87.1 43.2001 87.4 42.6001 87.7C42.1001 88 41.3001 88.2 40.9001 88.2C40.5001 88.2 40.0001 88.1 40.0001 88.1C40.0001 88.1 40.3001 87.7 40.8001 87.2C41.4001 86.6 41.8001 86.2 42.0001 85.9C42.8001 84.7 43.2001 83.3 43.2001 81.7C43.2001 81.3 43.2001 81 43.2001 81C43.2001 81.1 43.4001 81.3 43.6001 81.4C44.1001 81.9 44.6001 82.7 44.7001 83.5C44.7001 83.8 44.7001 84.2 44.6001 84.6Z" fill="url(#paint2_linear_1934_17295)"/>
<defs>
<linearGradient id="paint0_linear_1934_17295" x1="71.4282" y1="66.1349" x2="0.422983" y2="63.9089" gradientUnits="userSpaceOnUse">
<stop stop-color="#1B2AC9"/>
<stop offset="1" stop-color="#0073F0"/>
</linearGradient>
<linearGradient id="paint1_linear_1934_17295" x1="32.3956" y1="76.4269" x2="23.0348" y2="76.1334" gradientUnits="userSpaceOnUse">
<stop stop-color="#1B2AC9"/>
<stop offset="1" stop-color="#0073F0"/>
</linearGradient>
<linearGradient id="paint2_linear_1934_17295" x1="47.0346" y1="80.9732" x2="30.2148" y2="80.4458" gradientUnits="userSpaceOnUse">
<stop stop-color="#1B2AC9"/>
<stop offset="1" stop-color="#0073F0"/>
</linearGradient>
</defs>
</svg>
