<svg width="1920" height="1401" viewBox="0 0 1920 1401" fill="none" xmlns="http://www.w3.org/2000/svg">
<path d="M2090.8 207.534L1767.3 30.6266C1739.14 15.183 1708.21 5.44168 1676.28 1.95967C1644.34 -1.52234 1612.04 1.32337 1581.2 10.3339C1550.37 19.3445 1521.61 34.3433 1496.58 54.4723C1471.55 74.6014 1450.73 99.4658 1435.31 127.644L1310.13 355.739C1305 365.152 1298.06 373.461 1289.71 380.186C1281.37 386.912 1271.77 391.922 1261.48 394.929C1251.19 397.937 1240.4 398.882 1229.75 397.71C1219.09 396.538 1208.77 393.273 1199.38 388.102L971.073 263.309C942.911 247.865 911.979 238.124 880.047 234.642C848.114 231.16 815.807 234.005 784.973 243.016C754.139 252.026 725.383 267.025 700.35 287.154C675.317 307.283 654.498 332.148 639.084 360.326L513.899 588.42C508.771 597.834 501.834 606.142 493.485 612.868C485.136 619.594 475.541 624.604 465.25 627.611C454.959 630.619 444.176 631.564 433.519 630.392C422.863 629.22 412.543 625.955 403.153 620.784L174.844 495.99C146.682 480.547 115.75 470.805 83.8173 467.323C51.8845 463.841 19.5774 466.687 -11.2565 475.698C-42.0904 484.708 -70.8461 499.707 -95.879 519.836C-120.912 539.965 -141.731 564.83 -157.145 593.007L-334.476 916.271C-360.461 963.704 -366.539 1019.51 -351.371 1071.41C-336.203 1123.32 -301.032 1167.07 -253.594 1193.05L69.9741 1370.2C98.1359 1385.64 129.068 1395.39 161 1398.87C192.933 1402.35 225.24 1399.5 256.074 1390.49C286.908 1381.48 315.664 1366.48 340.697 1346.36C365.73 1326.23 386.548 1301.36 401.963 1273.18L526.334 1045.06C531.462 1035.65 538.399 1027.34 546.748 1020.61C555.097 1013.89 564.692 1008.88 574.983 1005.87C585.274 1002.86 596.057 1001.92 606.714 1003.09C617.37 1004.26 627.69 1007.52 637.08 1012.7L865.462 1137.74C893.623 1153.18 924.555 1162.92 956.488 1166.4C988.421 1169.89 1020.73 1167.04 1051.56 1158.03C1082.4 1149.02 1111.15 1134.02 1136.18 1113.89C1161.22 1093.76 1182.04 1068.9 1197.45 1040.72L1322.56 812.377C1327.69 802.964 1334.63 794.655 1342.98 787.93C1351.33 781.204 1360.92 776.194 1371.21 773.186C1381.5 770.179 1392.29 769.234 1402.94 770.406C1413.6 771.578 1423.92 774.843 1433.31 780.014L1661.69 905.054C1689.85 920.498 1720.78 930.239 1752.72 933.721C1784.65 937.203 1816.96 934.358 1847.79 925.347C1878.62 916.336 1907.38 901.338 1932.41 881.209C1957.45 861.08 1978.27 836.215 1993.68 808.037L2170.94 484.526C2197.05 437.163 2203.28 381.374 2188.25 329.428C2173.22 277.483 2138.17 233.637 2090.8 207.534Z" fill="#1B2AC9"/>
</svg>
