<svg width="1920" height="2515" viewBox="0 0 1920 2515" fill="none" xmlns="http://www.w3.org/2000/svg">
<path fill-rule="evenodd" clip-rule="evenodd" d="M1920 113.856L1766.86 30.1077C1738.69 14.6641 1707.76 4.92277 1675.83 1.44076C1643.9 -2.04125 1611.59 0.804462 1580.76 9.81498C1549.92 18.8256 1521.17 33.8244 1496.13 53.9534C1471.1 74.0825 1450.28 98.9469 1434.87 127.125L1309.68 355.22C1304.55 364.633 1297.62 372.942 1289.27 379.667C1280.92 386.393 1271.32 391.403 1261.03 394.411C1250.74 397.418 1239.96 398.363 1229.3 397.191C1218.65 396.019 1208.33 392.754 1198.94 387.583L970.627 262.79C942.466 247.346 911.534 237.605 879.601 234.123C847.668 230.641 815.361 233.486 784.527 242.497C753.693 251.507 724.938 266.506 699.905 286.635C674.872 306.764 654.053 331.629 638.638 359.807L513.453 587.902C508.326 597.315 501.388 605.624 493.039 612.349C484.691 619.075 475.095 624.085 464.805 627.092C454.514 630.1 443.73 631.045 433.074 629.873C422.417 628.701 412.098 625.436 402.708 620.265L174.398 495.472C146.236 480.028 115.305 470.287 83.3718 466.805C55.4558 463.761 27.2538 465.552 0 472.071L3.07835e-06 1331.62V1587.07L0 2446.62L69.5286 2484.68C97.6903 2500.13 128.622 2509.87 160.555 2513.35C192.488 2516.83 224.795 2513.99 255.629 2504.98C286.463 2495.96 315.218 2480.97 340.251 2460.84C365.284 2440.71 386.103 2415.84 401.517 2387.67L525.889 2159.54C531.016 2150.13 537.954 2141.82 546.302 2135.09C554.651 2128.37 564.247 2123.36 574.538 2120.35C584.828 2117.34 595.612 2116.4 606.268 2117.57C616.925 2118.74 627.245 2122.01 636.634 2127.18L865.016 2252.22C893.178 2267.66 924.11 2277.4 956.042 2280.88C987.975 2284.37 1020.28 2281.52 1051.12 2272.51C1081.95 2263.5 1110.71 2248.5 1135.74 2228.37C1160.77 2208.24 1181.59 2183.38 1197 2155.2L1322.12 1926.86C1327.25 1917.44 1334.18 1909.14 1342.53 1902.41C1350.88 1895.68 1360.48 1890.67 1370.77 1887.67C1381.06 1884.66 1391.84 1883.72 1402.5 1884.89C1413.15 1886.06 1423.47 1889.32 1432.86 1894.49L1661.25 2019.54C1689.41 2034.98 1720.34 2044.72 1752.27 2048.2C1784.2 2051.68 1816.51 2048.84 1847.35 2039.83C1873.37 2032.22 1897.92 2020.35 1920 2004.72V1228.86V889.723V113.856Z" fill="#1B2AC9"/>
</svg>
