<svg width="22" height="23" viewBox="0 0 22 23" fill="none" xmlns="http://www.w3.org/2000/svg">
<path fill-rule="evenodd" clip-rule="evenodd" d="M9.75838 0.765795C2.16444 1.78374 -2.13397 9.58812 1.17062 16.3581C1.56185 17.1596 1.6223 16.6708 0.733473 19.8944C0.317136 21.4044 -0.0127767 22.6505 0.000380263 22.6637C0.0134942 22.6768 1.3264 22.3483 2.91792 21.9338C5.47785 21.267 5.82187 21.1868 5.90059 21.238C9.44618 23.5451 15.4884 22.6119 18.8576 19.2369C26.0947 11.9874 19.8972 -0.593279 9.75838 0.765795ZM11.6591 2.54982C19.3853 3.07178 22.9697 12.4273 17.5305 17.8745C14.4779 20.9318 10.1427 21.4564 6.23683 19.2413L6.06015 19.1411L4.43097 19.563C3.53496 19.7951 2.77762 19.9941 2.74808 20.0053C2.65534 20.0404 2.6832 19.9158 3.13058 18.2978L3.56682 16.72L3.26241 16.2115C-0.00662834 10.7509 3.22195 3.74151 9.5093 2.6491C9.83414 2.59266 10.1211 2.56493 10.9282 2.51192C10.9755 2.50879 11.3044 2.52587 11.6591 2.54982ZM6.87455 6.55824C5.87157 6.87826 5.19523 8.71503 5.59351 10.0372C6.17857 11.9794 8.71085 14.7913 10.8106 15.8303C13.3172 17.0706 14.8682 17.0973 16.0506 15.9205C16.8257 15.1491 16.7997 13.793 16.0098 13.793C15.9759 13.793 15.6022 13.6274 15.1796 13.425C13.7911 12.7602 13.8113 12.7607 13.3257 13.3787C12.4823 14.4519 12.5067 14.4422 11.6621 14.0368C10.3223 13.3937 9.29776 12.4717 8.51539 11.205C8.24335 10.7645 8.24997 10.7318 8.72276 10.182C9.00044 9.85912 9.22982 9.46708 9.22982 9.3154C9.22982 9.17081 8.33283 6.98526 8.17512 6.74559C8.02076 6.51099 7.33316 6.41193 6.87455 6.55824Z" fill="#F2F3F7"/>
</svg>
