<svg width="46" height="46" viewBox="0 0 46 46" fill="none" xmlns="http://www.w3.org/2000/svg">
<circle cx="23" cy="23" r="23" fill="white"/>
<path fill-rule="evenodd" clip-rule="evenodd" d="M21.7584 12.1017C14.1644 13.1197 9.86603 20.9241 13.1706 27.6941C13.5618 28.4955 13.6223 28.0067 12.7335 31.2304C12.3171 32.7403 11.9872 33.9865 12.0004 33.9996C12.0135 34.0127 13.3264 33.6843 14.9179 33.2698C17.4779 32.6029 17.8219 32.5227 17.9006 32.5739C21.4462 34.881 27.4884 33.9478 30.8576 30.5728C38.0947 23.3233 31.8972 10.7427 21.7584 12.1017ZM23.6591 13.8858C31.3853 14.4077 34.9697 23.7632 29.5305 29.2105C26.4779 32.2677 22.1427 32.7923 18.2368 30.5772L18.0602 30.477L16.431 30.899C15.535 31.131 14.7776 31.3301 14.7481 31.3413C14.6553 31.3763 14.6832 31.2518 15.1306 29.6337L15.5668 28.0559L15.2624 27.5474C11.9934 22.0869 15.2219 15.0774 21.5093 13.985C21.8341 13.9286 22.1211 13.9009 22.9282 13.8479C22.9755 13.8447 23.3044 13.8618 23.6591 13.8858ZM18.8746 17.8942C17.8716 18.2142 17.1952 20.051 17.5935 21.3732C18.1786 23.3153 20.7109 26.1272 22.8106 27.1662C25.3172 28.4065 26.8682 28.4333 28.0506 27.2565C28.8257 26.4851 28.7997 25.1289 28.0098 25.1289C27.9759 25.1289 27.6022 24.9633 27.1796 24.761C25.7911 24.0961 25.8113 24.0966 25.3257 24.7146C24.4823 25.7878 24.5067 25.7782 23.6621 25.3728C22.3223 24.7296 21.2978 23.8077 20.5154 22.541C20.2434 22.1005 20.25 22.0678 20.7228 21.5179C21.0004 21.1951 21.2298 20.803 21.2298 20.6513C21.2298 20.5067 20.3328 18.3212 20.1751 18.0815C20.0208 17.8469 19.3332 17.7479 18.8746 17.8942Z" fill="#1B2AC9"/>
</svg>
