<svg width="25" height="31" viewBox="0 0 25 31" fill="none" xmlns="http://www.w3.org/2000/svg">
<path fill-rule="evenodd" clip-rule="evenodd" d="M10.908 0.0494083C10.571 0.0957518 9.95071 0.211221 9.48305 0.314602C8.99812 0.421772 7.84731 0.831455 7.26839 1.10294C5.11698 2.11186 3.33629 3.64036 2.07797 5.55816C1.54621 6.36861 1.23691 6.96417 0.819371 7.98117C0.453408 8.87278 0.187473 10.0797 0.0636972 11.4113C-0.0212414 12.3251 -0.0212419 12.4698 0.0637526 13.3919C0.114213 13.9391 0.177358 14.462 0.204125 14.5539C0.230836 14.6458 0.268555 14.8338 0.28789 14.9717C0.307225 15.1095 0.346453 15.2975 0.37512 15.3894C0.403787 15.4814 0.506495 15.8166 0.603336 16.1344C0.700233 16.4522 0.81395 16.7781 0.856084 16.8585C0.898162 16.9389 0.932753 17.0341 0.932976 17.0698C0.933982 17.2565 1.92039 19.0439 2.32642 19.5948C2.62264 19.9967 3.15177 20.6345 3.47409 20.9783C3.8552 21.3847 5.37253 22.6996 6.63437 23.7168C8.07542 24.8785 9.55854 26.3209 10.2811 27.2635C10.4261 27.4527 10.5448 27.6323 10.5448 27.6627C10.5448 27.6931 10.5646 27.7263 10.5889 27.7366C10.6488 27.7618 10.9405 28.2495 11.0997 28.5907C11.3004 29.0207 11.4341 29.452 11.4708 29.7882C11.5619 30.6223 12.0131 31.0825 12.6468 30.9878C13.1291 30.9157 13.4538 30.4821 13.5243 29.8161C13.5995 29.1063 13.9858 28.273 14.6732 27.3374C15.3661 26.3945 16.8513 24.9386 18.3668 23.7168C18.7083 23.4416 19.6989 22.6191 19.9368 22.4134C20.0466 22.3184 20.2729 22.1281 20.4397 21.9906C21.1495 21.405 22.0183 20.4743 22.6814 19.5891C22.8527 19.3605 23.5453 18.2127 23.6874 17.9221C24.189 16.8963 24.5547 15.8231 24.7591 14.7767C24.8975 14.0688 25.0308 12.4863 24.9937 11.9917C24.9233 11.0526 24.7481 9.80182 24.6308 9.40155C24.4388 8.74622 24.2109 8.02495 24.1732 7.95332C24.149 7.90736 24.0883 7.7695 24.0383 7.64696C23.8092 7.08499 23.3023 6.13171 22.9387 5.57927C22.001 4.15432 20.8767 3.02926 19.3684 2.00664C18.892 1.68363 18.08 1.2564 17.1913 0.861199C16.9214 0.741163 15.8285 0.384508 15.5182 0.315159C15.0015 0.199746 14.4156 0.0949719 14.0094 0.0452863C13.4988 -0.0171548 11.3712 -0.014314 10.908 0.0494083ZM13.8874 8.31253C14.1123 8.39425 14.3763 8.50944 14.4742 8.56859C14.572 8.62769 14.7023 8.69927 14.7638 8.72756C14.9884 8.83117 15.5498 9.32903 15.839 9.68095C16.1689 10.0827 16.4513 10.6234 16.6383 11.2118C16.7404 11.533 16.7626 11.7344 16.7638 12.3537C16.766 13.3971 16.6063 13.9363 16.0435 14.7846C15.5308 15.5574 14.8402 16.0839 13.8902 16.4262C13.4958 16.5683 13.3133 16.5994 12.7241 16.625C11.3182 16.6859 10.3789 16.3222 9.39923 15.3375C8.71877 14.6535 8.39908 13.993 8.22389 12.9091C8.14683 12.4323 8.14683 12.3217 8.22361 11.8229C8.27061 11.5175 8.34638 11.1622 8.39192 11.0335C8.78728 9.9169 9.58078 9.01198 10.588 8.52904C11.3279 8.17428 11.6248 8.11758 12.6124 8.14231C13.3792 8.16147 13.5255 8.18097 13.8874 8.31253Z" fill="url(#paint0_linear_621_2412)"/>
<defs>
<linearGradient id="paint0_linear_621_2412" x1="12.5" y1="0" x2="12.5" y2="31" gradientUnits="userSpaceOnUse">
<stop stop-color="#FF6022"/>
<stop offset="1" stop-color="#F32512"/>
</linearGradient>
</defs>
</svg>
