<svg width="46" height="46" viewBox="0 0 46 46" fill="none" xmlns="http://www.w3.org/2000/svg">
<circle cx="23" cy="23" r="23" fill="url(#paint0_linear_621_1316)"/>
<path fill-rule="evenodd" clip-rule="evenodd" d="M11.5833 18.2227C11.872 16.8388 13.0125 15.7023 14.4053 15.4103C14.77 15.3339 15.1754 15.3305 22.9343 15.3394C30.6692 15.3482 31.0937 15.3527 31.3453 15.4282C32.7103 15.8376 33.6198 16.7442 34.0014 18.0758C34.0781 18.3434 34.0827 18.6248 34.0827 23.0102C34.0827 27.3765 34.0777 27.6818 34.0013 28.0043C33.8407 28.6817 33.5357 29.247 33.0705 29.7291C32.5963 30.2205 32.1107 30.5152 31.425 30.7279L31.0362 30.8485H22.8018C14.968 30.8485 14.3762 30.8722 13.8961 30.6521C13.8073 30.6114 13.7224 30.5623 13.5961 30.5032C12.57 30.023 11.8124 29.0704 11.5833 27.9724C11.5049 27.5967 11.5 27.3127 11.5 23.0975C11.5 18.8823 11.5049 18.5984 11.5833 18.2227ZM32.7152 18.4451C32.5146 17.5897 31.8221 16.9017 30.9594 16.7005C30.5581 16.6069 15.0147 16.6089 14.624 16.7025C13.7902 16.9025 13.0881 17.6041 12.8899 18.4356C12.7925 18.8441 12.7925 27.3509 12.8899 27.7595C13.0906 28.6014 13.793 29.2961 14.6443 29.4946C14.8825 29.5501 16.0043 29.5591 22.7606 29.5597C28.1568 29.5601 30.6822 29.5457 30.8625 29.5134C31.4904 29.4011 32.1914 28.8858 32.4767 28.3269C32.5271 28.228 32.5684 28.1564 32.6023 28.0815C32.7671 27.7164 32.7553 27.2717 32.769 23.1999C32.7823 19.2761 32.7758 18.7037 32.7152 18.4451ZM20.1025 27.5443C20.0812 27.5525 20.0644 25.582 20.0644 23.0975C20.0644 20.6438 20.0812 18.6427 20.1019 18.6507C20.1802 18.6811 26.9064 23.0767 26.9064 23.0975C26.9064 23.1186 20.18 27.5147 20.1025 27.5443Z" fill="#F2F3F7"/>
<defs>
<linearGradient id="paint0_linear_621_1316" x1="23" y1="0" x2="23" y2="46" gradientUnits="userSpaceOnUse">
<stop stop-color="#0073F0"/>
<stop offset="1" stop-color="#1B2AC9"/>
</linearGradient>
</defs>
</svg>
