<svg width="28" height="28" viewBox="0 0 28 28" fill="none" xmlns="http://www.w3.org/2000/svg">
<path d="M7.68596 15.3119V14.7467H7.05621V15.3119H7.68596ZM12.724 15.3119V14.7467H12.0942V15.3119H12.724ZM12.724 19.8334H12.0942V20.3986H12.724V19.8334ZM7.68596 15.8771H8.94546V14.7467H7.68596V15.8771ZM8.31571 20.3986V17.5727H7.05621V20.3986H8.31571ZM8.31571 17.5727V15.3119H7.05621V17.5727H8.31571ZM8.94546 17.0075H7.68596V18.1378H8.94546V17.0075ZM9.57522 16.4423C9.57522 16.5922 9.50887 16.7359 9.39077 16.8419C9.27266 16.9479 9.11249 17.0075 8.94546 17.0075V18.1378C9.44653 18.1378 9.92706 17.9592 10.2814 17.6412C10.6357 17.3233 10.8347 16.892 10.8347 16.4423H9.57522ZM8.94546 15.8771C9.11249 15.8771 9.27266 15.9367 9.39077 16.0426C9.50887 16.1486 9.57522 16.2924 9.57522 16.4423H10.8347C10.8347 15.9926 10.6357 15.5613 10.2814 15.2434C9.92706 14.9254 9.44653 14.7467 8.94546 14.7467V15.8771ZM12.0942 15.3119V19.8334H13.3537V15.3119H12.0942ZM12.724 20.3986H13.9835V19.2682H12.724V20.3986ZM15.8727 18.703V16.4423H14.6132V18.703H15.8727ZM13.9835 14.7467H12.724V15.8771H13.9835V14.7467ZM15.8727 16.4423C15.8727 15.9926 15.6737 15.5613 15.3194 15.2434C14.9651 14.9254 14.4845 14.7467 13.9835 14.7467V15.8771C14.1505 15.8771 14.3107 15.9367 14.4288 16.0426C14.5469 16.1486 14.6132 16.2924 14.6132 16.4423H15.8727ZM13.9835 20.3986C14.4845 20.3986 14.9651 20.22 15.3194 19.902C15.6737 19.584 15.8727 19.1527 15.8727 18.703H14.6132C14.6132 18.8529 14.5469 18.9967 14.4288 19.1027C14.3107 19.2087 14.1505 19.2682 13.9835 19.2682V20.3986ZM17.1322 14.7467V20.3986H18.3917V14.7467H17.1322ZM17.762 15.8771H20.9107V14.7467H17.762V15.8771ZM17.762 18.1378H19.6512V17.0075H17.762V18.1378Z" fill="#31264F"/>
<path d="M24.418 8.61506L16.4473 1.42912C16.3181 1.31384 16.1776 1.21649 16.0255 1.13451C15.9853 1.11402 15.9451 1.09352 15.9021 1.07559C15.8763 1.06278 15.8476 1.05253 15.8218 1.04229C15.5635 0.939814 15.2795 0.883453 14.9897 0.883453H5.09077C3.94881 0.883453 2.99622 1.70836 2.99622 2.72797V25.2721C2.99622 26.2917 3.94881 27.1166 5.09077 27.1166H22.9662C24.1082 27.1166 25.0034 26.2917 25.0034 25.2721V9.91391C25.0034 9.42716 24.8025 8.9609 24.418 8.61506ZM16.0513 3.71171L21.8128 8.87636H16.0513V3.71171ZM22.9375 25.2721H5.06208V2.72797H13.9854V8.87636C13.9854 9.89597 14.938 10.7209 16.08 10.7209H22.9375V25.2721Z" fill="#31264F"/>
</svg>
