<svg width="30" height="32" viewBox="0 0 30 32" fill="none" xmlns="http://www.w3.org/2000/svg">
<g clip-path="url(#clip0_958_3921)">
<path d="M22.2703 18.7783C16.8509 18.8057 15.9742 22.1771 15.6821 25.0278L15.5493 26.2886H14.46L14.3272 25.0278C14.035 22.1771 13.1318 18.8057 7.89827 18.7783C7.02163 16.9143 6.64971 15.4068 6.64971 13.7073C6.64971 9.45884 10.0236 5.48426 15.0178 5.48426C20.0122 5.48426 23.3329 9.43129 23.3329 13.7349C23.3329 15.4068 23.1735 16.9143 22.2703 18.7783ZM14.9648 0.331139C6.72945 0.331139 -0.0183105 7.29339 -0.0183105 15.8178C-0.0183105 24.3699 6.72945 31.332 14.9648 31.332C23.2798 31.332 30.0009 24.3699 30.0009 15.8178C30.0009 7.29339 23.2798 0.331139 14.9648 0.331139Z" fill="#29B24A"/>
</g>
<defs>
<clipPath id="clip0_958_3921">
<rect width="30" height="31" fill="white" transform="translate(0 0.335938)"/>
</clipPath>
</defs>
</svg>
