<svg width="25" height="33" viewBox="0 0 25 33" fill="none" xmlns="http://www.w3.org/2000/svg">
<path d="M23.3641 8.55078L23.3596 8.55517C23.4564 8.82331 23.5466 9.0948 23.6238 9.37172C23.5454 9.09445 23.4614 8.81961 23.3641 8.55078Z" fill="#4285F4"/>
<path d="M12.5001 0.914062L4.32422 4.30107L9.0216 8.99856C9.93973 8.07412 11.1875 7.55226 12.4904 7.54779C13.7933 7.54332 15.0446 8.05661 15.969 8.97474C16.8935 9.89287 17.4153 11.1406 17.4198 12.4435C17.4243 13.7464 16.911 14.9977 15.9929 15.9222L22.9063 9.00781L23.3596 8.55456C22.5555 6.31843 21.0812 4.38479 19.1378 3.01742C17.1943 1.65004 14.8763 0.915525 12.5001 0.914062Z" fill="#4285F4"/>
<path d="M12.5 17.3826C11.5287 17.3824 10.5792 17.0944 9.77153 16.555C8.96382 16.0155 8.33409 15.2488 7.96189 14.3516C7.58968 13.4545 7.49169 12.4671 7.68029 11.5143C7.86889 10.5615 8.33563 9.68598 9.02155 8.99828L4.32417 4.30078C3.2489 5.3732 2.39617 6.64753 1.81497 8.05056C1.23377 9.45359 0.935575 10.9576 0.937509 12.4763C0.937509 17.5704 3.55653 20.7629 6.63782 24.0388C6.84444 24.2501 7.01638 24.4842 7.21121 24.7032L15.9534 15.9609C15.0353 16.8725 13.7938 17.3836 12.5 17.3826Z" fill="#FFBA00"/>
<path opacity="0.5" d="M6.6377 24.0391C6.84432 24.2504 7.01625 24.4844 7.21108 24.7034C7.01579 24.4848 6.84385 24.2508 6.6377 24.0391Z" fill="#0066DA"/>
<path d="M12.5 0.914062C9.43345 0.914063 6.49249 2.13225 4.3241 4.30064C2.15571 6.46903 0.937519 9.41 0.937519 12.4766C0.935169 13.833 1.14802 15.1812 1.56814 16.4709L16.4265 1.61313C15.1683 1.15344 13.8396 0.916865 12.5 0.914062Z" fill="#0066DA"/>
<path opacity="0.5" d="M1.45775 9.03906C1.2293 9.77385 1.07513 10.5297 0.997559 11.2953C1.07515 10.5297 1.22931 9.77385 1.45775 9.03906Z" fill="#0066DA"/>
<path d="M13.5419 32.0062C14.5921 29.084 16.1726 26.3807 18.2039 24.032C21.516 20.6668 24.0625 17.5716 24.0625 12.4772C24.0598 11.1377 23.8234 9.80899 23.364 8.55078L7.21118 24.7036C9.0708 26.8174 10.4833 29.2858 11.3637 31.96C11.4376 32.1878 11.5806 32.387 11.7728 32.5299C11.965 32.6727 12.1969 32.7522 12.4364 32.7573C12.6758 32.7624 12.9109 32.6928 13.109 32.5582C13.3071 32.4236 13.4584 32.2307 13.5419 32.0062Z" fill="#00AC47"/>
<path d="M12.2542 32.7266L12.3004 32.7342L12.2542 32.7266Z" fill="white"/>
<path d="M11.9529 32.625C11.9264 32.6121 11.8993 32.6011 11.8738 32.5859C11.8997 32.6011 11.9259 32.6122 11.9529 32.625Z" fill="white"/>
<path d="M11.5701 32.3281C11.5932 32.3568 11.6215 32.3769 11.6468 32.4026C11.6213 32.3769 11.5931 32.3567 11.5701 32.3281Z" fill="white"/>
<path d="M11.3637 31.9608C11.1271 31.2642 10.861 30.5872 10.5652 29.9297C10.8573 30.5891 11.1271 31.2637 11.3637 31.9608Z" fill="white"/>
<path d="M9.74989 28.3148C9.70699 28.2373 9.67138 28.155 9.62744 28.0781C9.67092 28.1554 9.70746 28.2375 9.74989 28.3148Z" fill="white"/>
<path d="M16.7917 25.8008C16.5038 26.2025 16.2506 26.6246 15.9907 27.0427C16.2498 26.6241 16.5044 26.2028 16.7917 25.8008Z" fill="white"/>
<path opacity="0.5" d="M2.33304 6.96484C1.97415 7.62555 1.68098 8.31989 1.45776 9.03788C1.68103 8.31991 1.9742 7.62557 2.33304 6.96484Z" fill="#0066DA"/>
<path d="M13.7104 31.605C13.9815 30.9212 14.2729 30.2495 14.5847 29.5898C14.271 30.2482 13.9815 30.9212 13.7104 31.605Z" fill="white"/>
<path d="M15.5988 27.6562C15.2659 28.2294 14.9629 28.8204 14.6738 29.4186C14.9629 28.8198 15.2671 28.2301 15.5988 27.6562Z" fill="white"/>
<path d="M4.32418 4.30078C3.24891 5.3732 2.39618 6.64753 1.81498 8.05056C1.23378 9.45359 0.935585 10.9576 0.937519 12.4763C0.935169 13.8327 1.14802 15.1809 1.56814 16.4707L9.03127 9.00753L4.32418 4.30078Z" fill="#EA4435"/>
</svg>
