<svg width="84" height="51" viewBox="0 0 84 51" fill="none" xmlns="http://www.w3.org/2000/svg">
<g clip-path="url(#clip0_1431_456)">
<path d="M44.7976 23.9296C44.7492 24.1323 44.7761 24.346 44.8703 24.5323C45.0344 24.8419 45.4057 25.0528 45.976 25.1596C46.3904 25.2445 46.8155 25.2856 47.2379 25.2856C47.5984 25.2856 48.0154 25.2582 48.6692 25.198C49.8153 25.0336 50.9346 24.7076 51.9919 24.2227C52.6403 23.9241 53.0493 23.5214 53.208 23.0284C53.3264 22.6366 53.3049 22.2147 53.1488 21.8394C50.7355 23.1845 48.0316 23.905 45.2819 23.9406C45.2792 23.9433 44.986 23.9406 44.7976 23.9296ZM82.5637 35.6078C82.4319 35.8571 82.3054 36.1173 82.179 36.3748C81.6543 37.4596 81.1082 38.5828 80.0185 39.0321L79.8544 39.1006L79.8382 38.9225C79.8302 38.1582 79.9082 37.3966 80.0777 36.6515C80.2983 35.4078 80.527 34.123 80.032 33.5204C79.7737 33.2464 79.4051 33.1067 79.0338 33.1423C78.945 33.1423 78.8455 33.1478 78.7459 33.156C78.563 33.6957 78.4042 34.2792 78.2536 34.849C77.8123 36.5145 77.355 38.2349 76.1765 38.9499L76.0985 38.9965L76.0259 38.9362C75.4958 38.4814 75.6008 37.572 75.6761 36.909L75.6842 36.8214C75.8026 35.7968 75.9936 34.7805 76.2546 33.7806C76.8303 31.6192 77.5433 29.5865 78.8239 29.3318L78.8912 29.3208L78.9396 29.3674C79.3997 29.8249 79.4454 30.6659 79.0795 31.9424C79.2302 31.9808 79.3836 32.0027 79.5369 32.0054C80.1261 32.0082 80.6346 31.5918 80.7638 31.0083C81.0328 30.0961 80.7127 28.9537 80.0616 28.5154C79.658 28.2278 79.1818 28.0662 78.6894 28.0552C76.6393 28.0552 74.7452 31.2548 74.0968 34.3531L74.0807 34.4463L74.0484 34.5695L73.8843 34.8627C72.9991 36.4406 71.9982 38.2267 70.0342 38.2376H69.7974L69.9212 38.0349C70.8817 36.4652 72.5229 32.9779 72.574 29.866C72.5821 29.2934 72.5014 28.4524 72.235 27.9758C72.0009 27.4772 71.5059 27.1621 70.9651 27.1649C69.749 27.1649 68.2423 28.5209 67.9033 29.592L67.6531 29.5345C67.7554 28.7401 67.8737 28.0662 67.9867 27.4142C68.0836 26.8663 68.1751 26.3485 68.245 25.8226C68.1697 25.8143 68.0917 25.8089 68.0163 25.8116C66.4666 25.8116 66.1196 27.647 65.7483 29.592C65.6945 29.8824 65.638 30.1755 65.5788 30.4659L65.0272 33.104L64.9788 33.2848L64.9492 33.2656C64.4622 34.7367 63.5717 36.5584 62.0435 37.2734L61.8337 37.372L61.8633 37.1391C62.1215 34.964 62.4874 32.7752 62.8426 30.6549C63.0901 29.1811 63.3242 27.7867 63.5179 26.4225L63.3968 26.4198C61.5781 26.4198 61.3036 28.4031 60.9888 30.7015C60.9216 31.1918 60.8516 31.6877 60.7655 32.1753C60.7575 32.2219 59.8938 36.6597 58.5029 36.6597C58.441 36.6597 58.3791 36.6488 58.3172 36.6323C57.5531 36.4104 57.7845 34.7367 57.9379 33.6272L57.9836 33.2793C58.2984 30.8905 58.7988 28.5291 59.4822 26.2198C59.4257 26.2116 59.3692 26.2088 59.3127 26.2088C58.554 26.2088 57.798 26.943 57.4186 27.6278C56.8805 28.5949 56.5119 30.4851 56.2509 32.0246C56.224 32.1972 56.1944 32.3698 56.1595 32.5807C55.1613 34.7914 54.1416 36.8378 53.4663 36.8378C53.391 36.8378 53.3183 36.8159 53.2564 36.7693C52.8152 36.4351 53.0116 35.0106 53.391 32.5205C53.6627 30.7508 53.9694 28.7428 53.843 27.51C53.7676 26.7704 53.391 26.1047 52.9309 25.8856C52.7856 25.8143 52.6269 25.776 52.4655 25.7733C51.2278 25.7733 50.3238 28.2497 49.9418 29.3099C49.6916 29.9974 49.4898 30.7124 49.2934 31.4055C49.1077 32.1178 48.8844 32.8218 48.6262 33.5121L48.3759 33.4683C48.3625 32.7287 48.3948 31.989 48.4701 31.2521C48.6046 29.5591 48.7445 27.8114 47.9347 27.1101C47.7598 26.9594 47.5365 26.8745 47.3051 26.8772C46.8612 26.9046 46.4442 27.1156 46.1536 27.458C45.2146 28.5045 44.76 30.2933 44.3214 32.0219C44.1035 32.9451 43.8344 33.8573 43.5143 34.7504L43.2641 34.6983C43.3502 31.6521 43.7403 28.9647 44.1519 26.1239L44.238 25.5267C44.2138 25.524 44.1869 25.524 44.1654 25.524C43.7268 25.524 43.3098 25.702 43.0004 26.0171C42.2067 26.7458 41.9457 28.4469 41.7251 30.2741L41.6471 30.948L41.6148 30.9782C40.9718 31.6438 40.2588 32.2903 39.3898 32.4931L39.2068 32.5369L39.2364 32.3479C39.266 31.9616 39.2391 31.5726 39.1638 31.1918L39.1476 31.0823C39.0185 30.1892 38.2706 28.4771 37.5845 28.4771C37.3612 28.5045 37.1648 28.6387 37.0572 28.8414C36.7074 29.34 36.1935 30.4577 36.7155 32.3725C36.8258 32.7944 37.006 33.1944 37.2509 33.5532C37.3181 33.6655 37.3827 33.7696 37.4365 33.8737L37.458 33.9148L37.45 33.9559C37.3988 34.2381 37.3477 34.4682 37.3127 34.5915C36.928 36.0214 36.5863 37.1172 35.9783 37.1309C35.755 37.1364 35.5424 37.0405 35.3918 36.8734C34.8806 36.3228 34.8806 34.9969 34.9371 33.8765C34.964 33.2902 35.0689 31.3014 35.1819 30.3536C35.2599 29.7564 35.3164 29.203 35.3729 28.6661C35.4617 27.6635 35.5989 26.6636 35.7873 25.6746C35.1146 25.6966 34.4931 26.0527 34.1219 26.6252C33.6214 27.4635 33.304 29.6742 33.2582 32.5807L33.1049 33.1149C32.5156 35.1804 31.9668 36.8953 31.1731 36.8953C30.592 36.8844 30.5489 35.4544 30.522 32.715C30.5005 30.9535 30.4817 28.9565 30.1884 27.7895C30.0028 27.0526 29.5454 26.4198 29.0476 26.2253C28.9104 26.1677 28.7624 26.1376 28.6145 26.1349C27.3795 26.1349 26.8495 28.6497 26.6155 29.7728C26.1877 32 25.0657 37.1857 23.9546 37.2651L23.8819 37.2679C23.6102 37.2624 23.3546 37.1474 23.1636 36.9529L23.0883 36.8816L23.1394 36.7912C23.3788 36.3392 23.5053 35.8324 23.5053 35.3174C23.5241 34.786 23.4084 34.2573 23.1663 33.7833C23.0237 33.4464 22.7116 33.2108 22.3538 33.1724C21.7107 33.1724 21.1726 34.1175 21.1511 35.2791C21.143 35.6845 21.2076 36.0872 21.3395 36.468L21.3637 36.5392L21.3152 36.5967C20.9897 36.9885 20.605 37.3254 20.1745 37.5884L19.9754 37.7035L19.9835 37.4706C20.0426 35.2818 20.2068 33.0656 20.3628 30.9234C20.4731 29.4276 20.5754 28.0196 20.648 26.6417C18.7162 26.7348 18.6275 28.7811 18.5198 31.1507C18.4956 31.6438 18.4768 32.1424 18.4338 32.6355C18.4338 32.6821 17.9602 37.3199 16.5316 37.3199C16.4912 37.3199 16.4482 37.3145 16.4078 37.309C15.6276 37.1638 15.7056 35.479 15.7567 34.3668L15.7675 34.0052C15.859 31.5973 16.1388 29.1975 16.6069 26.8334C16.5908 26.8307 16.5719 26.8307 16.5558 26.8307C15.6949 26.8307 14.9657 27.7867 14.6832 28.4305C14.2366 29.4441 14.0456 31.3617 13.9299 32.9204C13.9084 33.2026 13.8922 33.493 13.8761 33.8272C13.6555 34.4298 13.4026 35.0216 13.1174 35.5968L13.0098 35.8187C12.6923 36.4817 12.2564 37.3857 11.495 37.3857C10.626 37.3282 10.2494 36.2516 9.94533 35.3859C9.88076 35.1941 9.81619 35.0106 9.75162 34.8572L9.72202 34.786L9.77045 34.723C10.887 33.3259 12.7165 30.5673 12.4017 27.7785C12.3345 27.1375 11.9174 26.5869 11.3255 26.3595C11.2287 26.4499 11.1049 27.1375 10.9812 27.8004C10.6583 29.5619 10.1175 32.5095 8.6835 33.797C8.46557 33.9559 8.20729 34.0463 7.93824 34.0518C7.74991 34.0545 7.56427 33.997 7.41091 33.882L7.35979 33.8409V33.7724C7.35979 33.6299 7.76067 28.2196 7.91403 26.417C7.86829 26.4088 7.82255 26.4061 7.77682 26.4061C7.02079 26.4061 6.25939 27.2608 6.04685 27.8744C5.48185 29.4961 5.34464 36.6899 5.33925 37.2158V37.2487C5.33118 38.0705 5.51952 38.6842 5.89887 39.0759C6.15716 39.3416 6.50961 39.495 6.87551 39.5005C6.92932 39.5005 6.98313 39.495 7.03694 39.4868C7.03694 39.3362 7.03694 39.1499 7.03694 38.9444C7.01541 37.9966 7.0477 37.046 7.12572 36.1009L7.13918 35.9749L7.26563 35.9858C7.31675 35.9886 7.36787 35.9913 7.42167 35.9913C7.79565 36.0023 8.16693 35.9064 8.4871 35.7146L8.627 35.5941L8.69157 35.7694C8.76153 35.9776 8.83417 36.1968 8.90681 36.4187C9.35881 37.813 9.87269 39.3882 11.2125 39.3882C11.2475 39.3882 11.2852 39.3882 11.3229 39.3855C12.3022 39.3225 13.1389 38.0952 13.5479 37.3665C13.6447 37.1939 13.7416 37.0186 13.8304 36.8405L14.0026 36.4981L14.0725 36.8761C14.2474 37.8623 14.6348 39.0896 15.4608 39.3225C15.5899 39.3581 15.7245 39.3772 15.859 39.3772C16.7764 39.3772 17.4302 38.5088 17.9979 37.5747L18.2562 37.1501L18.24 37.6487C18.2266 37.9884 18.232 38.4184 18.24 38.917L18.2427 38.9937L18.1755 39.0321C17.7504 39.2786 17.3441 39.4896 16.9513 39.6895L16.8598 39.7388C15.8213 40.2676 14.7478 40.8209 13.9434 41.7359C12.7569 42.8974 12.4313 44.6452 13.0286 46.6614C13.5882 48.7132 15.0787 50.0363 16.8195 50.0363H16.9083C17.9253 50.0117 18.6867 49.0584 19.0526 48.1735C19.9135 46.1135 19.9673 42.744 20.0131 40.0402L20.0238 39.443L20.0722 39.4019C20.1745 39.3225 21.1888 38.528 21.4982 38.2048C21.6596 38.0322 21.8022 37.8843 21.934 37.7391L22.0417 37.6158L22.1331 37.75C22.8865 38.8348 23.6694 39.0622 24.194 39.0622C24.5707 39.0622 24.9393 38.9472 25.2487 38.7253C26.9518 37.4542 27.6943 32.3917 27.8827 30.8741L27.9715 30.2495C28.1598 28.8743 28.2001 28.5894 28.4342 28.5647L28.5069 28.5729L28.5445 28.614C28.6656 28.7373 28.6737 29.1756 28.6629 30.8576C28.6468 32.5643 28.6279 34.901 28.9158 36.3283C29.0423 36.9638 29.5534 39.043 30.713 39.043C30.9875 39.0321 31.2511 38.9389 31.4744 38.78C31.991 38.4404 32.6125 37.5528 33.0484 36.5118L33.3739 35.7146L33.4546 36.1529C33.7264 37.6404 34.3263 38.5691 35.1927 38.8294C35.381 38.8869 35.5774 38.917 35.7738 38.917C36.3792 38.9088 36.9657 38.6814 37.4204 38.2733C37.8562 37.8295 38.1979 37.3035 38.4293 36.7227C38.8006 35.8927 39.0454 35.0079 39.1584 34.1038L39.1692 34.0189L39.2499 33.9943C39.9709 33.7696 40.6462 33.419 41.2516 32.9615L41.4803 32.778L41.4614 33.0766C41.3108 35.3174 41.4507 36.8761 41.8973 37.8404C42.1233 38.328 42.4112 38.5883 42.7287 38.5883C43.178 38.5883 43.6999 38.0733 43.969 37.3583C44.2784 36.4543 44.5286 35.5283 44.7196 34.5915C44.8326 34.0901 44.9456 33.5834 45.0747 33.0985L45.1581 32.7561C45.82 30.0879 46.2182 29.0934 46.6621 29.0934H46.6648C47.1679 29.1674 47.0576 30.3618 46.7966 32.6437C46.646 33.9669 46.4872 35.3393 46.5464 36.2762C46.6191 37.4459 46.9096 38.202 47.3778 38.4595C47.4827 38.5198 47.6011 38.5554 47.7195 38.5582C48.4486 38.5582 48.8952 37.046 49.0647 36.4762L49.4817 35.0763C50.0037 33.3149 50.3534 32.1561 50.8619 30.2221L50.9211 29.9783C51.1686 28.9647 51.4242 28.0607 51.9058 28.0607C51.9731 28.0744 52.0323 28.1127 52.0726 28.173C52.296 28.488 52.1238 29.5619 51.8036 31.4384C51.5238 33.0464 51.2117 34.8736 51.2736 36.079C51.3112 36.7392 51.5157 38.8978 52.7291 38.8978C53.0009 38.8869 53.2645 38.8074 53.4959 38.6677C54.1147 38.3308 54.6178 37.6185 55.1774 36.6515L55.242 36.5392C55.3981 36.2762 55.5837 35.9557 55.772 35.6051L55.99 35.1996L56.0142 35.6598C56.0761 36.7857 56.329 38.1993 57.198 38.5362C57.3675 38.5992 57.5451 38.6321 57.7253 38.6321C58.5809 38.6321 59.2696 37.8651 59.8858 37.035L60.179 36.6406L60.1171 37.1309C60.0741 37.4679 60.0391 37.8952 59.9988 38.3938L59.9907 38.4732L59.9207 38.5034C59.4445 38.7198 58.9871 38.9061 58.5486 39.0814C57.4132 39.5361 56.3424 39.9635 55.4626 40.7935C54.1766 41.8345 53.6896 43.5439 54.0932 45.6094C54.4698 47.7489 55.8635 49.2145 57.6446 49.3405C57.6876 49.3433 57.728 49.3433 57.7657 49.3433C58.7289 49.3433 59.5252 48.4886 59.953 47.6887C60.9942 45.7245 61.344 42.5303 61.6534 39.7087L61.7233 39.0869L61.7772 39.054C61.8902 38.9855 62.969 38.287 63.3053 37.9966C63.5286 37.8021 63.7439 37.5966 63.9457 37.3802L64.2497 37.0542L64.1663 37.4925C63.3968 41.6455 63.004 44.7328 62.9986 46.6696C62.9986 47.5298 63.1439 48.1187 63.4318 48.4119C63.6255 48.5981 63.8865 48.694 64.1528 48.6749C64.2174 48.6749 64.2847 48.6721 64.3492 48.6639C64.5322 47.549 64.7044 46.4066 64.8766 45.2588C65.7321 39.6101 66.6146 33.7724 68.8827 29.9509L68.9311 29.8714C69.2513 29.3345 69.7275 28.5209 70.2979 28.5209C70.3759 28.5209 70.4539 28.5373 70.5266 28.5675C70.9543 28.814 70.7929 29.5619 70.6772 30.1098C70.6557 30.1974 70.6422 30.2769 70.6288 30.3481C70.1687 32.4794 69.5069 34.5586 68.6486 36.5556C68.5706 36.7364 68.4818 36.9145 68.393 37.0926C68.1428 37.5939 67.9114 38.0705 67.9572 38.5445C68.0217 39.2101 68.7912 39.8977 69.9696 39.8977C70.0396 39.8977 70.1068 39.895 70.1795 39.8895C71.0458 39.8265 72.1005 39.1882 72.9937 38.1829C73.1309 38.0267 73.3139 37.8048 73.5076 37.5446L73.7336 37.2405L73.7417 37.6213C73.7686 39.1499 74.1533 40.1552 74.8878 40.6127C75.095 40.7442 75.3317 40.8154 75.5766 40.8182C76.5182 40.8182 77.4303 39.7252 77.9253 38.7883L78.1675 38.8485C78.1675 39.8731 78.4903 41.0702 79.3863 41.0702C79.5477 41.0675 79.7091 41.0346 79.8598 40.9771C80.8848 40.5963 82.8516 38.2842 82.9861 36.6789C83.0561 36.2625 82.8919 35.8406 82.561 35.5831L82.5637 35.6078ZM18.2454 40.873C18.2454 41.114 18.24 41.3578 18.232 41.6126C18.2212 41.9523 18.2185 42.3194 18.2131 42.6974C18.1808 45.341 18.1432 48.3406 16.9782 48.5379C16.9244 48.5488 16.8706 48.5543 16.8141 48.5543C15.5926 48.5543 14.7801 46.0669 14.7586 44.7684C14.7371 44.2041 14.8527 43.6398 15.1003 43.133C15.5415 42.1276 16.4563 41.5962 17.5082 41.051C17.6831 40.9606 17.8661 40.862 18.0544 40.7524L18.2481 40.6429L18.2454 40.873ZM59.7405 41.0866C59.7028 41.4263 59.6624 41.7934 59.6221 42.1687C59.345 44.7986 59.0302 47.7736 57.8545 47.864C57.8302 47.8667 57.8006 47.8667 57.7764 47.8667C57.4643 47.853 57.1738 47.7078 56.9747 47.4613C56.2913 46.7079 55.9092 44.9794 55.99 43.8973C56.0196 43.333 56.1891 42.7851 56.4796 42.303C57.015 41.3442 58.0105 40.8812 59.0705 40.4566C59.2508 40.3854 59.4418 40.3059 59.6382 40.2155L59.8454 40.1224C59.8508 40.1224 59.7701 40.8346 59.7405 41.0866ZM21.3852 21.2696C21.474 21.2751 21.5655 21.2833 21.665 21.2833C22.5959 21.2916 23.4757 20.8396 24.0218 20.0698L24.116 19.9383L24.2209 20.0588C24.8989 20.8423 25.5662 21.0039 26.0074 21.0039C26.3948 21.0039 26.7742 20.8806 27.089 20.6478C28.7732 19.3493 29.4324 14.2759 29.5965 12.7528L29.6718 12.1254C29.8413 10.7475 29.8763 10.4626 30.1131 10.4325C30.3364 10.4325 30.3552 10.627 30.374 12.7199C30.3902 14.4266 30.4063 16.7633 30.7157 18.1878C30.8529 18.8179 31.391 20.8724 32.5426 20.8724C32.8224 20.8615 33.0914 20.7656 33.3174 20.5985C33.8286 20.2533 34.4313 19.3548 34.859 18.2891L34.9963 17.9495L35.1039 18.2974C35.4348 19.3466 36.102 20.6259 37.4231 20.7519C37.5118 20.7601 37.5979 20.7656 37.6867 20.7628C39.5485 20.7628 40.6355 18.7822 41.0202 14.706L41.0283 14.6211L41.1063 14.5937C41.9834 14.2978 43.7564 13.0486 44.838 10.2571L44.8783 10.1613L45.1097 10.1914C45.5563 10.2599 46.0056 10.301 46.455 10.3147C46.5303 10.3147 46.6056 10.3119 46.6702 10.3065L46.8962 10.2873L46.7993 10.4927C46.011 12.161 45.029 14.2403 44.9591 16.7633C44.9321 17.8563 45.1178 19.3603 45.742 20.0122C46.0433 20.3492 46.4711 20.5464 46.9177 20.5519C47.9751 20.5519 49.1938 19.4589 49.8503 18.3795L49.9902 18.1467L50.2297 18.2179C50.1759 19.4863 50.3373 20.3054 50.7274 20.7245C50.9588 20.9601 51.2763 21.0834 51.6018 21.0642C51.7713 21.0614 51.9408 21.0423 52.1076 21.0039C52.2287 20.2944 52.3067 19.5822 52.3498 18.8644C52.3794 18.4398 52.4116 18.0179 52.4574 17.6015L52.5811 16.6838L52.7345 16.7441C52.8556 16.7934 52.9793 16.8372 53.1031 16.8729C53.4959 16.977 53.9022 17.029 54.3084 17.0263C54.7631 17.0208 55.2151 16.9742 55.6617 16.8866L55.8258 16.8537L55.8151 17.0235C55.7828 17.5385 55.772 17.9933 55.7855 18.3795C55.8339 19.8232 56.3424 20.6861 57.1388 20.6861C57.5235 20.6642 57.8948 20.53 58.2096 20.3026C58.9306 19.752 59.5441 19.0699 60.0176 18.2919L60.2382 17.9467L60.257 18.3576C60.3135 19.7109 60.6848 20.6177 61.3548 21.0477C61.5646 21.1875 61.8094 21.2614 62.0597 21.2642C62.9932 21.2642 63.8919 20.2314 64.4192 19.2589L64.6613 19.3274C64.6533 20.2067 64.8524 20.919 65.2048 21.2861C65.3743 21.4669 65.6111 21.571 65.8586 21.5682C66.0173 21.5655 66.1761 21.5326 66.3267 21.4778C66.8379 21.2368 67.298 20.8889 67.672 20.4588L67.8038 20.3191L67.8818 20.4999C68.5544 22.0613 69.4396 22.2421 70.0477 22.2421C70.271 22.2394 70.4943 22.2147 70.7122 22.1737C71.6673 22.012 73.2036 21.1984 74.3901 19.4424L74.6483 19.0589L74.6268 19.5246C74.6026 19.952 74.5972 20.3328 74.608 20.6587C74.6564 22.1052 75.1622 22.9681 75.9613 22.9681C76.346 22.9434 76.7173 22.8092 77.0294 22.5818C77.9226 22.0038 79.5961 19.9301 79.6284 18.5028C79.6526 18.1659 79.5288 17.8344 79.2921 17.5988C78.8509 18.7329 77.4895 21.034 76.7335 21.034C76.6339 21.0368 76.537 20.9957 76.4671 20.9217C76.1227 20.5738 76.5048 18.3713 77.433 13.8787C77.7155 12.5172 77.963 11.3228 78.0249 10.7941C77.7774 10.8105 77.5325 10.8763 77.3119 10.9886L77.215 11.0324L77.1559 10.9447C77.0079 10.7365 76.8169 10.564 76.5989 10.438C76.0851 10.1229 75.5012 9.94759 74.9013 9.93664C72.9238 9.93664 71.4225 12.1227 71.0081 14.18C70.7337 15.5662 70.5158 18.0234 72.1866 18.9356C72.2673 18.9795 72.3534 19.0206 72.4395 19.0507L72.6359 19.1247L72.4825 19.2671C71.7911 19.9273 71.0969 20.2752 70.4781 20.2752C70.2521 20.2752 70.0288 20.2287 69.8216 20.1355C69.4961 19.9273 69.254 19.6095 69.1356 19.2397L69.1033 19.1603L69.1544 19.1C69.367 18.8589 69.5365 18.5795 69.6575 18.2809C70.0342 17.3687 69.9239 16.4126 69.4181 16.1962C69.3481 16.1688 69.2728 16.1524 69.1975 16.1551C68.7051 16.1551 68.1159 16.7167 67.7984 17.4947C67.6424 17.8618 67.5697 18.259 67.5805 18.659L67.5832 18.7138L67.5482 18.7548C67.263 19.0863 66.9025 19.3466 66.5016 19.5109L66.3375 19.5767L66.3267 19.3986C66.324 18.6343 66.4128 17.8728 66.5877 17.1304C66.8272 15.8867 67.072 14.6046 66.5769 13.9965C66.3133 13.7143 65.9339 13.5719 65.5546 13.6102C65.4739 13.6102 65.3904 13.6157 65.299 13.6212C65.1079 14.1581 64.9465 14.7443 64.7878 15.3114C64.3223 16.9687 63.8461 18.6809 62.6623 19.3767L62.5816 19.4233L62.5143 19.3603C61.9924 18.9 62.1054 17.9988 62.1834 17.3413L62.1969 17.2427C62.3287 16.2181 62.5332 15.2046 62.8076 14.2101C63.4076 12.0597 64.1421 10.0353 65.4308 9.79693L65.4954 9.78597L65.5438 9.83254C66.0012 10.2982 66.0362 11.142 65.6514 12.4103C65.8075 12.4542 65.9689 12.4761 66.133 12.4761C66.7195 12.4761 67.2253 12.0624 67.3572 11.4817C67.6289 10.5749 67.3222 9.43806 66.6819 8.99153C66.2756 8.6902 65.7913 8.52583 65.2909 8.51213C63.2515 8.51213 61.3305 11.6844 60.6498 14.7525C60.6176 14.884 60.5933 15.0183 60.5638 15.1498L60.5019 15.3251L60.44 15.2813C60.2032 15.6429 59.988 16.0182 59.797 16.4044C59.3046 17.3495 58.7907 18.3275 57.7791 18.6672L57.6096 18.7247L57.6069 18.5466C57.572 16.6154 58.0455 14.4868 58.5002 12.4268C58.823 11.1392 59.0571 9.8298 59.2051 8.50939C58.2688 8.55597 57.3352 9.45724 57.0608 10.2708C56.5415 11.9857 56.1702 13.7444 55.955 15.5278L55.9469 15.6182L55.8581 15.6374C55.3523 15.7716 54.8304 15.8428 54.3057 15.8538C53.999 15.8593 53.695 15.8209 53.399 15.7415C53.1892 15.684 52.9874 15.5935 52.8018 15.4758L52.7345 15.4319L52.791 14.9635C53.052 12.8541 53.3022 10.8626 53.8537 7.98069C53.851 7.97521 53.8295 7.95603 53.7327 7.95603C53.66 7.95877 53.5847 7.96425 53.512 7.97795C51.7417 8.37516 51.6206 9.09837 51.3301 10.8516L51.2494 11.3365C51.2009 11.6269 51.1041 12.0405 51.0072 12.4706C50.8754 12.9856 50.7705 13.5061 50.6924 14.0293C50.679 14.18 50.6628 14.3389 50.6413 14.4978L50.5956 14.6676L50.5337 14.6375C50.3158 15.0183 50.1221 15.4401 49.9364 15.8483C49.401 17.0235 48.8495 18.2398 47.5661 18.6727L47.5177 18.6891L47.4719 18.6672C46.8316 18.3686 46.8478 17.4564 46.8585 16.9112C46.9742 14.7142 47.7006 12.5966 48.9544 10.805C48.9113 9.46545 48.3733 8.50392 47.5473 8.29572C47.4854 8.27928 47.4208 8.27106 47.3563 8.2738C47.1195 8.29024 46.8881 8.34503 46.6675 8.43269C46.3769 8.54501 46.0729 8.61075 45.7635 8.62719C45.559 8.62719 45.3572 8.5861 45.1689 8.50118L45.0613 8.45187L45.0963 8.33955C45.594 6.79999 46.3446 3.19491 45.333 2.51827C45.1985 2.43061 45.0425 2.38404 44.8837 2.3813C44.386 2.3813 43.9474 2.84152 43.7322 3.11547C42.9977 4.05235 42.4381 6.03021 42.5376 7.34514C42.6506 8.79703 43.3448 9.56133 43.7483 9.88733L43.8344 9.95581L43.786 10.0517C43.1457 11.3118 42.0291 12.7774 41.1386 13.1472L40.9879 13.2075L40.9664 13.0431C40.8373 12.1638 40.3341 11.2296 39.6481 11.2296C39.5109 11.2324 39.3763 11.268 39.2553 11.3337C38.7844 11.5748 38.658 12.109 38.6365 12.5117C38.5853 13.4513 39.0535 14.6183 39.64 15.0073L39.7315 15.0676L39.6884 15.1717C39.5539 15.5689 39.4571 15.9798 39.4006 16.3989C39.1907 17.6043 38.9216 19.1028 37.9289 19.1329C37.4123 19.1329 36.9522 17.9001 36.8338 17.2701C36.3765 14.8457 36.4464 9.95581 38.2221 8.83539L38.2732 8.80525L38.3297 8.82443C38.9351 9.01345 39.1046 9.6353 39.266 10.2407C39.2983 10.3558 39.3279 10.4681 39.3602 10.5804H39.4328C39.7019 10.5968 39.9655 10.501 40.162 10.3147C40.3584 10.0818 40.4552 9.78049 40.4364 9.47367C40.4149 8.14779 39.2849 7.67935 38.319 7.67935C37.5952 7.66291 36.893 7.92864 36.3576 8.42447C35.2572 9.56681 34.5281 12.6514 34.6599 15.6456C34.216 17.2399 33.7075 18.7165 32.9892 18.7165C32.4107 18.7165 32.3461 17.2865 32.2735 14.5471C32.2278 12.7856 32.1713 10.7886 31.8592 9.62708C31.6628 8.89291 31.1919 8.27106 30.6942 8.08204C30.5597 8.03 30.4198 8.0026 30.2772 7.99986C29.0288 7.99986 28.5391 10.542 28.3293 11.6269L28.3185 11.6926C27.8262 14.4567 26.8415 19.111 25.776 19.2069C25.7464 19.2096 25.7141 19.2123 25.6872 19.2123C25.2944 19.1904 24.9366 18.9685 24.7348 18.6234L24.6998 18.574L24.7133 18.511C25.4747 15.7168 24.7375 12.3364 24.4954 11.2269L24.4658 11.0817C24.1537 9.62982 23.2497 8.06561 22.0094 8.06561C21.4659 8.06561 20.8982 8.35873 20.3171 8.93949C18.6867 10.5694 18.0463 15.9332 19.1198 19.0069C19.4561 19.9739 20.1207 21.1518 21.3825 21.2724L21.3852 21.2696ZM72.7489 16.2181C72.8 15.4621 72.9264 14.7115 73.1282 13.9828C73.4269 12.9144 74.2502 10.89 75.2214 10.89C75.3183 10.8927 75.4124 10.9119 75.5012 10.9502C75.9532 11.2242 76.1039 11.709 75.9425 12.4213C75.9371 12.4405 75.9263 12.4843 75.9075 12.5555C75.8483 12.7911 75.7218 13.2842 75.4985 13.9417L75.4797 14.0047C74.5623 16.7003 73.9138 17.9001 73.3811 17.9001C73.3408 17.9001 73.3004 17.8947 73.2627 17.881C72.7004 17.7056 72.7247 16.5633 72.7489 16.2181ZM43.8129 8.29572L43.7134 8.13957C43.3071 7.49581 43.3771 5.74258 43.7322 5.07963C43.8802 4.80569 44.047 4.74816 44.1654 4.74816C44.2541 4.7509 44.3376 4.7783 44.4102 4.83035C44.9295 5.25496 44.4506 7.44102 43.9232 8.14505L43.8129 8.29572ZM21.6408 9.67639C21.7834 9.47093 22.0094 9.34492 22.2542 9.33122H22.2677L22.2811 9.33396C23.29 9.53394 23.4434 12.5418 23.395 15.0292C23.3896 15.2182 23.3842 15.4456 23.3734 15.6922L23.3708 15.7607L23.3116 15.7963C22.8865 16.0812 22.6497 16.7852 22.7277 17.5522C22.7546 17.8508 22.8327 18.1412 22.9564 18.4124L22.9806 18.459L22.9618 18.511C22.7143 19.2616 22.3564 19.6452 21.8964 19.6479C21.3717 19.6479 20.9117 18.4124 20.796 17.7851C20.3897 15.6292 20.6157 10.942 21.6408 9.67639ZM7.49163 20.152C7.65575 19.6534 7.81448 19.1685 7.98667 18.7247L8.23419 18.7576C8.44674 20.7848 8.86107 22.9243 10.3839 23.4228C10.6395 23.5105 10.9058 23.5571 11.1776 23.5625C13.1766 23.5625 14.0026 20.6587 14.6025 18.5412C14.6752 18.2919 14.7424 18.0536 14.807 17.8344L15.0626 17.87C15.1056 19.6013 15.2832 21.3272 15.5926 23.0311C15.8159 24.1104 16.4563 24.6583 17.4948 24.6583C17.6535 24.6583 17.8123 24.6446 17.971 24.62C17.8176 24.1077 17.4221 22.4585 17.2392 19.6616C16.8275 13.4869 16.9594 1.49099 16.9809 0.0500488C16.5773 0.107577 15.3451 0.52123 15.033 3.43598C14.8716 4.95362 14.7855 6.17267 14.7021 7.35336C14.5891 8.91757 14.4868 10.3941 14.2205 12.3857L14.1209 13.1335C13.8142 15.4621 13.4967 17.87 12.773 19.8616C12.5551 20.467 12.2215 21.3765 11.5273 21.3765C11.4628 21.3765 11.4009 21.3683 11.339 21.3546C10.4834 21.0669 10.4538 19.1301 10.4269 17.2564C10.4215 16.9331 10.4162 16.6126 10.4054 16.314L10.3839 15.6566C10.3301 13.9088 10.2709 12.1008 10.3032 10.3558C10.3381 8.49296 10.4054 2.68264 10.4162 1.67179C9.99376 1.75397 8.70772 2.2005 8.46288 4.69064C8.35527 5.77545 8.26648 6.82465 8.18039 7.84645C7.82524 12.0104 7.51584 15.6072 6.32127 19.3C6.11411 19.9301 5.03523 23.0749 4.04783 23.0749C3.9725 23.0749 3.89716 23.0585 3.8299 23.0229C3.38329 22.8119 3.07926 21.1683 3.04429 20.3465C2.99586 18.9795 3.07657 17.6098 3.28374 16.2565L3.30526 16.0949C2.76179 16.177 1.16365 16.6455 1.01029 19.1877C0.975318 19.9136 1.01568 20.6451 1.12598 21.3628C1.36544 23.0722 2.40934 24.8857 3.86757 24.8857C4.45409 24.8555 5.01102 24.6145 5.43611 24.2008C6.45042 23.3187 6.97775 21.7079 7.49163 20.152Z" fill="#31264F"/>
</g>
<defs>
<clipPath id="clip0_1431_456">
<rect width="82.004" height="49.9863" fill="white" transform="translate(0.998047 0.0500488)"/>
</clipPath>
</defs>
</svg>
