<svg width="78" height="144" viewBox="0 0 78 144" fill="none" xmlns="http://www.w3.org/2000/svg">
<path d="M30.6618 17.3617V2.86957C30.6618 2.86957 35.6858 2 38.087 2C40.4881 2 45.0576 2.86957 45.0576 2.86957V17.3617C45.0576 17.3617 65.6609 35.8063 69.623 40.0222L69.7486 40.1559C73.6158 44.2698 75.0379 45.7827 75.0379 54.6462C75.0379 63.605 74.9058 118.017 75.0379 123.155C75.1701 128.293 72.9248 132.377 70.0192 136.066C67.1136 139.755 50.4726 141.863 40.0389 141.994C29.6053 142.126 10.6466 139.887 7.81345 136.988C4.98029 134.09 2.26651 129.347 2.26644 123.813V54.6462C2.26644 54.6462 0.549526 48.5858 5.83238 41.735C11.1152 34.8841 30.6618 17.3617 30.6618 17.3617Z" stroke="url(#paint0_linear_731_13021)" stroke-width="4" stroke-linejoin="round"/>
<path fill-rule="evenodd" clip-rule="evenodd" d="M32.0033 73.6061C29.0483 77.4165 26.895 81.1753 26.5471 83.1301C26.4536 83.6558 26.5043 84.6679 26.6545 85.2716C27.0718 86.9492 28.2451 88.4347 29.7389 89.1764C30.1621 89.3866 31.0269 89.6903 31.2022 89.6903C31.2686 89.6903 31.2838 89.5711 31.2838 89.0474C31.2838 87.4835 31.8239 85.6775 32.9887 83.3468C33.7348 81.854 35.0002 79.7168 35.8309 78.5469C35.9657 78.3568 36.0761 78.1769 36.0761 78.1468C36.0761 78.0785 34.5404 75.7506 34.0198 75.0299C33.4741 74.2744 32.5152 73 32.4924 73C32.4819 73 32.2618 73.2727 32.0033 73.6061ZM41.4457 75.0158C37.8417 79.5579 34.9945 84.1444 34.086 86.8714C33.7556 87.8631 33.689 88.3023 33.7269 89.2392C33.8086 91.2623 34.6086 93.0646 36.0781 94.5366C37.2724 95.7328 38.7163 96.5052 40.4738 96.8879C41.209 97.048 43.1061 97.034 43.8954 96.8626C47.211 96.1425 49.6643 93.7232 50.3679 90.4797C50.4914 89.9105 50.5425 88.5734 50.4591 88.0943C50.0974 86.017 48.4162 82.7741 45.7131 78.94C44.3933 77.0679 42.2254 74.2405 42.1099 74.2405C42.0829 74.2405 41.784 74.5894 41.4457 75.0158ZM47.0743 86.4058C47.603 86.8807 48.0477 87.7314 48.1961 88.552C48.2439 88.8163 48.1961 89.2956 48.1132 89.6797C47.9361 90.6081 47.7456 91.0981 47.3232 91.7114C46.9775 92.2133 46.6949 92.478 46.1529 92.808C45.6965 93.0858 44.8339 93.3567 44.4226 93.3512C44.0365 93.3462 43.4892 93.2311 43.4784 93.2215C43.4704 93.2144 43.8178 92.8063 44.2834 92.3495C44.8566 91.7872 45.2337 91.363 45.4517 91.0355C46.2641 89.8143 46.6731 88.4302 46.6945 86.8287C46.6996 86.4488 46.7334 86.1379 46.74 86.1379C46.7466 86.1379 46.9103 86.2584 47.0743 86.4058Z" fill="url(#paint1_linear_731_13021)"/>
<defs>
<linearGradient id="paint0_linear_731_13021" x1="76.157" y1="99.5596" x2="0.0899892" y2="98.3154" gradientUnits="userSpaceOnUse">
<stop stop-color="#1B2AC9"/>
<stop offset="1" stop-color="#0073F0"/>
</linearGradient>
<linearGradient id="paint1_linear_731_13021" x1="50.8659" y1="89.7245" x2="25.8903" y2="88.9415" gradientUnits="userSpaceOnUse">
<stop stop-color="#1B2AC9"/>
<stop offset="1" stop-color="#0073F0"/>
</linearGradient>
</defs>
</svg>
