<svg xmlns="http://www.w3.org/2000/svg" width="1920" height="2515" fill="none"><path fill-rule="evenodd" clip-rule="evenodd" d="M1920 113.9 1766.9 30a244.5 244.5 0 0 0-332 97l-125.2 228.1a81.4 81.4 0 0 1-110.8 32.4L970.6 262.8a244.4 244.4 0 0 0-332 97L513.5 588a81.4 81.4 0 0 1-110.8 32.4L174.4 495.5A244.4 244.4 0 0 0 0 472v1974.5l69.5 38a244.3 244.3 0 0 0 332-97l124.4-228a81.5 81.5 0 0 1 110.7-32.4l228.4 125a244.4 244.4 0 0 0 332-97l125.1-228.3a81.4 81.4 0 0 1 110.8-32.4l228.3 125a244.4 244.4 0 0 0 258.8-14.8V114Z" fill="#1B2AC9"/></svg>
