<svg width="25" height="32" viewBox="0 0 25 32" fill="none" xmlns="http://www.w3.org/2000/svg">
<path fill-rule="evenodd" clip-rule="evenodd" d="M10.908 0.385346C10.571 0.431689 9.95071 0.547158 9.48305 0.65054C8.99812 0.757709 7.84731 1.16739 7.26839 1.43888C5.11698 2.4478 3.33629 3.9763 2.07797 5.8941C1.54621 6.70455 1.23691 7.30011 0.819371 8.3171C0.453408 9.20871 0.187473 10.4157 0.0636972 11.7472C-0.0212414 12.661 -0.0212419 12.8057 0.0637526 13.7279C0.114213 14.2751 0.177358 14.798 0.204125 14.8899C0.230836 14.9818 0.268555 15.1698 0.28789 15.3076C0.307225 15.4455 0.346453 15.6335 0.37512 15.7254C0.403787 15.8173 0.506495 16.1525 0.603336 16.4703C0.700233 16.7882 0.81395 17.114 0.856084 17.1944C0.898162 17.2749 0.932753 17.37 0.932976 17.4058C0.933982 17.5924 1.92039 19.3798 2.32642 19.9307C2.62264 20.3326 3.15177 20.9704 3.47409 21.3142C3.8552 21.7207 5.37253 23.0355 6.63437 24.0527C8.07542 25.2144 9.55854 26.6569 10.2811 27.5995C10.4261 27.7886 10.5448 27.9683 10.5448 27.9987C10.5448 28.0291 10.5646 28.0623 10.5889 28.0725C10.6488 28.0978 10.9405 28.5855 11.0997 28.9266C11.3004 29.3567 11.4341 29.7879 11.4708 30.1242C11.5619 30.9582 12.0131 31.4184 12.6468 31.3237C13.1291 31.2516 13.4538 30.818 13.5243 30.152C13.5995 29.4423 13.9858 28.6089 14.6732 27.6733C15.3661 26.7304 16.8513 25.2745 18.3668 24.0527C18.7083 23.7775 19.6989 22.9551 19.9368 22.7493C20.0466 22.6543 20.2729 22.4641 20.4397 22.3265C21.1495 21.7409 22.0183 20.8102 22.6814 19.925C22.8527 19.6964 23.5453 18.5487 23.6874 18.2581C24.189 17.2323 24.5547 16.1591 24.7591 15.1127C24.8975 14.4048 25.0308 12.8223 24.9937 12.3276C24.9233 11.3886 24.7481 10.1378 24.6308 9.73749C24.4388 9.08216 24.2109 8.36088 24.1732 8.28925C24.149 8.2433 24.0883 8.10544 24.0383 7.9829C23.8092 7.42093 23.3023 6.46765 22.9387 5.91521C22.001 4.49025 20.8767 3.3652 19.3684 2.34258C18.892 2.01957 18.08 1.59234 17.1913 1.19714C16.9214 1.0771 15.8285 0.720445 15.5182 0.651097C15.0015 0.535684 14.4156 0.430909 14.0094 0.381224C13.4988 0.318783 11.3712 0.321623 10.908 0.385346ZM13.8874 8.64847C14.1123 8.73018 14.3763 8.84538 14.4742 8.90453C14.572 8.96363 14.7023 9.0352 14.7638 9.0635C14.9884 9.16711 15.5498 9.66496 15.839 10.0169C16.1689 10.4186 16.4513 10.9593 16.6383 11.5478C16.7404 11.8689 16.7626 12.0704 16.7638 12.6897C16.766 13.7331 16.6063 14.2722 16.0435 15.1206C15.5308 15.8934 14.8402 16.4198 13.8902 16.7621C13.4958 16.9042 13.3133 16.9353 12.7241 16.9609C11.3182 17.0219 10.3789 16.6582 9.39923 15.6734C8.71877 14.9895 8.39908 14.3289 8.22389 13.245C8.14683 12.7683 8.14683 12.6576 8.22361 12.1588C8.27061 11.8534 8.34638 11.4982 8.39192 11.3694C8.78728 10.2528 9.58078 9.34791 10.588 8.86498C11.3279 8.51022 11.6248 8.45352 12.6124 8.47825C13.3792 8.49741 13.5255 8.5169 13.8874 8.64847Z" fill="url(#paint0_linear_958_3934)"/>
<defs>
<linearGradient id="paint0_linear_958_3934" x1="12.5" y1="0.335937" x2="12.5" y2="31.3359" gradientUnits="userSpaceOnUse">
<stop stop-color="#FF6022"/>
<stop offset="1" stop-color="#F32512"/>
</linearGradient>
</defs>
</svg>
